<?xml version="1.0" standalone="no"?>
<!DOCTYPE svg PUBLIC "-//W3C//DTD SVG 1.1//EN" "http://www.w3.org/Graphics/SVG/1.1/DTD/svg11.dtd" >
<svg xmlns="http://www.w3.org/2000/svg" xmlns:xlink="http://www.w3.org/1999/xlink" version="1.1">
<metadata>
Created by FontForge 20161013 at Sun Feb  2 02:40:34 2014
 By ,,,
Copyright (c) 2012 by Andriy Konstantynov. All rights reserved.
</metadata>
<defs>
<font id="LytigaPro-Light" horiz-adv-x="568" >
  <font-face 
    font-family="Lytiga Pro"
    font-weight="300"
    font-stretch="normal"
    units-per-em="1000"
    panose-1="2 11 0 0 4 0 0 0 0 4"
    ascent="766"
    descent="-234"
    x-height="500"
    cap-height="700"
    bbox="-70 -250 1193 966"
    underline-thickness="50"
    underline-position="-200"
    unicode-range="U+0020-2212"
  />
<missing-glyph horiz-adv-x="251" 
 />
    <glyph glyph-name=".notdef" horiz-adv-x="251" 
 />
    <glyph glyph-name=".null" horiz-adv-x="0" 
 />
    <glyph glyph-name="nonmarkingreturn" horiz-adv-x="333" 
 />
    <glyph glyph-name="space" unicode=" " horiz-adv-x="251" 
 />
    <glyph glyph-name="exclam" unicode="!" horiz-adv-x="217" 
d="M83 96h51v-96h-51v96zM81 700h55l-4 -493h-47z" />
    <glyph glyph-name="quotedbl" unicode="&#x22;" horiz-adv-x="372" 
d="M81 700h55l-4 -214h-47zM237 700h54l-4 -214h-47z" />
    <glyph glyph-name="numbersign" unicode="#" horiz-adv-x="778" 
d="M551 228h144v-42h-144v-186h-55v186h-215v-186h-54v186h-145v42h145v244h-145v42h145v186h54v-186h215v186h55v-186h144v-42h-144v-244zM496 472h-215v-244h215v244z" />
    <glyph glyph-name="dollar" unicode="$" horiz-adv-x="634" 
d="M286 818h54v-114q106 -3 187 -45v-42q-93 46 -201 46q-106 0 -147 -30q-40 -28 -40 -108q0 -105 145 -139q41 -9 121 -31q66 -17 106 -61t40 -114q0 -98 -46 -138q-47 -40 -165 -45v-115h-54v114q-120 3 -202 48v39q66 -31 137 -40q48 -6 90 -5q103 2 144 33
q40 31 40 109q0 44 -22.5 73.5t-59 44.5t-80.5 25.5t-88 23.5t-80.5 31.5t-59 55.5t-22.5 91q0 93 44 134q42 39 159 44v115z" />
    <glyph glyph-name="percent" unicode="%" horiz-adv-x="882" 
d="M602 700h50l-372 -700h-50zM528 26q-33 32 -33 117t33 116q32 31 121 31t121 -31q33 -31 33 -116t-33 -117q-32 -31 -121 -31t-121 31zM563 226q-23 -23 -23 -83q0 -61 23 -84q23 -22 86 -22t85 22q24 23 24 84q0 60 -23 83t-86 23t-86 -23zM79 557q0 85 32 117
q32 31 122 31q89 0 121 -31q33 -32 33 -117t-33 -116q-32 -31 -121 -31t-121 31q-33 31 -33 116zM233 451q62 0 85.5 22.5t23.5 83.5t-23 83.5t-86 22.5t-86 -22.5t-23 -83.5t23 -83.5t86 -22.5z" />
    <glyph glyph-name="ampersand" unicode="&#x26;" horiz-adv-x="786" 
d="M333 -5q-140 0 -192 40t-52 150q0 81 27 121.5t92 56.5v3q-55 15 -77 51.5t-22 109.5q0 103 48 140q49 38 177 38q108 0 184 -43v-40q-79 41 -172 41q-106 0 -145 -30q-39 -29 -39 -110q0 -80 36 -110q38 -29 135 -29h134l14 100h40v-100h197v-42h-197v-182q0 -71 24 -97
t90 -26q43 0 83 8v-39q-42 -11 -102 -11q-89 0 -119 37q-67 -37 -164 -37zM333 37q79 0 145 31q-11 33 -11 91v183h-134q-109 0 -150 -33q-40 -31 -40 -120q0 -87 40 -120q41 -32 150 -32z" />
    <glyph glyph-name="quotesingle" unicode="'" horiz-adv-x="217" 
d="M81 700h55l-4 -214h-47z" />
    <glyph glyph-name="parenleft" unicode="(" horiz-adv-x="334" 
d="M79 325q0 172 16 261q17 92 54.5 130.5t109.5 38.5v-42q-52 -3 -78 -36.5t-37.5 -113.5t-12.5 -238q2 -227 27.5 -305.5t100.5 -82.5v-42q-72 3 -109.5 41.5t-53.5 128t-17 260.5z" />
    <glyph glyph-name="parenright" unicode=")" horiz-adv-x="415" 
d="M203 325q0 153 -12 236q-11 82 -38 117t-78 35v42q71 0 109 -39q38 -38 54.5 -129t16.5 -262q-1 -171 -17 -260.5t-53.5 -128t-109.5 -41.5v42q74 0 101 82q27 83 27 306z" />
    <glyph glyph-name="asterisk" unicode="*" horiz-adv-x="526" 
d="M225 493l-147 85l17 36l148 -85v170h40v-170l148 85l17 -36l-148 -85l148 -85l-17 -36l-148 85v-170h-40v170l-148 -85l-17 36z" />
    <glyph glyph-name="plus" unicode="+" 
d="M257 289h-175v42h175v178h54v-178h174v-42h-174v-178h-54v178z" />
    <glyph glyph-name="comma" unicode="," horiz-adv-x="225" 
d="M92 -22v118h51v-107q0 -42 -9.5 -68.5t-34.5 -56.5q-38 16 -41 17q22 28 28 46t6 51z" />
    <glyph glyph-name="hyphen" unicode="-" horiz-adv-x="386" 
d="M303 289h-221v42h221v-42z" />
    <glyph glyph-name="period" unicode="." horiz-adv-x="215" 
d="M82 96h51v-96h-51v96z" />
    <glyph glyph-name="slash" unicode="/" horiz-adv-x="537" 
d="M424 750h50l-362 -850h-50z" />
    <glyph glyph-name="zero" unicode="0" horiz-adv-x="692" 
d="M89 350q0 206 54 280q54 75 200 75q147 0 199 -75q54 -74 54 -280q0 -202 -54 -279q-54 -76 -199 -76t-200 76q-54 77 -54 279zM143 350q0 -178 42 -246q43 -67 157 -67q115 0 157 67q43 67 43 246q0 183 -43 247q-42 66 -157 66t-157 -66t-42 -247z" />
    <glyph glyph-name="one" unicode="1" horiz-adv-x="472" 
d="M214 650l-168 -60v46l168 64h54v-658h136v-42h-327v42h137v608z" />
    <glyph glyph-name="two" unicode="2" horiz-adv-x="590" 
d="M512 0h-427v42q0 94 38.5 147t106.5 88q16 8 49 25t57 30t43 27q74 54 74 166q0 78 -39 108q-38 30 -138 30q-103 0 -191 -47v42q86 47 210 47q120 0 166 -40q46 -39 46 -140q0 -65 -22 -113t-50.5 -72t-72.5 -47q-12 -6 -43.5 -20.5t-46 -22t-40 -23t-38.5 -31.5
t-28 -38.5t-21 -51.5t-6 -64h373v-42z" />
    <glyph glyph-name="three" unicode="3" horiz-adv-x="596" 
d="M205 341l-51 2v37l38 2q134 2 184 32q51 30 51 108q0 82 -35 111q-34 30 -129 30q-94 0 -181 -36v38q79 40 193 40q119 0 162 -37q44 -38 44 -142q0 -70 -31 -108t-103 -54v-3q82 -13 118.5 -55t36.5 -122q0 -111 -46 -150q-45 -39 -168 -39q-122 0 -206 42v38
q88 -38 188 -38q102 0 139 31q38 32 38 120t-51 119q-53 33 -191 34z" />
    <glyph glyph-name="four" unicode="4" horiz-adv-x="663" 
d="M513 0h-54v115h-391v41l353 544h92v-544h78v-41h-78v-115zM454 658l-332 -502h337v502h-5z" />
    <glyph glyph-name="five" unicode="5" horiz-adv-x="592" 
d="M246 369h-145l26 333h356v-41h-306l-21 -250h110q141 0 193 -46q53 -47 53 -165t-50 -162q-49 -43 -183 -43q-120 0 -206 53v38q94 -49 186 -49q114 0 157 35q42 35 42 131q0 97 -45 131q-46 35 -167 35z" />
    <glyph glyph-name="six" unicode="6" horiz-adv-x="663" 
d="M89 280q2 130 12.5 208t38.5 128t71.5 68.5t115.5 20.5q120 0 212 -47v-39q-93 44 -191 44q-108 0 -155 -62q-45 -60 -50 -223q21 24 63 33.5t126 9.5q139 0 190 -45q52 -45 52 -168q0 -122 -52 -168q-51 -45 -190 -45t-191 61t-52 224zM143 280q0 -139 40 -191t148 -52
q107 0 148 36q41 38 41 135q0 99 -40 135t-149 36q-107 0 -148 -21q-40 -19 -40 -78z" />
    <glyph glyph-name="seven" unicode="7" horiz-adv-x="601" 
d="M476 658h-413v42h472v-38l-297 -662h-56z" />
    <glyph glyph-name="eight" unicode="8" horiz-adv-x="673" 
d="M109 527q0 102 47 140q49 38 177 38q130 0 176 -37q48 -38 48 -141q0 -73 -22 -109.5t-78 -51.5v-3q66 -16 93 -56.5t27 -121.5q0 -110 -52 -150t-192 -40t-192 40t-52 150q0 81 27 121.5t92 56.5v3q-55 15 -77 51.5t-22 109.5zM143 189q0 -87 40 -120q41 -32 150 -32
q108 0 149 32q41 33 41 120q0 88 -41 120q-41 33 -149 33q-109 0 -150 -33q-40 -31 -40 -120zM162 523q0 -80 36 -110q38 -29 135 -29q98 0 134 30q37 30 37 109q0 82 -37 110q-36 30 -134 30q-97 0 -135 -30q-36 -29 -36 -110z" />
    <glyph glyph-name="nine" unicode="9" horiz-adv-x="642" 
d="M556 427q0 -132 -11.5 -212t-40.5 -130q-27 -49 -71.5 -69.5t-117.5 -20.5q-124 0 -216 47v39q96 -44 194 -44q111 0 158 63q46 63 51 230q-21 -25 -62 -34.5t-123 -9.5q-136 0 -186 44t-50 166q0 119 51 164t187 45q135 0 186 -60q51 -58 51 -218zM502 427
q0 135 -39 185q-39 51 -144 51t-145 -36q-39 -35 -39 -131q0 -97 39 -133q41 -35 145 -35q105 0 144 21t39 78z" />
    <glyph glyph-name="colon" unicode=":" horiz-adv-x="215" 
d="M82 96h51v-96h-51v96zM82 500h51v-96h-51v96z" />
    <glyph glyph-name="semicolon" unicode=";" horiz-adv-x="225" 
d="M92 -22v118h51v-107q0 -42 -9.5 -68.5t-34.5 -56.5q-38 16 -41 17q22 28 28 46t6 51zM92 500h51v-96h-51v96z" />
    <glyph glyph-name="less" unicode="&#x3c;" horiz-adv-x="554" 
d="M51 215v69l452 179v-64l-408 -145v-8l408 -145v-64z" />
    <glyph glyph-name="equal" unicode="=" 
d="M485 364h-403v42h403v-42zM485 161h-403v42h403v-42z" />
    <glyph glyph-name="greater" unicode="&#x3e;" horiz-adv-x="554" 
d="M503 285v-69l-452 -179v64l408 145v8l-408 145v64z" />
    <glyph glyph-name="question" unicode="?" horiz-adv-x="584" 
d="M305 208h-51q0 55 14 95q9 24 24 43t25 27t33 24q4 3 18 11t18.5 11t15.5 11t15 13.5t11.5 15t10.5 18.5t5.5 21.5t2.5 26.5q0 78 -39 108q-38 30 -138 30q-102 0 -191 -47v42q88 47 210 47q120 0 166 -40q46 -39 46 -140q0 -37 -11 -63.5t-28 -42.5t-38 -28.5t-42 -26.5
t-38 -32t-28 -49.5t-11 -74.5zM254 96h51v-96h-51v96z" />
    <glyph glyph-name="at" unicode="@" horiz-adv-x="983" 
d="M643 451l8 49h46v-404q0 -34 15 -46.5t53 -12.5q49 0 67 44t18 169q0 126 -17 202t-58 124t-105.5 67.5t-170.5 19.5q-110 0 -177.5 -19.5t-110.5 -67.5q-42 -48 -60 -124.5t-18 -201.5q2 -124 19 -200t61 -124.5t112 -67.5t179 -21q153 0 291 59v-38q-120 -63 -290 -63
q-243 0 -335 98q-91 97 -91 357q0 180 39 277q38 96 128 137t253 41q123 0 197 -21.5t121 -74.5q48 -52 67.5 -136t19.5 -223q0 -146 -30 -201q-30 -54 -109 -54q-67 0 -91.5 17t-24.5 60q-74 -77 -186 -77q-108 0 -149 53q-39 54 -39 202q0 145 41 200q42 55 155 55
q100 0 172 -54zM643 105v315q-74 43 -155 43q-91 0 -125 -46q-34 -44 -34 -167t32 -169q32 -44 119 -44q86 0 163 68z" />
    <glyph glyph-name="A" unicode="A" horiz-adv-x="784" 
d="M122 0h-60l292 700h76l291 -700h-59l-86 207h-367zM396 646h-8l-167 -397h342z" />
    <glyph glyph-name="B" unicode="B" horiz-adv-x="675" 
d="M277 0h-185v700h160q175 0 239 -37q65 -38 65 -141q0 -70 -31 -108t-103 -53v-3q84 -13 121.5 -53.5t37.5 -118.5q0 -109 -65 -148q-65 -38 -239 -38zM525 190q0 83 -53 115t-195 32h-129v-295h129q143 0 195 31q53 32 53 117zM500 518q0 81 -53 110q-53 30 -195 30h-104
v-279h116q134 0 185 30q51 31 51 109z" />
    <glyph glyph-name="C" unicode="C" horiz-adv-x="667" 
d="M89 350q2 108 13.5 173.5t43 107t79 57t127.5 17.5q135 0 233 -58v-39q-101 55 -213 55q-131 0 -179 -66q-48 -65 -48 -247q0 -178 48 -246q49 -67 179 -67q109 0 213 56v-38q-97 -60 -233 -60q-152 0 -207 76q-56 77 -56 279z" />
    <glyph glyph-name="D" unicode="D" horiz-adv-x="715" 
d="M318 0h-226v700h226q176 0 240 -73t64 -277q0 -200 -65 -276q-65 -74 -239 -74zM566 350q0 178 -53 243t-195 65h-170v-616h170q142 0 195 65q53 67 53 243z" />
    <glyph glyph-name="E" unicode="E" horiz-adv-x="642" 
d="M557 42v-42h-465v700h465v-42h-409v-276h384v-41h-384v-299h409z" />
    <glyph glyph-name="F" unicode="F" horiz-adv-x="620" 
d="M148 319v-319h-56v700h463v-42h-407v-297h362v-42h-362z" />
    <glyph glyph-name="G" unicode="G" horiz-adv-x="686" 
d="M540 322h-185v42h238v-314q-97 -55 -237 -55q-153 0 -210 76q-57 77 -57 279q2 108 13.5 173.5t43 107t79 57t127.5 17.5q137 0 235 -58v-39q-101 55 -214 55q-131 0 -180 -66q-48 -66 -48 -247q0 -179 44 -247q43 -66 164 -66q101 0 187 44v241z" />
    <glyph glyph-name="H" unicode="H" horiz-adv-x="709" 
d="M148 339v-339h-56v700h56v-319h413v319h56v-700h-56v339h-413z" />
    <glyph glyph-name="I" unicode="I" horiz-adv-x="241" 
d="M92 700h56v-700h-56v700z" />
    <glyph glyph-name="J" unicode="J" horiz-adv-x="545" 
d="M381 250v450h56v-450q0 -146 -51 -201q-51 -54 -188 -54q-78 0 -132 18v36q41 -12 113 -12q115 0 159 45q43 46 43 168z" />
    <glyph glyph-name="K" unicode="K" horiz-adv-x="641" 
d="M92 700h56v-316h120l243 316h66l-263 -340l282 -360h-65l-264 336h-119v-336h-56v700z" />
    <glyph glyph-name="L" unicode="L" horiz-adv-x="638" 
d="M552 42v-42h-460v700h56v-658h404z" />
    <glyph glyph-name="M" unicode="M" horiz-adv-x="846" 
d="M148 594v-594h-56v700h56l273 -492h5l272 492h56v-700h-56v594l-261 -469h-28z" />
    <glyph glyph-name="N" unicode="N" horiz-adv-x="731" 
d="M638 700v-700h-55l-435 611v-611h-56v700h56l434 -611v611h56z" />
    <glyph glyph-name="O" unicode="O" horiz-adv-x="766" 
d="M89 350q2 108 15 173t47 107t87 57.5t141 17.5q167 0 229 -75q62 -74 62 -280q0 -202 -62 -279q-61 -76 -229 -76q-167 0 -228 76q-62 77 -62 279zM145 350q0 -178 50 -246q49 -67 184 -67q136 0 185 67q50 68 50 246q0 182 -50 247q-50 66 -185 66q-136 0 -185 -66
q-49 -64 -49 -247z" />
    <glyph glyph-name="P" unicode="P" horiz-adv-x="652" 
d="M148 0h-56v700h163q175 0 239 -43t64 -163q0 -117 -65 -161t-238 -44h-107v-289zM502 494q0 96 -52 130t-195 34h-107v-327h107q141 0 194 35t53 128z" />
    <glyph glyph-name="Q" unicode="Q" horiz-adv-x="764" 
d="M89 350q2 108 15 173t47 107t87 57.5t141 17.5q167 0 229 -75q62 -74 62 -280q0 -195 -57 -273q-55 -76 -206 -81q2 -69 29 -94q29 -26 105 -26q55 0 98 13v-40q-50 -14 -115 -14q-97 0 -135 35q-35 34 -37 126q-150 4 -207 81q-56 79 -56 273zM145 350q0 -178 50 -246
q49 -67 184 -67q136 0 185 67q50 68 50 246q0 182 -50 247q-50 66 -185 66q-136 0 -185 -66q-49 -64 -49 -247z" />
    <glyph glyph-name="R" unicode="R" horiz-adv-x="656" 
d="M591 0h-65l-208 298q-13 -1 -59 -1h-111v-297h-56v700h167q175 0 240 -42q64 -42 64 -160q0 -95 -43 -139t-147 -56zM506 498q0 93 -52 126q-52 34 -195 34h-111v-319h111q142 0 194 34q53 35 53 125z" />
    <glyph glyph-name="S" unicode="S" horiz-adv-x="638" 
d="M141 525q0 -105 145 -139q41 -9 121 -31q66 -17 106 -61t40 -114q0 -104 -52 -144q-52 -41 -185 -41q-139 0 -230 49v39q98 -46 211 -46q115 0 156 31q43 31 43 112q0 44 -22.5 73.5t-59 44.5t-80 26t-87.5 23.5t-80.5 31.5t-59 55.5t-22.5 90.5q0 101 48 140
q49 40 175 40q133 0 221 -46v-42q-93 46 -201 46q-106 0 -147 -30q-40 -28 -40 -108z" />
    <glyph glyph-name="T" unicode="T" horiz-adv-x="702" 
d="M323 658h-258v42h572v-42h-258v-658h-56v658z" />
    <glyph glyph-name="U" unicode="U" horiz-adv-x="734" 
d="M586 275v425h56v-425q0 -161 -58 -220q-57 -60 -213 -60q-155 0 -213 60q-57 60 -57 220v425h56v-425q0 -137 45 -188q47 -50 169 -50q124 0 169 50q46 50 46 188z" />
    <glyph glyph-name="V" unicode="V" horiz-adv-x="784" 
d="M430 0h-76l-292 700h60l266 -646h8l266 646h59z" />
    <glyph glyph-name="W" unicode="W" horiz-adv-x="1141" 
d="M848 0h-80l-194 631h-7l-193 -631h-80l-231 700h59l207 -638h7l196 638h77l196 -638h7l207 638h59z" />
    <glyph glyph-name="X" unicode="X" horiz-adv-x="697" 
d="M574 700h65l-255 -347l255 -353h-63l-226 315h-4l-226 -315h-63l255 353l-253 347h64l223 -311h4z" />
    <glyph glyph-name="Y" unicode="Y" horiz-adv-x="698" 
d="M377 0h-56v281l-261 419h57l230 -367h4l231 367h58l-263 -419v-281z" />
    <glyph glyph-name="Z" unicode="Z" horiz-adv-x="722" 
d="M557 658h-467v42h539v-38l-466 -620h466v-42h-539v38z" />
    <glyph glyph-name="bracketleft" unicode="[" horiz-adv-x="326" 
d="M82 750h180v-42h-125v-766h125v-42h-180v850z" />
    <glyph glyph-name="backslash" unicode="\" horiz-adv-x="537" 
d="M474 -100h-50l-362 850h50z" />
    <glyph glyph-name="bracketright" unicode="]" horiz-adv-x="326" 
d="M241 -100h-179v42h125v766h-125v42h179v-850z" />
    <glyph glyph-name="asciicircum" unicode="^" horiz-adv-x="521" 
d="M457 525l-27 -32l-170 164l-169 -164l-27 32l196 192z" />
    <glyph glyph-name="underscore" unicode="_" horiz-adv-x="403" 
d="M403 -92h-403v42h403v-42z" />
    <glyph glyph-name="grave" unicode="`" horiz-adv-x="219" 
d="M198 623l-25 -30l-152 142l25 29z" />
    <glyph glyph-name="a" unicode="a" horiz-adv-x="547" 
d="M410 293v37q0 77 -28 105t-106 28q-89 0 -173 -42v41q79 43 191 43q98 0 134 -38t36 -137v-330h-46l-8 49q-68 -54 -167 -54q-93 0 -128.5 28t-35.5 100q0 83 45 115q46 34 170 44zM410 81v170l-116 -11q-97 -9 -131 -33q-35 -24 -35 -82q0 -49 28 -68.5t102 -19.5
q81 0 152 44z" />
    <glyph glyph-name="b" unicode="b" horiz-adv-x="584" 
d="M137 49q-3 -30 -8 -49h-47v750h55v-292q70 41 157 44q42 3 71 -1q80 -11 109 -65q31 -55 31 -186q0 -146 -42 -201q-42 -54 -154 -54q-102 0 -172 54zM137 420v-340q73 -43 155 -43q90 0 125 45q34 46 34 168q0 125 -34 168q-33 45 -125 45q-82 0 -155 -43z" />
    <glyph glyph-name="c" unicode="c" horiz-adv-x="545" 
d="M79 250q0 149 43 201q44 54 162 54q106 0 183 -42v-40q-83 40 -166 40q-97 0 -133 -45q-35 -44 -35 -168q0 -121 35 -168q36 -45 133 -45q87 0 166 40v-39q-76 -43 -183 -43q-118 0 -162 54q-43 55 -43 201z" />
    <glyph glyph-name="d" unicode="d" horiz-adv-x="584" 
d="M501 0h-46q0 5 -3.5 24.5t-4.5 24.5q-70 -54 -172 -54q-113 0 -155 54q-41 56 -41 201q0 128 28 183t102 67q43 5 81 2q87 -3 157 -44v292h54v-750zM447 80v340q-74 43 -155 43q-92 0 -126 -45q-33 -44 -33 -168q0 -122 34 -168q35 -45 125 -45q81 0 155 43z" />
    <glyph glyph-name="e" unicode="e" horiz-adv-x="580" 
d="M503 257v-29h-370q2 -109 40 -150q39 -41 139 -41q94 0 177 40v-40q-79 -42 -193 -42q-124 0 -171 54q-46 55 -46 201q0 148 47 201q46 54 174 54q117 0 160 -52t43 -196zM133 269h320q0 113 -33 153q-32 41 -120 41q-94 0 -130 -41q-35 -40 -37 -153z" />
    <glyph glyph-name="f" unicode="f" horiz-adv-x="431" 
d="M132 458h-73v33l73 9v91q0 94 32 129t118 35q59 0 101 -11v-40q-36 9 -83 9q-66 0 -90 -26q-23 -26 -23 -97v-90h196v-42h-196v-458h-55v458z" />
    <glyph glyph-name="g" unicode="g" horiz-adv-x="579" 
d="M91 98q0 34 16 53t52 27q-44 16 -62 52t-18 103q0 100 42 136q44 36 160 36q38 0 80 -5h154v-34l-65 -7q33 -37 33 -126q0 -98 -43 -134q-44 -36 -159 -36q-82 0 -112 -13t-30 -48q0 -52 134 -61q40 -1 68.5 -4t65 -11.5t59.5 -22t39 -38.5t15 -59q0 -78 -50 -107
t-182 -29q-129 0 -179 29q-48 29 -48 107q0 52 15.5 81t52.5 45q-38 20 -38 66zM130 333q0 -73 32 -102q32 -27 119 -27t119 27q32 29 32 102q0 76 -32 103q-31 27 -119 27q-87 0 -119 -27t-32 -103zM288 -188q103 0 141 20t38 74q0 58 -70 77q-35 8 -67 12q-5 1 -78 8
q-44 5 -69 9q-39 -9 -54.5 -33t-15.5 -73q0 -54 37 -73q38 -21 138 -21z" />
    <glyph glyph-name="h" unicode="h" horiz-adv-x="576" 
d="M493 0h-54v315q0 85 -27 117q-27 31 -103 31q-90 0 -172 -43v-420h-55v750h55v-293q81 48 188 48q97 0 132 -41q36 -41 36 -149v-315z" />
    <glyph glyph-name="i" unicode="i" horiz-adv-x="229" 
d="M82 500h55v-395q0 -32 6 -50q8 -18 28 -46l-45 -17q-29 34 -37 66q-7 29 -7 107v335zM82 700h55v-89h-55v89z" />
    <glyph glyph-name="j" unicode="j" horiz-adv-x="269" 
d="M132 500h55v-566q0 -94 -32 -129t-118 -35q-59 0 -101 11v42q36 -9 83 -9q66 0 89.5 26t23.5 95v565zM132 700h55v-89h-55v89z" />
    <glyph glyph-name="k" unicode="k" horiz-adv-x="537" 
d="M82 750h55v-466h68l188 216h64l-206 -240l224 -260h-63l-207 236h-68v-236h-55v750z" />
    <glyph glyph-name="l" unicode="l" horiz-adv-x="229" 
d="M82 750h55v-645q0 -32 6 -50q8 -18 28 -46l-45 -17q-25 30 -34.5 56t-9.5 68v634z" />
    <glyph glyph-name="m" unicode="m" horiz-adv-x="844" 
d="M761 0h-54v352q0 63 -23 86t-88 23q-76 0 -152 -46q0 1 -1 1l-1 2q7 -32 7 -122v-296h-54v296q0 99 -10 123q-14 36 -71 41q-9 1 -30 1q-71 0 -147 -44v-417h-55v500h47q2 -6 4.5 -24.5t3.5 -24.5q71 54 165 54q62 0 92 -14.5t42 -49.5q79 64 178 64q94 0 117 -33
q21 -27 25 -65q5 -44 5 -111v-296z" />
    <glyph glyph-name="n" unicode="n" 
d="M485 0h-54v315q0 83 -27 115q-25 31 -100 31q-84 0 -167 -44v-417h-55v500h47l8 -49q78 54 184 54q94 0 129 -41t35 -149v-315z" />
    <glyph glyph-name="o" unicode="o" horiz-adv-x="600" 
d="M79 250q0 148 47 201q46 54 174 54t174 -54q47 -53 47 -201q0 -145 -47 -201q-46 -54 -174 -54t-174 54q-47 56 -47 201zM133 250q0 -121 35 -168q36 -45 132 -45t131 45q36 46 36 168q0 124 -36 168q-35 45 -131 45t-132 -45q-35 -44 -35 -168z" />
    <glyph glyph-name="p" unicode="p" horiz-adv-x="583" 
d="M82 500h47q5 -32 8 -49q68 49 162 52q46 2 75 -4q73 -12 102 -68t29 -181q0 -127 -29 -183q-28 -55 -102 -67q-42 -5 -80 -2q-87 3 -157 44v-267h-55v725zM137 420v-340q73 -43 155 -43q92 0 125 44q34 44 34 169q0 123 -34 167q-34 46 -125 46q-82 0 -155 -43z" />
    <glyph glyph-name="q" unicode="q" horiz-adv-x="584" 
d="M447 451q1 6 3.5 24.5t4.5 24.5h46v-725h-54v267q-70 -41 -157 -44q-43 -3 -71 1q-79 10 -110 65q-30 56 -30 186q0 145 41 200q42 55 155 55q102 0 172 -54zM447 80v340q-74 43 -155 43q-91 0 -125 -46q-34 -44 -34 -167q0 -124 33 -169q35 -44 126 -44q81 0 155 43z
" />
    <glyph glyph-name="r" unicode="r" horiz-adv-x="381" 
d="M324 505v-44q-109 0 -187 -88v-373h-55v500h45l10 -73q80 78 187 78z" />
    <glyph glyph-name="s" unicode="s" horiz-adv-x="511" 
d="M129 374q0 -71 107 -94q28 -6 39 -8.5t37 -9.5t38.5 -13.5t31 -18t27.5 -24.5t16 -32t7 -42q0 -77 -39 -107t-143 -30q-102 0 -174 35v41q71 -34 157 -34q83 0 114 20t31 73q0 74 -107 97q-4 1 -13 3q-34 8 -52 13t-47.5 16.5t-44.5 25t-27 36t-12 51.5q0 75 36 104
q38 29 133 29q100 0 166 -33v-40q-66 31 -148 31q-76 0 -104.5 -19.5t-28.5 -69.5z" />
    <glyph glyph-name="t" unicode="t" horiz-adv-x="452" 
d="M132 458h-72v33l72 9l14 100h41v-100h196v-42h-196v-298q0 -71 23 -97q24 -26 90 -26q43 0 83 8v-39q-42 -11 -101 -11q-86 0 -118 35t-32 129v299z" />
    <glyph glyph-name="u" unicode="u" 
d="M82 500h55v-322q0 -80 26 -111q27 -30 100 -30q86 0 168 43v420h54v-500h-46l-8 49q-78 -54 -185 -54q-94 0 -129 39q-35 40 -35 144v322z" />
    <glyph glyph-name="v" unicode="v" horiz-adv-x="611" 
d="M343 0h-75l-216 500h59l190 -452h8l190 452h59z" />
    <glyph glyph-name="w" unicode="w" horiz-adv-x="888" 
d="M663 0h-74l-142 438h-6l-142 -438h-74l-173 500h58l148 -445h7l143 445h71l144 -445h7l148 445h58z" />
    <glyph glyph-name="x" unicode="x" horiz-adv-x="558" 
d="M440 500h62l-189 -247l190 -253h-60l-163 218h-4l-163 -218h-60l189 253l-188 247h62l160 -213h4z" />
    <glyph glyph-name="y" unicode="y" horiz-adv-x="611" 
d="M75 -218v43q30 -10 68 -10q36 0 55.5 11.5t31.5 39.5l61 134h-22l-217 500h58l191 -452h8l191 452h58l-288 -661q-15 -37 -40.5 -52.5t-72.5 -15.5t-82 11z" />
    <glyph glyph-name="z" unicode="z" horiz-adv-x="575" 
d="M422 458h-340v42h411v-27l-339 -431h339v-42h-411v27z" />
    <glyph glyph-name="braceleft" unicode="{" horiz-adv-x="374" 
d="M120 325q47 -20 72 -74.5t25 -125.5q0 -188 84 -188v-42q-83 0 -113 68q-25 58 -25 162q0 147 -89 179v42q89 33 89 179q0 85 15 135q27 95 123 95v-42q-84 0 -84 -188q0 -71 -25 -125.5t-72 -74.5z" />
    <glyph glyph-name="bar" unicode="|" horiz-adv-x="221" 
d="M82 750h55v-850h-55v850z" />
    <glyph glyph-name="braceright" unicode="}" horiz-adv-x="374" 
d="M256 325q-47 20 -72 74.5t-25 125.5q0 188 -84 188v42q83 0 112 -68q26 -57 26 -162q0 -69 23.5 -116t65.5 -63v-42q-42 -16 -65.5 -63t-23.5 -116q0 -85 -15 -135q-27 -95 -123 -95v42q84 0 84 188q0 71 25 125.5t72 74.5z" />
    <glyph glyph-name="asciitilde" unicode="~" 
d="M82 236v55q68 63 121 63q31 0 80 -37q49 -36 82 -36q53 0 120 63v-54q-67 -64 -123 -64q-32 0 -82 35t-81 35q-53 0 -117 -60z" />
    <glyph glyph-name="exclamdown" unicode="&#xa1;" horiz-adv-x="217" 
d="M134 404h-51v96h51v-96zM136 -200h-55l4 493h47z" />
    <glyph glyph-name="cent" unicode="&#xa2;" horiz-adv-x="545" 
d="M270 618h54v-116q79 -5 143 -39v-40q-83 40 -166 40q-97 0 -133 -45q-35 -44 -35 -168q0 -121 35 -168q36 -45 133 -45q87 0 166 40v-39q-64 -36 -143 -40v-116h-54v115q-110 5 -150 59q-41 56 -41 194q0 143 40 195q40 53 151 58v115z" />
    <glyph glyph-name="sterling" unicode="&#xa3;" horiz-adv-x="575" 
d="M502 0h-439v33l73 9v337h-73v33l73 9v120q0 95 39 129q41 35 148 35q74 0 125 -13v-40q-52 11 -109 11q-86 0 -118 -26q-31 -25 -31 -97v-119h258v-42h-258v-337h312v-42z" />
    <glyph glyph-name="currency" unicode="&#xa4;" horiz-adv-x="610" 
d="M160 415l-84 83l29 34l83 -82q37 23 117 23q79 0 117 -23l83 82l29 -34l-84 -83q25 -35 25 -115q0 -79 -26 -116l85 -82l-28 -34l-85 82q-37 -23 -116 -23t-117 23l-84 -82l-28 34l84 82q-25 37 -25 116q0 80 25 115zM181 300q0 -75 26.5 -103t97.5 -28t97.5 28t26.5 103
q0 76 -27 103q-25 28 -97 28q-71 0 -98 -28q-26 -28 -26 -103z" />
    <glyph glyph-name="yen" unicode="&#xa5;" horiz-adv-x="698" 
d="M321 247h-174v34h174l-261 419h57l230 -367h4l231 367h58l-263 -419h173v-34h-173v-104h173v-35h-173v-108h-56v108h-174v35h174v104z" />
    <glyph glyph-name="brokenbar" unicode="&#xa6;" horiz-adv-x="219" 
d="M82 750h55v-382h-55v382zM137 282v-382h-55v382h55z" />
    <glyph glyph-name="section" unicode="&#xa7;" horiz-adv-x="601" 
d="M526 225q0 -64 -23 -98.5t-76 -49.5q99 -42 99 -139q0 -94 -49 -131q-47 -37 -175 -37q-131 0 -218 45v40q90 -43 198 -43q107 0 147 28q41 29 41 101q0 39 -21.5 65.5t-55.5 40t-75.5 23.5t-82.5 22t-75 29t-55.5 51t-21.5 83q0 65 24 98.5t80 46.5q-53 23 -78.5 56
t-25.5 86q0 91 45 127q47 36 166 36q122 0 209 -42v-42q-88 42 -188 42q-99 0 -138 -27q-38 -27 -38 -98q0 -39 21.5 -64.5t55.5 -39t75 -23t82.5 -21.5t75.5 -29.5t55.5 -52t21.5 -83.5zM475 228q0 56 -53 90q-22 16 -76 30q-3 1 -45 11l-44 11q-68 -7 -95.5 -34t-27.5 -85
q-6 -52 54 -92q23 -15 79 -29q4 -1 11 -2.5t17.5 -4t18.5 -4.5l45 -10q63 7 89.5 34.5t26.5 84.5z" />
    <glyph glyph-name="dieresis" unicode="&#xa8;" horiz-adv-x="437" 
d="M76 700h50v-87h-50v87zM311 700h49v-87h-49v87z" />
    <glyph glyph-name="copyright" unicode="&#xa9;" horiz-adv-x="682" 
d="M225 250q0 88 24 119q24 32 90 32q59 0 101 -20v-24q-38 16 -84 16q-54 0 -74.5 -26t-20.5 -97q0 -70 20.5 -96t74.5 -26q42 0 84 16v-24q-42 -20 -101 -20q-65 0 -89.5 32t-24.5 118zM79 249q0 150 55 202q56 54 207 54t206 -54q56 -53 56 -202q0 -145 -56 -201
q-55 -54 -206 -54t-206 54q-56 56 -56 201zM120 250q0 -126 47 -173q46 -46 174 -46t174 46q47 47 47 173t-47 173q-46 46 -174 46q-129 0 -175 -46t-46 -173z" />
    <glyph glyph-name="ordfeminine" unicode="&#xaa;" horiz-adv-x="329" 
d="M243 577v21q0 43 -17.5 59t-63.5 16q-48 0 -101 -22v28q47 24 115 24q61 0 83 -22.5t22 -82.5v-198h-34l-4 30q-41 -33 -99 -33q-54 0 -76 17.5t-22 60.5q0 51 27.5 71t102.5 26zM243 451v96l-67 -6q-55 -5 -74.5 -18t-19.5 -46q0 -28 16 -39t58 -11q45 0 87 24z" />
    <glyph glyph-name="guillemotleft" unicode="&#xab;" horiz-adv-x="510" 
d="M211 425h61l-147 -175l147 -175h-59l-145 175zM392 425h61l-146 -175l146 -175h-59l-145 175z" />
    <glyph glyph-name="logicalnot" unicode="&#xac;" 
d="M431 339h-349v42h403v-142h-54v100z" />
    <glyph glyph-name="uni00AD" unicode="&#xad;" horiz-adv-x="386" 
d="M303 289h-221v42h221v-42z" />
    <glyph glyph-name="registered" unicode="&#xae;" horiz-adv-x="682" 
d="M79 449q0 150 55 202q56 54 207 54t206 -54q56 -53 56 -202q0 -145 -56 -201q-55 -54 -206 -54t-206 54q-56 56 -56 201zM120 450q0 -126 47 -173q46 -46 174 -46t174 46q47 47 47 173t-47 173q-46 46 -174 46q-129 0 -175 -46t-46 -173zM272 309h-35v286h76
q74 0 101.5 -18t27.5 -67q0 -38 -16.5 -56.5t-56.5 -24.5l86 -120h-39l-81 117h-22h-41v-117zM272 568v-115h41q54 0 74.5 12.5t20.5 44.5q0 34 -20 46t-75 12h-41z" />
    <glyph glyph-name="overscore" unicode="&#xaf;" horiz-adv-x="508" 
d="M426 662h-344v38h344v-38z" />
    <glyph glyph-name="degree" unicode="&#xb0;" horiz-adv-x="388" 
d="M77 588q0 69 24 93q25 24 93 24q67 0 91 -24q25 -24 25 -93q0 -67 -24.5 -92t-91.5 -25q-68 0 -92.5 24.5t-24.5 92.5zM130 652q-17 -17 -17 -64t17 -64t64 -17t64 17t17 64t-17 64t-64 17t-64 -17z" />
    <glyph glyph-name="plusminus" unicode="&#xb1;" 
d="M257 378h-175v41h175v179h54v-179h174v-41h-174v-179h-54v179zM485 84h-403v41h403v-41z" />
    <glyph glyph-name="twosuperior" unicode="&#xb2;" horiz-adv-x="252" 
d="M222 400h-189v30q0 34 15.5 56.5t37.5 34.5t44 23t37.5 30t15.5 48q0 31 -16 41q-16 11 -56 11q-41 0 -78 -15v28q33 16 92 16q54 0 74.5 -17.5t20.5 -63.5q0 -36 -15.5 -59t-37.5 -34t-44.5 -21.5t-38 -29t-15.5 -48.5h153v-30z" />
    <glyph glyph-name="threesuperior" unicode="&#xb3;" horiz-adv-x="255" 
d="M87 541l-25 3v25l19 2q54 2 72.5 12t18.5 39q0 30 -14 41t-51 11q-38 0 -74 -11v25q31 15 84 15t72 -16t19 -61q0 -57 -55 -69v-1q35 -7 49.5 -24.5t14.5 -51.5q0 -49 -19.5 -66t-74.5 -17q-58 0 -90 16v25q33 -12 76 -12q42 0 57.5 12t15.5 45t-19.5 44.5t-75.5 13.5z
" />
    <glyph glyph-name="acute" unicode="&#xb4;" horiz-adv-x="219" 
d="M46 593l-25 30l152 141l25 -29z" />
    <glyph glyph-name="mu" unicode="&#xb5;" 
d="M137 -200h-55v700h55v-322q0 -67 15.5 -97.5t54.5 -38.5q22 -6 61 -4q80 1 163 42v420h54v-500h-46q-6 21 -8 49q-75 -43 -168 -48q-97 -5 -126 36v-237z" />
    <glyph glyph-name="paragraph" unicode="&#xb6;" horiz-adv-x="660" 
d="M69 525q0 102 44 138q44 37 168 37h317v-33l-73 -9v-758h-54v758h-136v-758h-54v450q-123 0 -167 37q-45 37 -45 138z" />
    <glyph glyph-name="middot" unicode="&#xb7;" horiz-adv-x="215" 
d="M82 314h51v-96h-51v96z" />
    <glyph glyph-name="cedilla" unicode="&#xb8;" horiz-adv-x="223" 
d="M93 -33v52h45v-41q0 -42 -9.5 -68t-34.5 -57l-36 18q22 27 28.5 45t6.5 51z" />
    <glyph glyph-name="onesuperior" unicode="&#xb9;" horiz-adv-x="195" 
d="M83 664l-65 -22v33l65 25h36v-271h50v-29h-137v29h51v235z" />
    <glyph glyph-name="ordmasculine" unicode="&#xba;" horiz-adv-x="360" 
d="M46 550q0 90 28 121q29 32 106 32q76 0 105 -32t29 -121q0 -86 -29 -120q-29 -33 -105 -33q-78 0 -106 33q-28 32 -28 120zM85 550q0 -71 20 -97t75 -26t75.5 25.5t20.5 97.5q0 71 -20.5 97t-75.5 26q-56 0 -75 -25q-20 -26 -20 -98z" />
    <glyph glyph-name="guillemotright" unicode="&#xbb;" horiz-adv-x="510" 
d="M128 75h-61l147 175l-147 175h59l145 -175zM309 75h-61l147 175l-147 175h60l144 -175z" />
    <glyph glyph-name="onequarter" unicode="&#xbc;" horiz-adv-x="709" 
d="M127 664l-64 -22v33l64 25h36v-271h50v-29h-137v29h51v235zM616 800h38l-505 -950h-39zM612 -100h-36v47h-163v29l138 224h61v-224h31v-29h-31v-47zM573 171l-126 -195h129v195h-3z" />
    <glyph glyph-name="onehalf" unicode="&#xbd;" horiz-adv-x="767" 
d="M127 664l-64 -22v33l64 25h36v-271h50v-29h-137v29h51v235zM616 800h38l-505 -950h-39zM701 -100h-188v30q0 34 15.5 56.5t37.5 34.5t43.5 23t37 30t15.5 48q0 31 -16 41q-16 11 -56 11q-41 0 -77 -15v28q32 16 91 16q54 0 74.5 -17.5t20.5 -63.5q0 -36 -15.5 -59
t-37.5 -34t-44 -21.5t-37.5 -29t-15.5 -48.5h152v-30z" />
    <glyph glyph-name="threequarters" unicode="&#xbe;" horiz-adv-x="708" 
d="M132 541l-26 3v25l19 2q54 2 72.5 12t18.5 39q0 31 -13.5 41.5t-51.5 10.5t-74 -11v25q33 15 84 15q53 0 72 -16t19 -61q0 -56 -55 -69v-1q35 -7 50 -25t15 -51q0 -49 -20 -66t-75 -17q-57 0 -90 16v25q35 -12 77 -12q41 0 56.5 12t15.5 45q0 32 -19.5 44t-74.5 14z
M616 800h38l-505 -950h-39zM612 -100h-36v47h-163v29l138 224h61v-224h31v-29h-31v-47zM573 171l-126 -195h129v195h-3z" />
    <glyph glyph-name="questiondown" unicode="&#xbf;" horiz-adv-x="584" 
d="M335 404h-51v96h51v-96zM284 292h51q0 -56 -15 -95q-9 -25 -23 -43t-25.5 -27t-33.5 -24q-5 -3 -20 -12.5t-20.5 -13.5t-17 -12.5t-16.5 -16t-11 -19t-8.5 -25t-2.5 -29.5q0 -78 38 -108q39 -30 139 -30q103 0 191 47v-42q-88 -47 -210 -47q-120 0 -166 40
q-46 39 -46 140q0 37 11 63.5t28 42.5t38 28.5t42 26.5t38 32t28 49.5t11 74.5z" />
    <glyph glyph-name="Agrave" unicode="&#xc0;" horiz-adv-x="784" 
d="M122 0h-60l292 700h76l291 -700h-59l-86 207h-367zM396 646h-8l-167 -397h342zM480 775l-25 -30l-152 142l25 29z" />
    <glyph glyph-name="Aacute" unicode="&#xc1;" horiz-adv-x="784" 
d="M122 0h-60l292 700h76l291 -700h-59l-86 207h-367zM396 646h-8l-167 -397h342zM328 745l-25 30l152 141l25 -29z" />
    <glyph glyph-name="Acircumflex" unicode="&#xc2;" horiz-adv-x="784" 
d="M122 0h-60l292 700h76l291 -700h-59l-86 207h-367zM396 646h-8l-167 -397h342zM539 775l-25 -30l-122 117l-122 -117l-25 30l147 141z" />
    <glyph glyph-name="Atilde" unicode="&#xc3;" horiz-adv-x="784" 
d="M122 0h-60l292 700h76l291 -700h-59l-86 207h-367zM396 646h-8l-167 -397h342zM220 751v48q56 52 103 52q27 0 71 -29q43 -28 71 -28q44 0 99 52v-48q-58 -52 -101 -52q-29 0 -72 28t-71 28q-46 0 -100 -51z" />
    <glyph glyph-name="Adieresis" unicode="&#xc4;" horiz-adv-x="784" 
d="M122 0h-60l292 700h76l291 -700h-59l-86 207h-367zM396 646h-8l-167 -397h342zM250 839h50v-87h-50v87zM485 839h49v-87h-49v87z" />
    <glyph glyph-name="Aring" unicode="&#xc5;" horiz-adv-x="784" 
d="M122 0h-60l292 700h76l291 -700h-59l-86 207h-367zM396 646h-8l-167 -397h342zM314 766q-20 20 -20 69q0 50 20 68q21 18 77 18q57 0 76 -18q21 -18 21 -68q0 -49 -21 -69q-19 -18 -76 -18q-56 0 -77 18zM391 782q36 0 49.5 11.5t13.5 41.5t-13.5 41.5t-49.5 11.5
q-35 0 -48.5 -11t-13.5 -42t13.5 -42t48.5 -11z" />
    <glyph glyph-name="AE" unicode="&#xc6;" horiz-adv-x="892" 
d="M810 42v-42h-412v207h-189l-87 -207h-60l292 700h456v-42h-358v-276h333v-41h-333v-299h358zM398 646h-10l-167 -397h177v397z" />
    <glyph glyph-name="Ccedilla" unicode="&#xc7;" horiz-adv-x="667" 
d="M334 -33v28q-141 5 -193 81t-52 274q2 108 13.5 173.5t43 107t79 57t127.5 17.5q135 0 233 -58v-39q-101 55 -213 55q-131 0 -179 -66q-48 -65 -48 -247q0 -178 48 -246q49 -67 179 -67q109 0 213 56v-38q-87 -54 -206 -59v-18q0 -42 -9.5 -68t-34.5 -57q-4 3 -18 9.5
t-18 8.5q22 27 28.5 45t6.5 51z" />
    <glyph glyph-name="Egrave" unicode="&#xc8;" horiz-adv-x="642" 
d="M557 42v-42h-465v700h465v-42h-409v-276h384v-41h-384v-299h409zM410 775l-25 -30l-152 142l25 29z" />
    <glyph glyph-name="Eacute" unicode="&#xc9;" horiz-adv-x="642" 
d="M557 42v-42h-465v700h465v-42h-409v-276h384v-41h-384v-299h409zM258 745l-25 30l152 141l25 -29z" />
    <glyph glyph-name="Ecircumflex" unicode="&#xca;" horiz-adv-x="642" 
d="M468 775l-25 -30l-122 117l-122 -117l-25 30l147 141zM557 42v-42h-465v700h465v-42h-409v-276h384v-41h-384v-299h409z" />
    <glyph glyph-name="Edieresis" unicode="&#xcb;" horiz-adv-x="642" 
d="M557 42v-42h-465v700h465v-42h-409v-276h384v-41h-384v-299h409zM179 839h50v-87h-50v87zM414 839h49v-87h-49v87z" />
    <glyph glyph-name="Igrave" unicode="&#xcc;" horiz-adv-x="241" 
d="M209 775l-25 -30l-152 142l25 29zM92 700h56v-700h-56v700z" />
    <glyph glyph-name="Iacute" unicode="&#xcd;" horiz-adv-x="241" 
d="M57 745l-25 30l152 141l25 -29zM92 700h56v-700h-56v700z" />
    <glyph glyph-name="Icircumflex" unicode="&#xce;" horiz-adv-x="241" 
d="M267 775l-25 -30l-122 117l-122 -117l-25 30l147 141zM92 700h56v-700h-56v700z" />
    <glyph glyph-name="Idieresis" unicode="&#xcf;" horiz-adv-x="241" 
d="M-22 839h50v-87h-50v87zM213 839h49v-87h-49v87zM92 700h56v-700h-56v700z" />
    <glyph glyph-name="Eth" unicode="&#xd0;" horiz-adv-x="762" 
d="M140 336h-73v33l73 9v322h225q176 0 240 -73t64 -277q0 -200 -65 -276q-65 -74 -239 -74h-225v336zM613 350q0 178 -53 243t-195 65h-169v-280h185v-42h-185v-294h169q142 0 195 65q53 67 53 243z" />
    <glyph glyph-name="Ntilde" unicode="&#xd1;" horiz-adv-x="731" 
d="M638 700v-700h-55l-435 611v-611h-56v700h56l434 -611v611h56zM193 751v48q56 52 103 52q27 0 71 -29q43 -28 71 -28q44 0 99 52v-48q-58 -52 -101 -52q-29 0 -72 28t-71 28q-46 0 -100 -51z" />
    <glyph glyph-name="Ograve" unicode="&#xd2;" horiz-adv-x="766" 
d="M89 350q2 108 15 173t47 107t87 57.5t141 17.5q167 0 229 -75q62 -74 62 -280q0 -202 -62 -279q-61 -76 -229 -76q-167 0 -228 76q-62 77 -62 279zM145 350q0 -178 50 -246q49 -67 184 -67q136 0 185 67q50 68 50 246q0 182 -50 247q-50 66 -185 66q-136 0 -185 -66
q-49 -64 -49 -247zM471 775l-25 -30l-152 142l25 29z" />
    <glyph glyph-name="Oacute" unicode="&#xd3;" horiz-adv-x="766" 
d="M89 350q2 108 15 173t47 107t87 57.5t141 17.5q167 0 229 -75q62 -74 62 -280q0 -202 -62 -279q-61 -76 -229 -76q-167 0 -228 76q-62 77 -62 279zM145 350q0 -178 50 -246q49 -67 184 -67q136 0 185 67q50 68 50 246q0 182 -50 247q-50 66 -185 66q-136 0 -185 -66
q-49 -64 -49 -247zM319 745l-25 30l152 141l25 -29z" />
    <glyph glyph-name="Ocircumflex" unicode="&#xd4;" horiz-adv-x="766" 
d="M530 775l-25 -30l-122 117l-122 -117l-25 30l147 141zM89 350q2 108 15 173t47 107t87 57.5t141 17.5q167 0 229 -75q62 -74 62 -280q0 -202 -62 -279q-61 -76 -229 -76q-167 0 -228 76q-62 77 -62 279zM145 350q0 -178 50 -246q49 -67 184 -67q136 0 185 67
q50 68 50 246q0 182 -50 247q-50 66 -185 66q-136 0 -185 -66q-49 -64 -49 -247z" />
    <glyph glyph-name="Otilde" unicode="&#xd5;" horiz-adv-x="766" 
d="M89 350q2 108 15 173t47 107t87 57.5t141 17.5q167 0 229 -75q62 -74 62 -280q0 -202 -62 -279q-61 -76 -229 -76q-167 0 -228 76q-62 77 -62 279zM145 350q0 -178 50 -246q49 -67 184 -67q136 0 185 67q50 68 50 246q0 182 -50 247q-50 66 -185 66q-136 0 -185 -66
q-49 -64 -49 -247zM211 751v48q56 52 103 52q27 0 71 -29q43 -28 71 -28q44 0 99 52v-48q-58 -52 -101 -52q-29 0 -72 28t-71 28q-46 0 -100 -51z" />
    <glyph glyph-name="Odieresis" unicode="&#xd6;" horiz-adv-x="766" 
d="M89 350q2 108 15 173t47 107t87 57.5t141 17.5q167 0 229 -75q62 -74 62 -280q0 -202 -62 -279q-61 -76 -229 -76q-167 0 -228 76q-62 77 -62 279zM145 350q0 -178 50 -246q49 -67 184 -67q136 0 185 67q50 68 50 246q0 182 -50 247q-50 66 -185 66q-136 0 -185 -66
q-49 -64 -49 -247zM241 839h50v-87h-50v87zM476 839h49v-87h-49v87z" />
    <glyph glyph-name="multiply" unicode="&#xd7;" horiz-adv-x="514" 
d="M257 273l-153 -151l-28 35l153 150l-153 151l29 34l152 -151l152 151l28 -34l-152 -151l152 -150l-28 -35z" />
    <glyph glyph-name="Oslash" unicode="&#xd8;" horiz-adv-x="766" 
d="M569 750h46l-45 -85q54 -35 77 -109t23 -206q0 -202 -62 -279q-61 -76 -229 -76q-99 0 -153 22l-36 -67h-46l45 86q-54 35 -77 109t-23 205q2 108 15 173t47 107t87 57.5t141 17.5q97 0 154 -22zM143 350q0 -108 16.5 -171.5t54.5 -96.5l297 559q-48 22 -132 22
q-137 0 -186 -66q-50 -67 -50 -247zM616 350q0 109 -16.5 172.5t-54.5 96.5l-297 -560q45 -22 131 -22q137 0 186 67q51 68 51 246z" />
    <glyph glyph-name="Ugrave" unicode="&#xd9;" horiz-adv-x="734" 
d="M586 275v425h56v-425q0 -161 -58 -220q-57 -60 -213 -60q-155 0 -213 60q-57 60 -57 220v425h56v-425q0 -137 45 -188q47 -50 169 -50q124 0 169 50q46 50 46 188zM456 775l-25 -30l-152 142l25 29z" />
    <glyph glyph-name="Uacute" unicode="&#xda;" horiz-adv-x="734" 
d="M586 275v425h56v-425q0 -161 -58 -220q-57 -60 -213 -60q-155 0 -213 60q-57 60 -57 220v425h56v-425q0 -137 45 -188q47 -50 169 -50q124 0 169 50q46 50 46 188zM304 745l-25 30l152 141l25 -29z" />
    <glyph glyph-name="Ucircumflex" unicode="&#xdb;" horiz-adv-x="734" 
d="M514 775l-25 -30l-122 117l-122 -117l-25 30l147 141zM586 275v425h56v-425q0 -161 -58 -220q-57 -60 -213 -60q-155 0 -213 60q-57 60 -57 220v425h56v-425q0 -137 45 -188q47 -50 169 -50q124 0 169 50q46 50 46 188z" />
    <glyph glyph-name="Udieresis" unicode="&#xdc;" horiz-adv-x="734" 
d="M586 275v425h56v-425q0 -161 -58 -220q-57 -60 -213 -60q-155 0 -213 60q-57 60 -57 220v425h56v-425q0 -137 45 -188q47 -50 169 -50q124 0 169 50q46 50 46 188zM225 839h50v-87h-50v87zM460 839h49v-87h-49v87z" />
    <glyph glyph-name="Yacute" unicode="&#xdd;" horiz-adv-x="698" 
d="M377 0h-56v281l-261 419h57l230 -367h4l231 367h58l-263 -419v-281zM285 745l-25 30l152 141l25 -29z" />
    <glyph glyph-name="Thorn" unicode="&#xde;" horiz-adv-x="660" 
d="M148 0h-56v700h56v-145h115q175 0 239 -43q65 -42 65 -162q0 -117 -65 -161t-239 -44h-115v-145zM510 350q0 95 -52 129q-53 35 -195 35h-115v-328h115q141 0 194 35q53 36 53 129z" />
    <glyph glyph-name="germandbls" unicode="&#xdf;" horiz-adv-x="682" 
d="M445 591q0 -33 -14.5 -58t-35 -41t-41 -31t-35 -36.5t-14.5 -50.5q0 -34 22.5 -55.5t56 -30.5t73 -20t73 -22.5t56 -40.5t22.5 -73q0 -77 -39 -107t-143 -30q-102 0 -174 35v41q71 -34 157 -34q83 0 114 20t31 73q0 33 -22 54.5t-48.5 30.5t-71.5 20q-7 1 -10 2
q-34 8 -56 16t-46.5 23t-36.5 39t-12 57q0 43 22 74.5t48 47.5t48 40.5t22 55.5q0 72 -27 97q-26 26 -100 26q-73 0 -101 -26q-26 -26 -26 -97v-590h-55v591q0 94 38 129q40 35 144 35q105 0 143 -35t38 -129z" />
    <glyph glyph-name="agrave" unicode="&#xe0;" horiz-adv-x="547" 
d="M410 293v37q0 77 -28 105t-106 28q-89 0 -173 -42v41q79 43 191 43q98 0 134 -38t36 -137v-330h-46l-8 49q-68 -54 -167 -54q-93 0 -128.5 28t-35.5 100q0 83 45 115q46 34 170 44zM410 81v170l-116 -11q-97 -9 -131 -33q-35 -24 -35 -82q0 -49 28 -68.5t102 -19.5
q81 0 152 44zM361 623l-25 -30l-152 142l25 29z" />
    <glyph glyph-name="aacute" unicode="&#xe1;" horiz-adv-x="547" 
d="M410 293v37q0 77 -28 105t-106 28q-89 0 -173 -42v41q79 43 191 43q98 0 134 -38t36 -137v-330h-46l-8 49q-68 -54 -167 -54q-93 0 -128.5 28t-35.5 100q0 83 45 115q46 34 170 44zM410 81v170l-116 -11q-97 -9 -131 -33q-35 -24 -35 -82q0 -49 28 -68.5t102 -19.5
q81 0 152 44zM209 593l-25 30l152 141l25 -29z" />
    <glyph glyph-name="acircumflex" unicode="&#xe2;" horiz-adv-x="547" 
d="M410 293v37q0 77 -28 105t-106 28q-89 0 -173 -42v41q79 43 191 43q98 0 134 -38t36 -137v-330h-46l-8 49q-68 -54 -167 -54q-93 0 -128.5 28t-35.5 100q0 83 45 115q46 34 170 44zM410 81v170l-116 -11q-97 -9 -131 -33q-35 -24 -35 -82q0 -49 28 -68.5t102 -19.5
q81 0 152 44zM420 623l-25 -30l-122 117l-122 -117l-25 30l147 141z" />
    <glyph glyph-name="atilde" unicode="&#xe3;" horiz-adv-x="547" 
d="M410 293v37q0 77 -28 105t-106 28q-89 0 -173 -42v41q79 43 191 43q98 0 134 -38t36 -137v-330h-46l-8 49q-68 -54 -167 -54q-93 0 -128.5 28t-35.5 100q0 83 45 115q46 34 170 44zM410 81v170l-116 -11q-97 -9 -131 -33q-35 -24 -35 -82q0 -49 28 -68.5t102 -19.5
q81 0 152 44zM101 633v48q56 52 103 52q26 0 70 -29q43 -28 72 -28q44 0 99 52v-48q-58 -52 -101 -52q-29 0 -72 28t-71 28q-46 0 -100 -51z" />
    <glyph glyph-name="adieresis" unicode="&#xe4;" horiz-adv-x="547" 
d="M410 293v37q0 77 -28 105t-106 28q-89 0 -173 -42v41q79 43 191 43q98 0 134 -38t36 -137v-330h-46l-8 49q-68 -54 -167 -54q-93 0 -128.5 28t-35.5 100q0 83 45 115q46 34 170 44zM410 81v170l-116 -11q-97 -9 -131 -33q-35 -24 -35 -82q0 -49 28 -68.5t102 -19.5
q81 0 152 44zM131 700h50v-87h-50v87zM366 700h49v-87h-49v87z" />
    <glyph glyph-name="aring" unicode="&#xe5;" horiz-adv-x="547" 
d="M410 293v37q0 77 -28 105t-106 28q-89 0 -173 -42v41q79 43 191 43q98 0 134 -38t36 -137v-330h-46l-8 49q-68 -54 -167 -54q-93 0 -128.5 28t-35.5 100q0 83 45 115q46 34 170 44zM410 81v170l-116 -11q-97 -9 -131 -33q-35 -24 -35 -82q0 -49 28 -68.5t102 -19.5
q81 0 152 44zM196 605q-20 20 -20 69q0 50 20 68q21 18 77 18q57 0 76 -18q21 -18 21 -68t-21 -69q-19 -18 -76 -18q-56 0 -77 18zM273 621q36 0 49.5 11.5t13.5 41.5t-13.5 41.5t-49.5 11.5q-35 0 -48.5 -11t-13.5 -42t13.5 -42t48.5 -11z" />
    <glyph glyph-name="ae" unicode="&#xe6;" horiz-adv-x="911" 
d="M834 257v-29h-370q2 -109 40 -150q39 -41 139 -41q94 0 177 40v-40q-80 -42 -193 -42q-130 0 -175 60q-58 -60 -195 -60q-101 0 -139 28q-39 28 -39 100q0 83 46 114q42 29 187 46l99 10v37q0 76 -29 105q-28 28 -106 28q-88 0 -173 -42v41q76 43 188 43
q72 0 106.5 -20.5t46.5 -70.5q20 50 64 70.5t127 20.5q115 0 157 -52t42 -196zM464 269h321q-1 113 -33 154q-31 40 -121 40q-94 0 -130 -41q-35 -40 -37 -153zM270 37q100 0 168 45q-28 47 -28 169q-166 -16 -209 -28q-56 -15 -68 -56q-5 -18 -5 -42q0 -49 31 -68.5
t111 -19.5z" />
    <glyph glyph-name="ccedilla" unicode="&#xe7;" horiz-adv-x="545" 
d="M271 -33v28q-111 3 -151 58q-41 56 -41 197q0 149 43 201q44 54 162 54q106 0 183 -42v-40q-83 40 -166 40q-97 0 -133 -45q-35 -44 -35 -168q0 -121 35 -168q36 -45 133 -45q87 0 166 40v-39q-61 -36 -151 -42v-18q0 -42 -9.5 -68t-34.5 -57l-36 18q22 27 28.5 45
t6.5 51z" />
    <glyph glyph-name="egrave" unicode="&#xe8;" horiz-adv-x="580" 
d="M503 257v-29h-370q2 -109 40 -150q39 -41 139 -41q94 0 177 40v-40q-79 -42 -193 -42q-124 0 -171 54q-46 55 -46 201q0 148 47 201q46 54 174 54q117 0 160 -52t43 -196zM133 269h320q0 113 -33 153q-32 41 -120 41q-94 0 -130 -41q-35 -40 -37 -153zM381 623l-25 -30
l-152 142l25 29z" />
    <glyph glyph-name="eacute" unicode="&#xe9;" horiz-adv-x="580" 
d="M503 257v-29h-370q2 -109 40 -150q39 -41 139 -41q94 0 177 40v-40q-79 -42 -193 -42q-124 0 -171 54q-46 55 -46 201q0 148 47 201q46 54 174 54q117 0 160 -52t43 -196zM133 269h320q0 113 -33 153q-32 41 -120 41q-94 0 -130 -41q-35 -40 -37 -153zM229 593l-25 30
l152 141l25 -29z" />
    <glyph glyph-name="ecircumflex" unicode="&#xea;" horiz-adv-x="580" 
d="M503 257v-29h-370q2 -109 40 -150q39 -41 139 -41q94 0 177 40v-40q-79 -42 -193 -42q-124 0 -171 54q-46 55 -46 201q0 148 47 201q46 54 174 54q117 0 160 -52t43 -196zM133 269h320q0 113 -33 153q-32 41 -120 41q-94 0 -130 -41q-35 -40 -37 -153zM440 623l-25 -30
l-122 117l-122 -117l-25 30l147 141z" />
    <glyph glyph-name="edieresis" unicode="&#xeb;" horiz-adv-x="580" 
d="M503 257v-29h-370q2 -109 40 -150q39 -41 139 -41q94 0 177 40v-40q-79 -42 -193 -42q-124 0 -171 54q-46 55 -46 201q0 148 47 201q46 54 174 54q117 0 160 -52t43 -196zM133 269h320q0 113 -33 153q-32 41 -120 41q-94 0 -130 -41q-35 -40 -37 -153zM150 700h50v-87
h-50v87zM385 700h49v-87h-49v87z" />
    <glyph glyph-name="igrave" unicode="&#xec;" horiz-adv-x="229" 
d="M203 623l-25 -30l-152 142l25 29zM82 500h55v-395q0 -32 6 -50q8 -18 28 -46l-45 -17q-29 34 -37 66q-7 29 -7 107v335z" />
    <glyph glyph-name="iacute" unicode="&#xed;" horiz-adv-x="229" 
d="M51 593l-25 30l152 141l25 -29zM82 500h55v-395q0 -32 6 -50q8 -18 28 -46l-45 -17q-29 34 -37 66q-7 29 -7 107v335z" />
    <glyph glyph-name="icircumflex" unicode="&#xee;" horiz-adv-x="229" 
d="M262 623l-25 -30l-122 117l-122 -117l-25 30l147 141zM82 500h55v-395q0 -32 6 -50q8 -18 28 -46l-45 -17q-29 34 -37 66q-7 29 -7 107v335z" />
    <glyph glyph-name="idieresis" unicode="&#xef;" horiz-adv-x="229" 
d="M-28 700h50v-87h-50v87zM207 700h49v-87h-49v87zM82 500h55v-395q0 -32 6 -50q8 -18 28 -46l-45 -17q-29 34 -37 66q-7 29 -7 107v335z" />
    <glyph glyph-name="eth" unicode="&#xf0;" horiz-adv-x="602" 
d="M301 607l-33 15l30 78q-54 17 -187 22v39q128 -1 202 -22l31 77l33 -15l-29 -75q86 -33 128.5 -120.5t42.5 -256.5q0 -202 -47 -279q-46 -75 -173 -75t-174 54q-46 55 -46 201q0 149 43 201q44 54 162 54q110 0 178 -50q-13 173 -131 229zM300 463q-98 0 -132 -45
q-35 -44 -35 -168q0 -122 35 -168q34 -45 131 -45q95 0 130 66q36 67 36 246q0 39 -2 65q-68 49 -163 49z" />
    <glyph glyph-name="ntilde" unicode="&#xf1;" 
d="M485 0h-54v315q0 83 -27 115q-25 31 -100 31q-84 0 -167 -44v-417h-55v500h47l8 -49q78 54 184 54q94 0 129 -41t35 -149v-315zM112 633v48q56 52 103 52q27 0 71 -29q43 -28 71 -28q44 0 99 52v-48q-58 -52 -101 -52q-29 0 -72 28t-71 28q-46 0 -100 -51z" />
    <glyph glyph-name="ograve" unicode="&#xf2;" horiz-adv-x="600" 
d="M79 250q0 148 47 201q46 54 174 54t174 -54q47 -53 47 -201q0 -145 -47 -201q-46 -54 -174 -54t-174 54q-47 56 -47 201zM133 250q0 -121 35 -168q36 -45 132 -45t131 45q36 46 36 168q0 124 -36 168q-35 45 -131 45t-132 -45q-35 -44 -35 -168zM388 623l-25 -30
l-152 142l25 29z" />
    <glyph glyph-name="oacute" unicode="&#xf3;" horiz-adv-x="600" 
d="M79 250q0 148 47 201q46 54 174 54t174 -54q47 -53 47 -201q0 -145 -47 -201q-46 -54 -174 -54t-174 54q-47 56 -47 201zM133 250q0 -121 35 -168q36 -45 132 -45t131 45q36 46 36 168q0 124 -36 168q-35 45 -131 45t-132 -45q-35 -44 -35 -168zM236 593l-25 30l152 141
l25 -29z" />
    <glyph glyph-name="ocircumflex" unicode="&#xf4;" horiz-adv-x="600" 
d="M447 623l-25 -30l-122 117l-122 -117l-25 30l147 141zM79 250q0 148 47 201q46 54 174 54t174 -54q47 -53 47 -201q0 -145 -47 -201q-46 -54 -174 -54t-174 54q-47 56 -47 201zM133 250q0 -121 35 -168q36 -45 132 -45t131 45q36 46 36 168q0 124 -36 168q-35 45 -131 45
t-132 -45q-35 -44 -35 -168z" />
    <glyph glyph-name="otilde" unicode="&#xf5;" horiz-adv-x="600" 
d="M79 250q0 148 47 201q46 54 174 54t174 -54q47 -53 47 -201q0 -145 -47 -201q-46 -54 -174 -54t-174 54q-47 56 -47 201zM133 250q0 -121 35 -168q36 -45 132 -45t131 45q36 46 36 168q0 124 -36 168q-35 45 -131 45t-132 -45q-35 -44 -35 -168zM128 633v48q56 52 103 52
q27 0 71 -29q43 -28 71 -28q44 0 99 52v-48q-58 -52 -101 -52q-29 0 -72 28t-71 28q-46 0 -100 -51z" />
    <glyph glyph-name="odieresis" unicode="&#xf6;" horiz-adv-x="600" 
d="M79 250q0 148 47 201q46 54 174 54t174 -54q47 -53 47 -201q0 -145 -47 -201q-46 -54 -174 -54t-174 54q-47 56 -47 201zM133 250q0 -121 35 -168q36 -45 132 -45t131 45q36 46 36 168q0 124 -36 168q-35 45 -131 45t-132 -45q-35 -44 -35 -168zM158 700h50v-87h-50v87z
M393 700h49v-87h-49v87z" />
    <glyph glyph-name="divide" unicode="&#xf7;" 
d="M485 268h-403v41h403v-41zM259 180h50v-96h-50v96zM259 494h50v-97h-50v97z" />
    <glyph glyph-name="oslash" unicode="&#xf8;" horiz-adv-x="600" 
d="M443 550h33l-38 -71q45 -24 64 -77.5t19 -151.5q0 -145 -47 -201q-46 -54 -174 -54q-64 0 -112 14l-31 -59h-33l38 71q-45 24 -64 78t-19 151q0 148 47 201q46 54 174 54q68 0 112 -14zM131 250q0 -146 53 -187l207 389q-36 14 -91 14q-97 0 -133 -46q-36 -45 -36 -170z
M469 250q0 145 -53 187l-207 -389q33 -14 91 -14q97 0 133 46t36 170z" />
    <glyph glyph-name="ugrave" unicode="&#xf9;" 
d="M82 500h55v-322q0 -80 26 -111q27 -30 100 -30q86 0 168 43v420h54v-500h-46l-8 49q-78 -54 -185 -54q-94 0 -129 39q-35 40 -35 144v322zM372 623l-25 -30l-152 142l25 29z" />
    <glyph glyph-name="uacute" unicode="&#xfa;" 
d="M82 500h55v-322q0 -80 26 -111q27 -30 100 -30q86 0 168 43v420h54v-500h-46l-8 49q-78 -54 -185 -54q-94 0 -129 39q-35 40 -35 144v322zM220 593l-25 30l152 141l25 -29z" />
    <glyph glyph-name="ucircumflex" unicode="&#xfb;" 
d="M431 623l-25 -30l-122 117l-122 -117l-25 30l147 141zM82 500h55v-322q0 -80 26 -111q27 -30 100 -30q86 0 168 43v420h54v-500h-46l-8 49q-78 -54 -185 -54q-94 0 -129 39q-35 40 -35 144v322z" />
    <glyph glyph-name="udieresis" unicode="&#xfc;" 
d="M82 500h55v-322q0 -80 26 -111q27 -30 100 -30q86 0 168 43v420h54v-500h-46l-8 49q-78 -54 -185 -54q-94 0 -129 39q-35 40 -35 144v322zM141 700h50v-87h-50v87zM376 700h49v-87h-49v87z" />
    <glyph glyph-name="yacute" unicode="&#xfd;" horiz-adv-x="611" 
d="M75 -218v43q30 -10 68 -10q36 0 55.5 11.5t31.5 39.5l61 134h-22l-217 500h58l191 -452h8l191 452h58l-288 -661q-15 -37 -40.5 -52.5t-72.5 -15.5t-82 11zM241 593l-25 30l152 141l25 -29z" />
    <glyph glyph-name="thorn" unicode="&#xfe;" horiz-adv-x="583" 
d="M137 -225h-55v975h55v-299q70 54 172 54q112 0 154 -55q42 -54 42 -200q0 -148 -42 -202q-41 -53 -154 -53q-98 0 -172 47v-267zM137 420v-340q73 -43 155 -43q92 0 125 44q34 44 34 169q0 123 -34 167q-34 46 -125 46q-82 0 -155 -43z" />
    <glyph glyph-name="ydieresis" unicode="&#xff;" horiz-adv-x="611" 
d="M75 -218v43q30 -10 68 -10q36 0 55.5 11.5t31.5 39.5l61 134h-22l-217 500h58l191 -452h8l191 452h58l-288 -661q-15 -37 -40.5 -52.5t-72.5 -15.5t-82 11zM163 700h50v-87h-50v87zM398 700h49v-87h-49v87z" />
    <glyph glyph-name="Amacron" unicode="&#x100;" horiz-adv-x="784" 
d="M122 0h-60l292 700h76l291 -700h-59l-86 207h-367zM396 646h-8l-167 -397h342zM564 750h-344v38h344v-38z" />
    <glyph glyph-name="amacron" unicode="&#x101;" horiz-adv-x="547" 
d="M410 293v37q0 77 -28 105t-106 28q-89 0 -173 -42v41q79 43 191 43q98 0 134 -38t36 -137v-330h-46l-8 49q-68 -54 -167 -54q-93 0 -128.5 28t-35.5 100q0 83 45 115q46 34 170 44zM410 81v170l-116 -11q-97 -9 -131 -33q-35 -24 -35 -82q0 -49 28 -68.5t102 -19.5
q81 0 152 44zM445 662h-344v38h344v-38z" />
    <glyph glyph-name="Abreve" unicode="&#x102;" horiz-adv-x="784" 
d="M122 0h-60l292 700h76l291 -700h-59l-86 207h-367zM396 646h-8l-167 -397h342zM508 839h48q-14 -50 -51.5 -70.5t-112.5 -20.5q-76 0 -113.5 20.5t-51.5 70.5h49q23 -53 116 -53q92 0 116 53z" />
    <glyph glyph-name="abreve" unicode="&#x103;" horiz-adv-x="547" 
d="M410 293v37q0 77 -28 105t-106 28q-89 0 -173 -42v41q79 43 191 43q98 0 134 -38t36 -137v-330h-46l-8 49q-68 -54 -167 -54q-93 0 -128.5 28t-35.5 100q0 83 45 115q46 34 170 44zM410 81v170l-116 -11q-97 -9 -131 -33q-35 -24 -35 -82q0 -49 28 -68.5t102 -19.5
q81 0 152 44zM390 717h48q-14 -50 -51.5 -70.5t-112.5 -20.5q-76 0 -113.5 20.5t-51.5 70.5h49q23 -53 116 -53q92 0 116 53z" />
    <glyph glyph-name="Aogonek" unicode="&#x104;" horiz-adv-x="784" 
d="M649 -40l12 40h1l-86 207h-367l-87 -207h-60l292 700h76l291 -700h-28l-1 -4q-2 -4 -4 -10t-3.5 -13t-3 -15t-1.5 -14q1 -40 43 -40q31 0 61 11v-40q-32 -12 -72 -12q-65 0 -69 55q-1 18 6 42zM396 646h-8l-167 -397h342z" />
    <glyph glyph-name="aogonek" unicode="&#x105;" horiz-adv-x="547" 
d="M406 -40l12 40l-8 49q-68 -54 -167 -54q-93 0 -128.5 28t-35.5 100q0 83 45 115q46 34 170 44l116 11v37q0 77 -28 105t-106 28q-89 0 -173 -42v41q79 43 191 43q98 0 134 -38t36 -137v-330h-14l-2 -4l-2.5 -10t-3.5 -13t-3.5 -15t-1.5 -14q1 -40 43 -40q31 0 61 11v-40
q-31 -12 -72 -12q-65 0 -69 55q-2 18 6 42zM410 81v170l-116 -11q-97 -9 -131 -33q-35 -24 -35 -82q0 -49 28 -68.5t102 -19.5q81 0 152 44z" />
    <glyph glyph-name="Cacute" unicode="&#x106;" horiz-adv-x="667" 
d="M89 350q2 108 13.5 173.5t43 107t79 57t127.5 17.5q135 0 233 -58v-39q-101 55 -213 55q-131 0 -179 -66q-48 -65 -48 -247q0 -178 48 -246q49 -67 179 -67q109 0 213 56v-38q-97 -60 -233 -60q-152 0 -207 76q-56 77 -56 279zM282 745l-25 30l152 141l25 -29z" />
    <glyph glyph-name="cacute" unicode="&#x107;" horiz-adv-x="545" 
d="M79 250q0 149 43 201q44 54 162 54q106 0 183 -42v-40q-83 40 -166 40q-97 0 -133 -45q-35 -44 -35 -168q0 -121 35 -168q36 -45 133 -45q87 0 166 40v-39q-76 -43 -183 -43q-118 0 -162 54q-43 55 -43 201zM213 593l-25 30l152 141l25 -29z" />
    <glyph glyph-name="Ccircumflex" unicode="&#x108;" horiz-adv-x="667" 
d="M492 775l-25 -30l-122 117l-122 -117l-25 30l147 141zM89 350q2 108 13.5 173.5t43 107t79 57t127.5 17.5q135 0 233 -58v-39q-101 55 -213 55q-131 0 -179 -66q-48 -65 -48 -247q0 -178 48 -246q49 -67 179 -67q109 0 213 56v-38q-97 -60 -233 -60q-152 0 -207 76
q-56 77 -56 279z" />
    <glyph glyph-name="ccircumflex" unicode="&#x109;" horiz-adv-x="545" 
d="M423 623l-25 -30l-122 117l-122 -117l-25 30l147 141zM79 250q0 149 43 201q44 54 162 54q106 0 183 -42v-40q-83 40 -166 40q-97 0 -133 -45q-35 -44 -35 -168q0 -121 35 -168q36 -45 133 -45q87 0 166 40v-39q-76 -43 -183 -43q-118 0 -162 54q-43 55 -43 201z" />
    <glyph glyph-name="Cdotaccent" unicode="&#x10a;" horiz-adv-x="667" 
d="M89 350q2 108 13.5 173.5t43 107t79 57t127.5 17.5q135 0 233 -58v-39q-101 55 -213 55q-131 0 -179 -66q-48 -65 -48 -247q0 -178 48 -246q49 -67 179 -67q109 0 213 56v-38q-97 -60 -233 -60q-152 0 -207 76q-56 77 -56 279zM318 839h55v-89h-55v89z" />
    <glyph glyph-name="cdotaccent" unicode="&#x10b;" horiz-adv-x="545" 
d="M79 250q0 149 43 201q44 54 162 54q106 0 183 -42v-40q-83 40 -166 40q-97 0 -133 -45q-35 -44 -35 -168q0 -121 35 -168q36 -45 133 -45q87 0 166 40v-39q-76 -43 -183 -43q-118 0 -162 54q-43 55 -43 201zM249 700h55v-89h-55v89z" />
    <glyph glyph-name="Ccaron" unicode="&#x10c;" horiz-adv-x="667" 
d="M198 887l25 29l122 -116l122 116l25 -29l-147 -142zM89 350q2 108 13.5 173.5t43 107t79 57t127.5 17.5q135 0 233 -58v-39q-101 55 -213 55q-131 0 -179 -66q-48 -65 -48 -247q0 -178 48 -246q49 -67 179 -67q109 0 213 56v-38q-97 -60 -233 -60q-152 0 -207 76
q-56 77 -56 279z" />
    <glyph glyph-name="ccaron" unicode="&#x10d;" horiz-adv-x="545" 
d="M129 735l25 29l122 -116l122 116l25 -29l-147 -142zM79 250q0 149 43 201q44 54 162 54q106 0 183 -42v-40q-83 40 -166 40q-97 0 -133 -45q-35 -44 -35 -168q0 -121 35 -168q36 -45 133 -45q87 0 166 40v-39q-76 -43 -183 -43q-118 0 -162 54q-43 55 -43 201z" />
    <glyph glyph-name="Dcaron" unicode="&#x10e;" horiz-adv-x="715" 
d="M210 887l25 29l122 -116l122 116l25 -29l-147 -142zM318 0h-226v700h226q176 0 240 -73t64 -277q0 -200 -65 -276q-65 -74 -239 -74zM566 350q0 178 -53 243t-195 65h-170v-616h170q142 0 195 65q53 67 53 243z" />
    <glyph glyph-name="dcaron" unicode="&#x10f;" horiz-adv-x="709" 
d="M631 645v105h41v-64q0 -63 -8 -93q-7 -28 -36 -61q-12 6 -32 17q22 27 28.5 45t6.5 51zM501 0h-46q0 5 -3.5 24.5t-4.5 24.5q-70 -54 -172 -54q-113 0 -155 54q-41 56 -41 201q0 128 28 183t102 67q43 5 81 2q87 -3 157 -44v292h54v-750zM447 80v340q-74 43 -155 43
q-92 0 -126 -45q-33 -44 -33 -168q0 -122 34 -168q35 -45 125 -45q81 0 155 43z" />
    <glyph glyph-name="Dcroat" unicode="&#x110;" horiz-adv-x="762" 
d="M140 336h-73v33l73 9v322h225q176 0 240 -73t64 -277q0 -200 -65 -276q-65 -74 -239 -74h-225v336zM613 350q0 178 -53 243t-195 65h-169v-280h185v-42h-185v-294h169q142 0 195 65q53 67 53 243z" />
    <glyph glyph-name="dslash" unicode="&#x111;" horiz-adv-x="634" 
d="M447 609h-201v42h201v99h54v-99h75v-33l-75 -9v-609h-46q0 5 -3.5 24.5t-4.5 24.5q-70 -54 -172 -54q-113 0 -155 54q-41 56 -41 201q0 128 28 183t102 67q43 5 81 2q87 -3 157 -44v151zM447 80v340q-74 43 -155 43q-92 0 -126 -45q-33 -44 -33 -168q0 -122 34 -168
q35 -45 125 -45q81 0 155 43z" />
    <glyph glyph-name="Emacron" unicode="&#x112;" horiz-adv-x="642" 
d="M557 42v-42h-465v700h465v-42h-409v-276h384v-41h-384v-299h409zM493 750h-344v38h344v-38z" />
    <glyph glyph-name="emacron" unicode="&#x113;" horiz-adv-x="580" 
d="M503 257v-29h-370q2 -109 40 -150q39 -41 139 -41q94 0 177 40v-40q-79 -42 -193 -42q-124 0 -171 54q-46 55 -46 201q0 148 47 201q46 54 174 54q117 0 160 -52t43 -196zM133 269h320q0 113 -33 153q-32 41 -120 41q-94 0 -130 -41q-35 -40 -37 -153zM464 662h-344v38
h344v-38z" />
    <glyph glyph-name="Ebreve" unicode="&#x114;" horiz-adv-x="642" 
d="M557 42v-42h-465v700h465v-42h-409v-276h384v-41h-384v-299h409zM437 839h48q-14 -50 -51.5 -70.5t-112.5 -20.5q-76 0 -113.5 20.5t-51.5 70.5h49q23 -53 116 -53q92 0 116 53z" />
    <glyph glyph-name="ebreve" unicode="&#x115;" horiz-adv-x="580" 
d="M503 257v-29h-370q2 -109 40 -150q39 -41 139 -41q94 0 177 40v-40q-79 -42 -193 -42q-124 0 -171 54q-46 55 -46 201q0 148 47 201q46 54 174 54q117 0 160 -52t43 -196zM133 269h320q0 113 -33 153q-32 41 -120 41q-94 0 -130 -41q-35 -40 -37 -153zM409 717h48
q-14 -50 -51.5 -70.5t-112.5 -20.5q-76 0 -113.5 20.5t-51.5 70.5h49q23 -53 116 -53q92 0 116 53z" />
    <glyph glyph-name="Edotaccent" unicode="&#x116;" horiz-adv-x="642" 
d="M557 42v-42h-465v700h465v-42h-409v-276h384v-41h-384v-299h409zM294 839h55v-89h-55v89z" />
    <glyph glyph-name="edotaccent" unicode="&#x117;" horiz-adv-x="580" 
d="M503 257v-29h-370q2 -109 40 -150q39 -41 139 -41q94 0 177 40v-40q-79 -42 -193 -42q-124 0 -171 54q-46 55 -46 201q0 148 47 201q46 54 174 54q117 0 160 -52t43 -196zM133 269h320q0 113 -33 153q-32 41 -120 41q-94 0 -130 -41q-35 -40 -37 -153zM265 700h55v-89
h-55v89z" />
    <glyph glyph-name="Eogonek" unicode="&#x118;" horiz-adv-x="642" 
d="M422 -40l12 40h-342v700h465v-42h-409v-276h384v-41h-384v-299h409v-42h-91l-2 -4l-2.5 -10t-3.5 -13t-3.5 -15t-1.5 -14q1 -40 43 -40q31 0 61 11v-40q-31 -12 -72 -12q-65 0 -69 55q-2 18 6 42z" />
    <glyph glyph-name="eogonek" unicode="&#x119;" horiz-adv-x="580" 
d="M503 257v-29h-370q2 -109 40 -150q39 -41 139 -41q94 0 177 40v-40q-61 -33 -137 -39q-12 -48 -12 -54q1 -40 43 -40q31 0 61 11v-40q-32 -12 -72 -12q-65 0 -69 55q-1 18 6 42q5 25 10 36q-5 -1 -23 -1q-124 0 -171 54q-46 55 -46 201q0 148 47 201q46 54 174 54
q117 0 160 -52t43 -196zM133 269h320q0 113 -33 153q-32 41 -120 41q-94 0 -130 -41q-35 -40 -37 -153z" />
    <glyph glyph-name="Ecaron" unicode="&#x11a;" horiz-adv-x="642" 
d="M174 887l25 29l122 -116l122 116l25 -29l-147 -142zM557 42v-42h-465v700h465v-42h-409v-276h384v-41h-384v-299h409z" />
    <glyph glyph-name="ecaron" unicode="&#x11b;" horiz-adv-x="580" 
d="M503 257v-29h-370q2 -109 40 -150q39 -41 139 -41q94 0 177 40v-40q-79 -42 -193 -42q-124 0 -171 54q-46 55 -46 201q0 148 47 201q46 54 174 54q117 0 160 -52t43 -196zM133 269h320q0 113 -33 153q-32 41 -120 41q-94 0 -130 -41q-35 -40 -37 -153zM146 735l25 29
l122 -116l122 116l25 -29l-147 -142z" />
    <glyph glyph-name="Gcircumflex" unicode="&#x11c;" horiz-adv-x="686" 
d="M540 322h-185v42h238v-314q-97 -55 -237 -55q-153 0 -210 76q-57 77 -57 279q2 108 13.5 173.5t43 107t79 57t127.5 17.5q137 0 235 -58v-39q-101 55 -214 55q-131 0 -180 -66q-48 -66 -48 -247q0 -179 44 -247q43 -66 164 -66q101 0 187 44v241zM490 775l-25 -30
l-122 117l-122 -117l-25 30l147 141z" />
    <glyph glyph-name="gcircumflex" unicode="&#x11d;" horiz-adv-x="579" 
d="M91 98q0 34 16 53t52 27q-44 16 -62 52t-18 103q0 100 42 136q44 36 160 36q38 0 80 -5h154v-34l-65 -7q33 -37 33 -126q0 -98 -43 -134q-44 -36 -159 -36q-82 0 -112 -13t-30 -48q0 -52 134 -61q40 -1 68.5 -4t65 -11.5t59.5 -22t39 -38.5t15 -59q0 -78 -50 -107
t-182 -29q-129 0 -179 29q-48 29 -48 107q0 52 15.5 81t52.5 45q-38 20 -38 66zM130 333q0 -73 32 -102q32 -27 119 -27t119 27q32 29 32 102q0 76 -32 103q-31 27 -119 27q-87 0 -119 -27t-32 -103zM288 -188q103 0 141 20t38 74q0 58 -70 77q-35 8 -67 12q-5 1 -78 8
q-44 5 -69 9q-39 -9 -54.5 -33t-15.5 -73q0 -54 37 -73q38 -21 138 -21zM429 623l-25 -30l-122 117l-122 -117l-25 30l147 141z" />
    <glyph glyph-name="Gbreve" unicode="&#x11e;" horiz-adv-x="686" 
d="M540 322h-185v42h238v-314q-97 -55 -237 -55q-153 0 -210 76q-57 77 -57 279q2 108 13.5 173.5t43 107t79 57t127.5 17.5q137 0 235 -58v-39q-101 55 -214 55q-131 0 -180 -66q-48 -66 -48 -247q0 -179 44 -247q43 -66 164 -66q101 0 187 44v241zM459 839h48
q-14 -50 -51.5 -70.5t-112.5 -20.5q-76 0 -113.5 20.5t-51.5 70.5h49q23 -53 116 -53q92 0 116 53z" />
    <glyph glyph-name="gbreve" unicode="&#x11f;" horiz-adv-x="579" 
d="M91 98q0 34 16 53t52 27q-44 16 -62 52t-18 103q0 100 42 136q44 36 160 36q38 0 80 -5h154v-34l-65 -7q33 -37 33 -126q0 -98 -43 -134q-44 -36 -159 -36h-12q-74 -1 -102 -14t-28 -47q0 -52 134 -61q40 -1 68.5 -4t65 -11.5t59.5 -22t39 -38.5t15 -59q0 -78 -50 -107
t-182 -29q-129 0 -179 29q-48 29 -48 107q0 52 15.5 81t52.5 45q-38 20 -38 66zM130 333q0 -73 32 -102q32 -27 119 -27t119 27q32 29 32 102q0 76 -32 103q-31 27 -119 27q-87 0 -119 -27t-32 -103zM288 -188q103 0 141 20t38 74q0 58 -70 77q-35 8 -67 12q-5 1 -78 8
q-44 5 -69 9q-39 -9 -54.5 -33t-15.5 -73q0 -54 37 -73q38 -21 138 -21zM398 717h48q-14 -50 -51.5 -70.5t-112.5 -20.5q-76 0 -113.5 20.5t-51.5 70.5h49q23 -53 116 -53q92 0 116 53z" />
    <glyph glyph-name="Gdotaccent" unicode="&#x120;" horiz-adv-x="686" 
d="M540 322h-185v42h238v-314q-97 -55 -237 -55q-153 0 -210 76q-57 77 -57 279q2 108 13.5 173.5t43 107t79 57t127.5 17.5q137 0 235 -58v-39q-101 55 -214 55q-131 0 -180 -66q-48 -66 -48 -247q0 -179 44 -247q43 -66 164 -66q101 0 187 44v241zM315 839h55v-89h-55v89z
" />
    <glyph glyph-name="gdotaccent" unicode="&#x121;" horiz-adv-x="579" 
d="M91 98q0 34 16 53t52 27q-44 16 -62 52t-18 103q0 100 42 136q44 36 160 36q38 0 80 -5h154v-34l-65 -7q33 -37 33 -126q0 -98 -43 -134q-44 -36 -159 -36q-82 0 -112 -13t-30 -48q0 -52 134 -61q40 -1 68.5 -4t65 -11.5t59.5 -22t39 -38.5t15 -59q0 -78 -50 -107
t-182 -29q-129 0 -179 29q-48 29 -48 107q0 52 15.5 81t52.5 45q-38 20 -38 66zM130 333q0 -73 32 -102q32 -27 119 -27t119 27q32 29 32 102q0 76 -32 103q-31 27 -119 27q-87 0 -119 -27t-32 -103zM288 -188q103 0 141 20t38 74q0 58 -70 77q-35 8 -67 12q-5 1 -78 8
q-44 5 -69 9q-39 -9 -54.5 -33t-15.5 -73q0 -54 37 -73q38 -21 138 -21zM254 700h55v-89h-55v89z" />
    <glyph glyph-name="Gcommaaccent" unicode="&#x122;" horiz-adv-x="686" 
d="M336 -137v87h41v-61q0 -53 -9 -80q-7 -26 -35 -59q-1 0 -32 17q22 28 28 46q7 17 7 50zM540 322h-185v42h238v-314q-97 -55 -237 -55q-153 0 -210 76q-57 77 -57 279q2 108 13.5 173.5t43 107t79 57t127.5 17.5q137 0 235 -58v-39q-101 55 -214 55q-131 0 -180 -66
q-48 -66 -48 -247q0 -179 44 -247q43 -66 164 -66q101 0 187 44v241z" />
    <glyph glyph-name="gcommaaccent" unicode="&#x123;" horiz-adv-x="579" 
d="M91 98q0 34 16 53t52 27q-44 16 -62 52t-18 103q0 100 42 136q44 36 160 36q38 0 80 -5h154v-34l-65 -7q33 -37 33 -126q0 -98 -43 -134q-44 -36 -159 -36q-82 0 -112 -13t-30 -48q0 -52 134 -61q40 -1 68.5 -4t65 -11.5t59.5 -22t39 -38.5t15 -59q0 -78 -50 -107
t-182 -29q-129 0 -179 29q-48 29 -48 107q0 52 15.5 81t52.5 45q-38 20 -38 66zM130 333q0 -73 32 -102q32 -27 119 -27t119 27q32 29 32 102q0 76 -32 103q-31 27 -119 27q-87 0 -119 -27t-32 -103zM288 -188q103 0 141 20t38 74q0 58 -70 77q-35 8 -67 12q-5 1 -78 8
q-44 5 -69 9q-39 -9 -54.5 -33t-15.5 -73q0 -54 37 -73q38 -21 138 -21zM285 693v-105h-41v64q0 65 7 92q7 28 37 62q1 0 32 -17q-22 -27 -28.5 -45t-6.5 -51z" />
    <glyph glyph-name="Hcircumflex" unicode="&#x124;" horiz-adv-x="709" 
d="M502 775l-25 -30l-122 117l-122 -117l-25 30l147 141zM148 339v-339h-56v700h56v-319h413v319h56v-700h-56v339h-413z" />
    <glyph glyph-name="hcircumflex" unicode="&#x125;" horiz-adv-x="576" 
d="M448 788l-25 -30l-122 117l-122 -117l-25 30l147 141zM493 0h-54v315q0 85 -27 117q-27 31 -103 31q-90 0 -172 -43v-420h-55v750h55v-293q81 48 188 48q97 0 132 -41q36 -41 36 -149v-315z" />
    <glyph glyph-name="Hbar" unicode="&#x126;" horiz-adv-x="809" 
d="M142 518h-75v38h75v144h56v-144h413v144h56v-144h75v-38h-75v-518h-56v339h-413v-339h-56v518zM198 518v-137h413v137h-413z" />
    <glyph glyph-name="hbar" unicode="&#x127;" horiz-adv-x="578" 
d="M84 614h-72v32l72 9l12 95h42v-95h257v-41h-257v-157q82 48 189 48q97 0 132 -41q36 -41 36 -149v-315h-54v315q0 85 -27 117q-27 31 -103 31q-90 0 -173 -43v-420h-54v614z" />
    <glyph glyph-name="Itilde" unicode="&#x128;" horiz-adv-x="241" 
d="M-52 751v48q56 52 103 52q27 0 71 -29q43 -28 71 -28q44 0 99 52v-48q-58 -52 -101 -52q-29 0 -72 28t-71 28q-46 0 -100 -51zM92 700h56v-700h-56v700z" />
    <glyph glyph-name="itilde" unicode="&#x129;" horiz-adv-x="229" 
d="M-58 633v48q56 52 103 52q27 0 71 -29q43 -28 71 -28q44 0 99 52v-48q-58 -52 -101 -52q-29 0 -72 28t-71 28q-46 0 -100 -51zM82 500h55v-395q0 -32 6 -50q8 -18 28 -46l-45 -17q-29 34 -37 66q-7 29 -7 107v335z" />
    <glyph glyph-name="Imacron" unicode="&#x12a;" horiz-adv-x="241" 
d="M92 700h56v-700h-56v700zM292 750h-344v38h344v-38z" />
    <glyph glyph-name="imacron" unicode="&#x12b;" horiz-adv-x="229" 
d="M82 500h55v-395q0 -32 6 -50q8 -18 28 -46l-45 -17q-29 34 -37 66q-7 29 -7 107v335zM286 662h-344v38h344v-38z" />
    <glyph glyph-name="Ibreve" unicode="&#x12c;" horiz-adv-x="241" 
d="M237 839h48q-14 -50 -51.5 -70.5t-112.5 -20.5q-76 0 -113.5 20.5t-51.5 70.5h49q23 -53 116 -53q92 0 116 53zM92 700h56v-700h-56v700z" />
    <glyph glyph-name="ibreve" unicode="&#x12d;" horiz-adv-x="229" 
d="M231 717h48q-14 -50 -51.5 -70.5t-112.5 -20.5q-76 0 -113.5 20.5t-51.5 70.5h49q23 -53 116 -53q92 0 116 53zM82 500h55v-395q0 -32 6 -50q8 -18 28 -46l-45 -17q-29 34 -37 66q-7 29 -7 107v335z" />
    <glyph glyph-name="Iogonek" unicode="&#x12e;" horiz-adv-x="241" 
d="M81 -40l12 40v700h56v-700h-24l-1 -4q-2 -4 -4 -10t-3.5 -13t-3 -15t-1.5 -14q1 -40 43 -40q31 0 61 11v-40q-32 -12 -72 -12q-65 0 -69 55q-1 18 6 42z" />
    <glyph glyph-name="iogonek" unicode="&#x12f;" horiz-adv-x="229" 
d="M82 500h55v-395q0 -32 6 -50q8 -18 28 -46q-3 -1 -10.5 -4.5t-9.5 -3.5q0 -1 -3.5 -10t-6.5 -21.5t-3 -23.5q1 -40 43 -40q31 0 61 11v-40q-32 -12 -72 -12q-65 0 -69 55q-1 18 6 42q3 23 11 39q-25 31 -31 62q-5 33 -5 102v335zM82 700h55v-89h-55v89z" />
    <glyph glyph-name="Idot" unicode="&#x130;" horiz-adv-x="241" 
d="M93 839h55v-89h-55v89zM92 700h56v-700h-56v700z" />
    <glyph glyph-name="dotlessi" unicode="&#x131;" horiz-adv-x="229" 
d="M82 500h55v-395q0 -32 6 -50q8 -18 28 -46l-45 -17q-29 34 -37 66q-7 29 -7 107v335z" />
    <glyph glyph-name="IJ" unicode="&#x132;" horiz-adv-x="567" 
d="M418 25v675h56v-675q0 -146 -51 -200q-51 -55 -187 -55q-78 0 -132 18v36q40 -12 113 -12q115 0 158 46q43 44 43 167zM92 700h56v-700h-56v700z" />
    <glyph glyph-name="ij" unicode="&#x133;" horiz-adv-x="482" 
d="M345 500h55v-566q0 -94 -32 -129t-118 -35q-59 0 -101 11v42q36 -9 83 -9q66 0 89.5 26t23.5 95v565zM345 700h55v-89h-55v89zM82 500h55v-395q0 -32 6 -50q8 -18 28 -46l-45 -17q-29 34 -37 66q-7 29 -7 107v335zM82 700h55v-89h-55v89z" />
    <glyph glyph-name="Jcircumflex" unicode="&#x134;" horiz-adv-x="545" 
d="M556 775l-25 -30l-122 117l-122 -117l-25 30l147 141zM381 250v450h56v-450q0 -146 -51 -201q-51 -54 -188 -54q-78 0 -132 18v36q41 -12 113 -12q115 0 159 45q43 46 43 168z" />
    <glyph glyph-name="jcircumflex" unicode="&#x135;" horiz-adv-x="269" 
d="M307 623l-25 -30l-122 117l-122 -117l-25 30l147 141zM132 500h55v-566q0 -94 -32 -129t-118 -35q-59 0 -101 11v42q36 -9 83 -9q66 0 89.5 26t23.5 95v565z" />
    <glyph glyph-name="Kcommaaccent" unicode="&#x136;" horiz-adv-x="641" 
d="M320 -137v87h41v-61q0 -51 -9 -80q-7 -26 -35 -59q-12 6 -32 17q22 28 28 46q7 17 7 50zM92 700h56v-316h120l243 316h66l-263 -340l282 -360h-65l-264 336h-119v-336h-56v700z" />
    <glyph glyph-name="kcommaaccent" unicode="&#x137;" horiz-adv-x="537" 
d="M254 -137v87h41v-61q0 -51 -9 -80q-7 -26 -35 -59q-1 0 -32 17q22 28 28 46q7 17 7 50zM82 750h55v-466h68l188 216h64l-206 -240l224 -260h-63l-207 236h-68v-236h-55v750z" />
    <glyph glyph-name="Lacute" unicode="&#x139;" horiz-adv-x="638" 
d="M255 745l-25 30l152 141l25 -29zM552 42v-42h-460v700h56v-658h404z" />
    <glyph glyph-name="lacute" unicode="&#x13a;" horiz-adv-x="229" 
d="M52 795l-25 30l152 141l25 -29zM82 750h55v-645q0 -32 6 -50q8 -18 28 -46l-45 -17q-25 30 -34.5 56t-9.5 68v634z" />
    <glyph glyph-name="Lcommaaccent" unicode="&#x13b;" horiz-adv-x="638" 
d="M309 -137v87h41v-61q0 -51 -9 -80q-7 -26 -35 -59q-12 6 -32 17q21 27 28 47q7 17 7 49zM552 42v-42h-460v700h56v-658h404z" />
    <glyph glyph-name="lcommaaccent" unicode="&#x13c;" horiz-adv-x="229" 
d="M90 -137v87h41v-61q0 -51 -9 -80q-7 -26 -35 -59q-12 6 -32 17q22 28 28 46q7 17 7 50zM82 750h55v-645q0 -32 6 -50q8 -18 28 -46l-45 -17q-25 30 -34.5 56t-9.5 68v634z" />
    <glyph glyph-name="Lcaron" unicode="&#x13d;" horiz-adv-x="638" 
d="M187 887l25 29l122 -116l122 116l25 -29l-147 -142zM552 42v-42h-460v700h56v-658h404z" />
    <glyph glyph-name="lcaron" unicode="&#x13e;" horiz-adv-x="346" 
d="M268 645v105h41v-64q0 -63 -8 -93q-7 -28 -36 -61q-1 0 -32 17q22 27 28.5 45t6.5 51zM82 750h55v-645q0 -32 6 -50q8 -18 28 -46l-45 -17q-25 30 -34.5 56t-9.5 68v634z" />
    <glyph glyph-name="Ldot" unicode="&#x13f;" horiz-adv-x="638" 
d="M552 42v-42h-460v700h56v-658h404zM501 348h51v-96h-51v96z" />
    <glyph glyph-name="ldot" unicode="&#x140;" horiz-adv-x="376" 
d="M82 750h55v-645q0 -32 6 -50q8 -18 28 -46l-45 -17q-25 30 -34.5 56t-9.5 68v634zM272 348h51v-96h-51v96z" />
    <glyph glyph-name="Lslash" unicode="&#x141;" horiz-adv-x="736" 
d="M188 269l-125 -73l-17 36l142 84v384h56v-351l151 89l18 -36l-169 -100v-260h404v-42h-460v269z" />
    <glyph glyph-name="lslash" unicode="&#x142;" horiz-adv-x="433" 
d="M184 750h55v-399l147 87l17 -36l-164 -97v-200q0 -32 6 -50q8 -18 28 -46l-45 -17q-25 30 -34.5 56t-9.5 68v156l-129 -76l-17 36l146 86v432z" />
    <glyph glyph-name="Nacute" unicode="&#x143;" horiz-adv-x="731" 
d="M638 700v-700h-55l-435 611v-611h-56v700h56l434 -611v611h56zM301 745l-25 30l152 141l25 -29z" />
    <glyph glyph-name="nacute" unicode="&#x144;" 
d="M485 0h-54v315q0 83 -27 115q-25 31 -100 31q-84 0 -167 -44v-417h-55v500h47l8 -49q78 54 184 54q94 0 129 -41t35 -149v-315zM220 593l-25 30l152 141l25 -29z" />
    <glyph glyph-name="Ncommaaccent" unicode="&#x145;" horiz-adv-x="731" 
d="M354 -137v87h41v-61q0 -53 -9 -80q-7 -26 -35 -59q-1 0 -32 17q22 28 28 46q7 17 7 50zM638 700v-700h-55l-435 611v-611h-56v700h56l434 -611v611h56z" />
    <glyph glyph-name="ncommaaccent" unicode="&#x146;" 
d="M264 -137v87h41v-61q0 -51 -9 -80q-7 -26 -35 -59q-12 6 -32 17q22 28 28 46q7 17 7 50zM485 0h-54v315q0 83 -27 115q-25 31 -100 31q-84 0 -167 -44v-417h-55v500h47l8 -49q78 54 184 54q94 0 129 -41t35 -149v-315z" />
    <glyph glyph-name="Ncaron" unicode="&#x147;" horiz-adv-x="731" 
d="M218 887l25 29l122 -116l122 116l25 -29l-147 -142zM638 700v-700h-55l-435 611v-611h-56v700h56l434 -611v611h56z" />
    <glyph glyph-name="ncaron" unicode="&#x148;" 
d="M137 735l25 29l122 -116l122 116l25 -29l-147 -142zM485 0h-54v315q0 83 -27 115q-25 31 -100 31q-84 0 -167 -44v-417h-55v500h47l8 -49q78 54 184 54q94 0 129 -41t35 -149v-315z" />
    <glyph glyph-name="Eng" unicode="&#x14a;" horiz-adv-x="731" 
d="M582 0l-434 611v-611h-56v700h56l434 -611v611h56v-700q0 -130 -51 -180q-52 -50 -187 -50q-78 0 -132 18v36q40 -12 113 -12q115 0 158 40t43 148z" />
    <glyph glyph-name="eng" unicode="&#x14b;" 
d="M485 315v-381q0 -94 -32 -129t-117 -35q-59 0 -101 11v42q35 -9 82 -9q66 0 90 26q24 25 24 95v380q0 83 -27 115q-25 31 -100 31q-84 0 -167 -44v-417h-55v500h47l8 -49q78 54 184 54q94 0 129 -41t35 -149z" />
    <glyph glyph-name="Omacron" unicode="&#x14c;" horiz-adv-x="766" 
d="M89 350q2 108 15 173t47 107t87 57.5t141 17.5q167 0 229 -75q62 -74 62 -280q0 -202 -62 -279q-61 -76 -229 -76q-167 0 -228 76q-62 77 -62 279zM145 350q0 -178 50 -246q49 -67 184 -67q136 0 185 67q50 68 50 246q0 182 -50 247q-50 66 -185 66q-136 0 -185 -66
q-49 -64 -49 -247zM555 750h-344v38h344v-38z" />
    <glyph glyph-name="omacron" unicode="&#x14d;" horiz-adv-x="600" 
d="M79 250q0 148 47 201q46 54 174 54t174 -54q47 -53 47 -201q0 -145 -47 -201q-46 -54 -174 -54t-174 54q-47 56 -47 201zM133 250q0 -121 35 -168q36 -45 132 -45t131 45q36 46 36 168q0 124 -36 168q-35 45 -131 45t-132 -45q-35 -44 -35 -168zM472 662h-344v38h344v-38
z" />
    <glyph glyph-name="Obreve" unicode="&#x14e;" horiz-adv-x="766" 
d="M89 350q2 108 15 173t47 107t87 57.5t141 17.5q167 0 229 -75q62 -74 62 -280q0 -202 -62 -279q-61 -76 -229 -76q-167 0 -228 76q-62 77 -62 279zM145 350q0 -178 50 -246q49 -67 184 -67q136 0 185 67q50 68 50 246q0 182 -50 247q-50 66 -185 66q-136 0 -185 -66
q-49 -64 -49 -247zM499 839h48q-14 -50 -51.5 -70.5t-112.5 -20.5q-76 0 -113.5 20.5t-51.5 70.5h49q23 -53 116 -53q92 0 116 53z" />
    <glyph glyph-name="obreve" unicode="&#x14f;" horiz-adv-x="600" 
d="M79 250q0 148 47 201q46 54 174 54t174 -54q47 -53 47 -201q0 -145 -47 -201q-46 -54 -174 -54t-174 54q-47 56 -47 201zM133 250q0 -121 35 -168q36 -45 132 -45t131 45q36 46 36 168q0 124 -36 168q-35 45 -131 45t-132 -45q-35 -44 -35 -168zM416 717h48
q-14 -50 -51.5 -70.5t-112.5 -20.5q-76 0 -113.5 20.5t-51.5 70.5h49q23 -53 116 -53q92 0 116 53z" />
    <glyph glyph-name="Ohungarumlaut" unicode="&#x150;" horiz-adv-x="766" 
d="M230 745l-25 30l146 141l25 -29zM414 745l-25 30l146 141l24 -29zM89 350q2 108 15 173t47 107t87 57.5t141 17.5q167 0 229 -75q62 -74 62 -280q0 -202 -62 -279q-61 -76 -229 -76q-167 0 -228 76q-62 77 -62 279zM145 350q0 -178 50 -246q49 -67 184 -67q136 0 185 67
q50 68 50 246q0 182 -50 247q-50 66 -185 66q-136 0 -185 -66q-49 -64 -49 -247z" />
    <glyph glyph-name="ohungarumlaut" unicode="&#x151;" horiz-adv-x="600" 
d="M147 593l-25 30l146 141l25 -29zM331 593l-25 30l146 141l24 -29zM79 250q0 148 47 201q46 54 174 54t174 -54q47 -53 47 -201q0 -145 -47 -201q-46 -54 -174 -54t-174 54q-47 56 -47 201zM133 250q0 -121 35 -168q36 -45 132 -45t131 45q36 46 36 168q0 124 -36 168
q-35 45 -131 45t-132 -45q-35 -44 -35 -168z" />
    <glyph glyph-name="OE" unicode="&#x152;" horiz-adv-x="1063" 
d="M972 42v-42h-414v44q-59 -49 -193 -49q-159 0 -217 76q-59 77 -59 279q0 207 58 280q58 75 218 75q135 0 193 -48v43h414v-42h-358v-276h333v-41h-333v-299h358zM376 37q131 0 182 61v504q-49 61 -182 61t-182 -66q-49 -64 -49 -247q0 -179 49 -246t182 -67z" />
    <glyph glyph-name="oe" unicode="&#x153;" horiz-adv-x="968" 
d="M891 257v-29h-370q2 -109 40 -150q39 -41 138 -41q94 0 178 40v-40q-79 -42 -193 -42q-88 0 -131.5 27t-59.5 92q-16 -65 -60.5 -92t-132.5 -27q-128 0 -174 54q-47 56 -47 201q0 148 47 201q46 54 174 54q88 0 132.5 -26.5t61.5 -92.5q16 66 60 92.5t134 26.5
q117 0 160 -52t43 -196zM133 250q0 -121 35 -168q36 -45 132 -45t131 45q36 46 36 168q0 124 -36 168q-35 45 -131 45t-132 -45q-35 -44 -35 -168zM521 269h320q0 113 -33 153q-32 41 -121 41q-94 0 -130 -41q-35 -40 -36 -153z" />
    <glyph glyph-name="Racute" unicode="&#x154;" horiz-adv-x="656" 
d="M591 0h-65l-208 298q-13 -1 -59 -1h-111v-297h-56v700h167q175 0 240 -42q64 -42 64 -160q0 -95 -43 -139t-147 -56zM506 498q0 93 -52 126q-52 34 -195 34h-111v-319h111q142 0 194 34q53 35 53 125zM264 745l-25 30l152 141l25 -29z" />
    <glyph glyph-name="racute" unicode="&#x155;" horiz-adv-x="381" 
d="M324 505v-44q-109 0 -187 -88v-373h-55v500h45l10 -73q80 78 187 78zM126 593l-25 30l152 141l25 -29z" />
    <glyph glyph-name="Rcommaaccent" unicode="&#x156;" horiz-adv-x="656" 
d="M591 0h-65l-208 298q-13 -1 -59 -1h-111v-297h-56v700h167q175 0 240 -42q64 -42 64 -160q0 -95 -43 -139t-147 -56zM506 498q0 93 -52 126q-52 34 -195 34h-111v-319h111q142 0 194 34q53 35 53 125zM312 -137v87h41v-61q0 -53 -9 -80q-7 -26 -35 -59q-1 0 -32 17
q22 28 28 46q7 17 7 50z" />
    <glyph glyph-name="rcommaaccent" unicode="&#x157;" horiz-adv-x="381" 
d="M90 -137v87h41v-61q0 -51 -9 -80q-7 -26 -35 -59q-12 6 -32 17q22 28 28 46q7 17 7 50zM324 505v-44q-109 0 -187 -88v-373h-55v500h45l10 -73q80 78 187 78z" />
    <glyph glyph-name="Rcaron" unicode="&#x158;" horiz-adv-x="656" 
d="M591 0h-65l-208 298q-13 -1 -59 -1h-111v-297h-56v700h167q175 0 240 -42q64 -42 64 -160q0 -95 -43 -139t-147 -56zM506 498q0 93 -52 126q-52 34 -195 34h-111v-319h111q142 0 194 34q53 35 53 125zM181 887l25 29l122 -116l122 116l25 -29l-147 -142z" />
    <glyph glyph-name="rcaron" unicode="&#x159;" horiz-adv-x="381" 
d="M43 735l25 29l122 -116l122 116l25 -29l-147 -142zM324 505v-44q-109 0 -187 -88v-373h-55v500h45l10 -73q80 78 187 78z" />
    <glyph glyph-name="Sacute" unicode="&#x15a;" horiz-adv-x="638" 
d="M141 525q0 -105 145 -139q41 -9 121 -31q66 -17 106 -61t40 -114q0 -104 -52 -144q-52 -41 -185 -41q-139 0 -230 49v39q98 -46 211 -46q115 0 156 31q43 31 43 112q0 44 -22.5 73.5t-59 44.5t-80 26t-87.5 23.5t-80.5 31.5t-59 55.5t-22.5 90.5q0 101 48 140
q49 40 175 40q133 0 221 -46v-42q-93 46 -201 46q-106 0 -147 -30q-40 -28 -40 -108zM255 745l-25 30l152 141l25 -29z" />
    <glyph glyph-name="sacute" unicode="&#x15b;" horiz-adv-x="511" 
d="M129 374q0 -71 107 -94q28 -6 39 -8.5t37 -9.5t38.5 -13.5t31 -18t27.5 -24.5t16 -32t7 -42q0 -77 -39 -107t-143 -30q-102 0 -174 35v41q71 -34 157 -34q83 0 114 20t31 73q0 74 -107 97q-4 1 -13 3q-34 8 -52 13t-47.5 16.5t-44.5 25t-27 36t-12 51.5q0 75 36 104
q38 29 133 29q100 0 166 -33v-40q-66 31 -148 31q-76 0 -104.5 -19.5t-28.5 -69.5zM192 593l-25 30l152 141l25 -29z" />
    <glyph glyph-name="Scircumflex" unicode="&#x15c;" horiz-adv-x="638" 
d="M141 525q0 -105 145 -139q41 -9 121 -31q66 -17 106 -61t40 -114q0 -104 -52 -144q-52 -41 -185 -41q-139 0 -230 49v39q98 -46 211 -46q115 0 156 31q43 31 43 112q0 44 -22.5 73.5t-59 44.5t-80 26t-87.5 23.5t-80.5 31.5t-59 55.5t-22.5 90.5q0 101 48 140
q49 40 175 40q133 0 221 -46v-42q-93 46 -201 46q-106 0 -147 -30q-40 -28 -40 -108zM465 775l-25 -30l-122 117l-122 -117l-25 30l147 141z" />
    <glyph glyph-name="scircumflex" unicode="&#x15d;" horiz-adv-x="511" 
d="M129 374q0 -71 107 -94q28 -6 39 -8.5t37 -9.5t38.5 -13.5t31 -18t27.5 -24.5t16 -32t7 -42q0 -77 -39 -107t-143 -30q-102 0 -174 35v41q71 -34 157 -34q83 0 114 20t31 73q0 74 -107 97q-4 1 -13 3q-34 8 -52 13t-47.5 16.5t-44.5 25t-27 36t-12 51.5q0 75 36 104
q38 29 133 29q100 0 166 -33v-40q-66 31 -148 31q-76 0 -104.5 -19.5t-28.5 -69.5zM402 623l-25 -30l-122 117l-122 -117l-25 30l147 141z" />
    <glyph glyph-name="Scedilla" unicode="&#x15e;" horiz-adv-x="638" 
d="M302 -33v28q-131 3 -216 49v39q98 -46 211 -46q115 0 156 31q43 31 43 112q0 44 -22.5 73.5t-59 44.5t-80 26t-87.5 23.5t-80.5 31.5t-59 55.5t-22.5 90.5q0 101 48 140q49 40 175 40q133 0 221 -46v-42q-93 46 -201 46q-106 0 -147 -30q-40 -28 -40 -108
q0 -105 145 -139q41 -9 121 -31q66 -17 106 -61t40 -114q0 -99 -46 -139q-45 -41 -160 -45v-18q0 -42 -9.5 -68t-34.5 -57l-36 18q22 27 28.5 45t6.5 51z" />
    <glyph glyph-name="scedilla" unicode="&#x15f;" horiz-adv-x="511" 
d="M230 -33v28q-90 3 -154 35v41q71 -34 157 -34q83 0 114 20t31 73q0 74 -107 97q-4 1 -13 3q-34 8 -52 13t-47.5 16.5t-44.5 25t-27 36t-12 51.5q0 75 36 104q38 29 133 29q100 0 166 -33v-40q-66 31 -148 31q-76 0 -104.5 -19.5t-28.5 -69.5q0 -71 107 -94q28 -6 39 -8.5
t37 -9.5t38.5 -13.5t31 -18t27.5 -24.5t16 -32t7 -42q0 -73 -34 -103t-123 -33v-18q0 -42 -9.5 -68t-34.5 -57l-36 18q22 27 28.5 45t6.5 51z" />
    <glyph glyph-name="Scaron" unicode="&#x160;" horiz-adv-x="638" 
d="M141 525q0 -105 145 -139q41 -9 121 -31q66 -17 106 -61t40 -114q0 -104 -52 -144q-52 -41 -185 -41q-139 0 -230 49v39q98 -46 211 -46q115 0 156 31q43 31 43 112q0 44 -22.5 73.5t-59 44.5t-80 26t-87.5 23.5t-80.5 31.5t-59 55.5t-22.5 90.5q0 101 48 140
q49 40 175 40q133 0 221 -46v-42q-93 46 -201 46q-106 0 -147 -30q-40 -28 -40 -108zM171 887l25 29l122 -116l122 116l25 -29l-147 -142z" />
    <glyph glyph-name="scaron" unicode="&#x161;" horiz-adv-x="511" 
d="M129 374q0 -71 107 -94q28 -6 39 -8.5t37 -9.5t38.5 -13.5t31 -18t27.5 -24.5t16 -32t7 -42q0 -77 -39 -107t-143 -30q-102 0 -174 35v41q71 -34 157 -34q83 0 114 20t31 73q0 74 -107 97q-4 1 -13 3q-34 8 -52 13t-47.5 16.5t-44.5 25t-27 36t-12 51.5q0 75 36 104
q38 29 133 29q100 0 166 -33v-40q-66 31 -148 31q-76 0 -104.5 -19.5t-28.5 -69.5zM108 735l25 29l122 -116l122 116l25 -29l-147 -142z" />
    <glyph glyph-name="Tcommaaccent" unicode="&#x162;" horiz-adv-x="702" 
d="M331 -137v87h41v-61q0 -53 -9 -80q-7 -25 -34 -59q-25 12 -32 17q21 29 27 46q7 17 7 50zM323 658h-258v42h572v-42h-258v-658h-56v658z" />
    <glyph glyph-name="tcommaaccent" unicode="&#x163;" horiz-adv-x="452" 
d="M240 -137v87h41v-61q0 -51 -9 -80q-7 -26 -35 -59q-12 6 -32 17q22 28 28 46q7 17 7 50zM132 458h-72v33l72 9l14 100h41v-100h196v-42h-196v-298q0 -71 23 -97q24 -26 90 -26q43 0 83 8v-39q-42 -11 -101 -11q-86 0 -118 35t-32 129v299z" />
    <glyph glyph-name="Tcaron" unicode="&#x164;" horiz-adv-x="702" 
d="M204 887l25 29l122 -116l122 116l25 -29l-147 -142zM323 658h-258v42h572v-42h-258v-658h-56v658z" />
    <glyph glyph-name="tcaron" unicode="&#x165;" horiz-adv-x="510" 
d="M387 645v105h41v-64q0 -62 -8 -92q-8 -29 -36 -62q-25 12 -32 17q22 28 28 46q7 17 7 50zM132 458h-72v33l72 9l14 100h41v-100h196v-42h-196v-298q0 -71 23 -97q24 -26 90 -26q43 0 83 8v-39q-42 -11 -101 -11q-86 0 -118 35t-32 129v299z" />
    <glyph glyph-name="Tbar" unicode="&#x166;" horiz-adv-x="702" 
d="M323 658h-258v42h572v-42h-258v-241h189v-38h-189v-379h-56v379h-189v38h189v241z" />
    <glyph glyph-name="tbar" unicode="&#x167;" horiz-adv-x="452" 
d="M132 458h-72v33l72 9l14 100h41v-100h196v-42h-196v-132h196v-38h-196v-128q0 -71 23 -97q24 -26 90 -26q43 0 83 8v-39q-42 -11 -101 -11q-86 0 -118 35t-32 129v129h-71v38h71v132z" />
    <glyph glyph-name="Utilde" unicode="&#x168;" horiz-adv-x="734" 
d="M586 275v425h56v-425q0 -161 -58 -220q-57 -60 -213 -60q-155 0 -213 60q-57 60 -57 220v425h56v-425q0 -137 45 -188q47 -50 169 -50q124 0 169 50q46 50 46 188zM195 751v48q56 52 103 52q27 0 71 -29q43 -28 71 -28q44 0 99 52v-48q-58 -52 -101 -52q-29 0 -72 28
t-71 28q-46 0 -100 -51z" />
    <glyph glyph-name="utilde" unicode="&#x169;" 
d="M82 500h55v-322q0 -80 26 -111q27 -30 100 -30q86 0 168 43v420h54v-500h-46l-8 49q-78 -54 -185 -54q-94 0 -129 39q-35 40 -35 144v322zM112 633v48q56 52 103 52q27 0 71 -29q43 -28 71 -28q44 0 99 52v-48q-58 -52 -101 -52q-29 0 -72 28t-71 28q-46 0 -100 -51z" />
    <glyph glyph-name="Umacron" unicode="&#x16a;" horiz-adv-x="734" 
d="M586 275v425h56v-425q0 -161 -58 -220q-57 -60 -213 -60q-155 0 -213 60q-57 60 -57 220v425h56v-425q0 -137 45 -188q47 -50 169 -50q124 0 169 50q46 50 46 188zM539 750h-344v38h344v-38z" />
    <glyph glyph-name="umacron" unicode="&#x16b;" 
d="M82 500h55v-322q0 -80 26 -111q27 -30 100 -30q86 0 168 43v420h54v-500h-46l-8 49q-78 -54 -185 -54q-94 0 -129 39q-35 40 -35 144v322zM456 662h-344v38h344v-38z" />
    <glyph glyph-name="Ubreve" unicode="&#x16c;" horiz-adv-x="734" 
d="M586 275v425h56v-425q0 -161 -58 -220q-57 -60 -213 -60q-155 0 -213 60q-57 60 -57 220v425h56v-425q0 -137 45 -188q47 -50 169 -50q124 0 169 50q46 50 46 188zM483 839h48q-14 -50 -51.5 -70.5t-112.5 -20.5q-76 0 -113.5 20.5t-51.5 70.5h49q23 -53 116 -53
q92 0 116 53z" />
    <glyph glyph-name="ubreve" unicode="&#x16d;" 
d="M82 500h55v-322q0 -80 26 -111q27 -30 100 -30q86 0 168 43v420h54v-500h-46l-8 49q-78 -54 -185 -54q-94 0 -129 39q-35 40 -35 144v322zM400 717h48q-14 -50 -51.5 -70.5t-112.5 -20.5q-76 0 -113.5 20.5t-51.5 70.5h49q23 -53 116 -53q92 0 116 53z" />
    <glyph glyph-name="Uring" unicode="&#x16e;" horiz-adv-x="734" 
d="M289 766q-20 20 -20 69q0 50 20 68q21 18 77 18t76 -18q21 -18 21 -68q0 -49 -21 -69q-20 -18 -76 -18t-77 18zM366 782q36 0 49.5 11.5t13.5 41.5t-13.5 41.5t-49.5 11.5q-35 0 -48.5 -11t-13.5 -42t13.5 -42t48.5 -11zM586 275v425h56v-425q0 -161 -58 -220
q-57 -60 -213 -60q-155 0 -213 60q-57 60 -57 220v425h56v-425q0 -137 45 -188q47 -50 169 -50q124 0 169 50q46 50 46 188z" />
    <glyph glyph-name="uring" unicode="&#x16f;" 
d="M82 500h55v-322q0 -80 26 -111q27 -30 100 -30q86 0 168 43v420h54v-500h-46l-8 49q-78 -54 -185 -54q-94 0 -129 39q-35 40 -35 144v322zM206 605q-20 20 -20 69q0 50 20 68q21 18 77 18q57 0 76 -18q21 -18 21 -68t-21 -69q-19 -18 -76 -18q-56 0 -77 18zM283 621
q36 0 49.5 11.5t13.5 41.5t-13.5 41.5t-49.5 11.5q-35 0 -48.5 -11t-13.5 -42t13.5 -42t48.5 -11z" />
    <glyph glyph-name="Uhungarumlaut" unicode="&#x170;" horiz-adv-x="734" 
d="M214 745l-25 30l146 141l25 -29zM398 745l-25 30l146 141l24 -29zM586 275v425h56v-425q0 -161 -58 -220q-57 -60 -213 -60q-155 0 -213 60q-57 60 -57 220v425h56v-425q0 -137 45 -188q47 -50 169 -50q124 0 169 50q46 50 46 188z" />
    <glyph glyph-name="uhungarumlaut" unicode="&#x171;" 
d="M131 593l-25 30l146 141l25 -29zM315 593l-25 30l146 141l24 -29zM82 500h55v-322q0 -80 26 -111q27 -30 100 -30q86 0 168 43v420h54v-500h-46l-8 49q-78 -54 -185 -54q-94 0 -129 39q-35 40 -35 144v322z" />
    <glyph glyph-name="Uogonek" unicode="&#x172;" horiz-adv-x="734" 
d="M586 275v425h56v-425q0 -141 -43 -202q-42 -61 -150 -73l-1 -4q-2 -4 -4 -10.5t-3.5 -13.5t-3 -15t-1.5 -13q1 -40 43 -40q31 0 61 11v-40q-32 -12 -72 -12q-65 0 -69 55q-1 18 6 42q5 27 10 36q-9 -1 -44 -1q-155 0 -213 60q-57 60 -57 220v425h56v-425q0 -137 45 -188
q47 -50 169 -50q124 0 169 50q46 50 46 188z" />
    <glyph glyph-name="uogonek" unicode="&#x173;" 
d="M426 -40l12 40h1l-8 49q-78 -54 -185 -54q-94 0 -129 39q-35 40 -35 144v322h55v-322q0 -80 26 -111q27 -30 100 -30q86 0 168 43v420h54v-500h-15l-2 -4l-2.5 -10t-3.5 -13t-3.5 -15t-1.5 -14q1 -40 43 -40q31 0 61 11v-40q-31 -12 -72 -12q-65 0 -69 55q-2 18 6 42z
" />
    <glyph glyph-name="Wcircumflex" unicode="&#x174;" horiz-adv-x="1141" 
d="M848 0h-80l-194 631h-7l-193 -631h-80l-231 700h59l207 -638h7l196 638h77l196 -638h7l207 638h59zM717 775l-25 -30l-122 117l-122 -117l-25 30l147 141z" />
    <glyph glyph-name="wcircumflex" unicode="&#x175;" horiz-adv-x="888" 
d="M663 0h-74l-142 438h-6l-142 -438h-74l-173 500h58l148 -445h7l143 445h71l144 -445h7l148 445h58zM591 623l-25 -30l-122 117l-122 -117l-25 30l147 141z" />
    <glyph glyph-name="Ycircumflex" unicode="&#x176;" horiz-adv-x="698" 
d="M377 0h-56v281l-261 419h57l230 -367h4l231 367h58l-263 -419v-281zM496 775l-25 -30l-122 117l-122 -117l-25 30l147 141z" />
    <glyph glyph-name="ycircumflex" unicode="&#x177;" horiz-adv-x="611" 
d="M75 -218v43q30 -10 68 -10q36 0 55.5 11.5t31.5 39.5l61 134h-22l-217 500h58l191 -452h8l191 452h58l-288 -661q-15 -37 -40.5 -52.5t-72.5 -15.5t-82 11zM452 623l-25 -30l-122 117l-122 -117l-25 30l147 141z" />
    <glyph glyph-name="Ydieresis" unicode="&#x178;" horiz-adv-x="698" 
d="M377 0h-56v281l-261 419h57l230 -367h4l231 367h58l-263 -419v-281zM207 839h50v-87h-50v87zM442 839h49v-87h-49v87z" />
    <glyph glyph-name="Zacute" unicode="&#x179;" horiz-adv-x="722" 
d="M557 658h-467v42h539v-38l-466 -620h466v-42h-539v38zM297 745l-25 30l152 141l25 -29z" />
    <glyph glyph-name="zacute" unicode="&#x17a;" horiz-adv-x="575" 
d="M422 458h-340v42h411v-27l-339 -431h339v-42h-411v27zM224 593l-25 30l152 141l25 -29z" />
    <glyph glyph-name="Zdotaccent" unicode="&#x17b;" horiz-adv-x="722" 
d="M557 658h-467v42h539v-38l-466 -620h466v-42h-539v38zM333 839h55v-89h-55v89z" />
    <glyph glyph-name="zdotaccent" unicode="&#x17c;" horiz-adv-x="575" 
d="M422 458h-340v42h411v-27l-339 -431h339v-42h-411v27zM260 700h55v-89h-55v89z" />
    <glyph glyph-name="Zcaron" unicode="&#x17d;" horiz-adv-x="722" 
d="M214 887l25 29l122 -116l122 116l25 -29l-147 -142zM557 658h-467v42h539v-38l-466 -620h466v-42h-539v38z" />
    <glyph glyph-name="zcaron" unicode="&#x17e;" horiz-adv-x="575" 
d="M141 735l25 29l122 -116l122 116l25 -29l-147 -142zM422 458h-340v42h411v-27l-339 -431h339v-42h-411v27z" />
    <glyph glyph-name="uni018F" unicode="&#x18f;" horiz-adv-x="740" 
d="M89 350v31h499q-5 161 -56 221q-51 61 -184 61q-116 0 -224 -57v38q103 61 244 61q159 0 217 -76q59 -77 59 -279t-60 -279q-58 -76 -218 -76q-158 0 -218 76q-59 77 -59 279zM588 339h-445q2 -174 48 -238q48 -64 174 -64q128 0 174 64q47 64 49 238z" />
    <glyph glyph-name="florin" unicode="&#x192;" horiz-adv-x="431" 
d="M132 458h-73v33l73 9v91q0 94 32 129t118 35q59 0 101 -11v-40q-36 9 -83 9q-66 0 -90 -26q-23 -26 -23 -97v-90h196v-42h-196v-683h-55v683z" />
    <glyph glyph-name="uni01DD" unicode="&#x1dd;" horiz-adv-x="585" 
d="M82 242v29h371q-1 109 -42 150q-41 42 -142 42q-95 0 -183 -42v40q82 44 198 44q128 0 174 -55q48 -54 48 -200q0 -147 -47 -202q-47 -53 -174 -53q-117 0 -160 52t-43 195zM453 229h-320q0 -111 32 -152q33 -40 122 -40q95 0 129 40q35 40 37 152z" />
    <glyph glyph-name="AEacute" unicode="&#x1fc;" horiz-adv-x="892" 
d="M810 42v-42h-412v207h-189l-87 -207h-60l292 700h456v-42h-358v-276h333v-41h-333v-299h358zM398 646h-10l-167 -397h177v397zM442 745l-25 30l152 141l25 -29z" />
    <glyph glyph-name="aeacute" unicode="&#x1fd;" horiz-adv-x="911" 
d="M834 257v-29h-370q2 -109 40 -150q39 -41 139 -41q94 0 177 40v-40q-80 -42 -193 -42q-130 0 -175 60q-58 -60 -195 -60q-101 0 -139 28q-39 28 -39 100q0 83 46 114q42 29 187 46l99 10v37q0 76 -29 105q-28 28 -106 28q-88 0 -173 -42v41q76 43 188 43
q72 0 106.5 -20.5t46.5 -70.5q20 50 64 70.5t127 20.5q115 0 157 -52t42 -196zM464 269h321q-1 113 -33 154q-31 40 -121 40q-94 0 -130 -41q-35 -40 -37 -153zM270 37q100 0 168 45q-28 47 -28 169q-166 -16 -209 -28q-56 -15 -68 -56q-5 -18 -5 -42q0 -49 31 -68.5
t111 -19.5zM394 593l-25 30l152 141l25 -29z" />
    <glyph glyph-name="Oslashacute" unicode="&#x1fe;" horiz-adv-x="766" 
d="M569 750h46l-45 -85q54 -35 77 -109t23 -206q0 -202 -62 -279q-61 -76 -229 -76q-99 0 -153 22l-36 -67h-46l45 86q-54 35 -77 109t-23 205q2 108 15 173t47 107t87 57.5t141 17.5q97 0 154 -22zM143 350q0 -108 16.5 -171.5t54.5 -96.5l297 559q-48 22 -132 22
q-137 0 -186 -66q-50 -67 -50 -247zM616 350q0 109 -16.5 172.5t-54.5 96.5l-297 -560q45 -22 131 -22q137 0 186 67q51 68 51 246zM319 745l-25 30l152 141l25 -29z" />
    <glyph glyph-name="oslashacute" unicode="&#x1ff;" horiz-adv-x="600" 
d="M443 550h33l-38 -71q45 -24 64 -77.5t19 -151.5q0 -145 -47 -201q-46 -54 -174 -54q-64 0 -112 14l-31 -59h-33l38 71q-45 24 -64 78t-19 151q0 148 47 201q46 54 174 54q68 0 112 -14zM131 250q0 -146 53 -187l207 389q-36 14 -91 14q-97 0 -133 -46q-36 -45 -36 -170z
M469 250q0 145 -53 187l-207 -389q33 -14 91 -14q97 0 133 46t36 170zM236 593l-25 30l152 141l25 -29z" />
    <glyph glyph-name="Scommaaccent" unicode="&#x218;" horiz-adv-x="638" 
d="M300 -137v87h41v-61q0 -53 -9 -80q-7 -25 -34 -59q-25 12 -32 17q21 29 27 46q7 17 7 50zM141 525q0 -105 145 -139q41 -9 121 -31q66 -17 106 -61t40 -114q0 -104 -52 -144q-52 -41 -185 -41q-139 0 -230 49v39q98 -46 211 -46q115 0 156 31q43 31 43 112
q0 44 -22.5 73.5t-59 44.5t-80 26t-87.5 23.5t-80.5 31.5t-59 55.5t-22.5 90.5q0 101 48 140q49 40 175 40q133 0 221 -46v-42q-93 46 -201 46q-106 0 -147 -30q-40 -28 -40 -108z" />
    <glyph glyph-name="scommaaccent" unicode="&#x219;" horiz-adv-x="511" 
d="M245 -137v87h41v-61q0 -51 -9 -80q-7 -26 -35 -59q-12 6 -32 17q21 27 28 47q7 17 7 49zM129 374q0 -71 107 -94q28 -6 39 -8.5t37 -9.5t38.5 -13.5t31 -18t27.5 -24.5t16 -32t7 -42q0 -77 -39 -107t-143 -30q-102 0 -174 35v41q71 -34 157 -34q83 0 114 20t31 73
q0 74 -107 97q-4 1 -13 3q-34 8 -52 13t-47.5 16.5t-44.5 25t-27 36t-12 51.5q0 75 36 104q38 29 133 29q100 0 166 -33v-40q-66 31 -148 31q-76 0 -104.5 -19.5t-28.5 -69.5z" />
    <glyph glyph-name="uni021A" unicode="&#x21a;" horiz-adv-x="702" 
d="M331 -137v87h41v-61q0 -53 -9 -80q-7 -25 -34 -59q-25 12 -32 17q21 29 27 46q7 17 7 50zM323 658h-258v42h572v-42h-258v-658h-56v658z" />
    <glyph glyph-name="uni021B" unicode="&#x21b;" horiz-adv-x="452" 
d="M240 -137v87h41v-61q0 -51 -9 -80q-7 -26 -35 -59q-12 6 -32 17q22 28 28 46q7 17 7 50zM132 458h-72v33l72 9l14 100h41v-100h196v-42h-196v-298q0 -71 23 -97q24 -26 90 -26q43 0 83 8v-39q-42 -11 -101 -11q-86 0 -118 35t-32 129v299z" />
    <glyph glyph-name="dotlessj" unicode="&#x237;" horiz-adv-x="269" 
d="M132 500h55v-566q0 -94 -32 -129t-118 -35q-59 0 -101 11v42q36 -9 83 -9q66 0 89.5 26t23.5 95v565z" />
    <glyph glyph-name="circumflex" unicode="&#x2c6;" horiz-adv-x="336" 
d="M315 623l-25 -30l-122 117l-122 -117l-25 30l147 141z" />
    <glyph glyph-name="caron" unicode="&#x2c7;" horiz-adv-x="336" 
d="M21 735l25 29l122 -116l122 116l25 -29l-147 -142z" />
    <glyph glyph-name="breve" unicode="&#x2d8;" horiz-adv-x="486" 
d="M359 717h48q-14 -50 -51.5 -70.5t-112.5 -20.5q-76 0 -113.5 20.5t-51.5 70.5h49q23 -53 116 -53q92 0 116 53z" />
    <glyph glyph-name="dotaccent" unicode="&#x2d9;" horiz-adv-x="219" 
d="M82 700h55v-89h-55v89z" />
    <glyph glyph-name="ring" unicode="&#x2da;" horiz-adv-x="351" 
d="M98 605q-20 20 -20 69q0 50 20 68q21 18 77 18q57 0 76 -18q21 -18 21 -68t-21 -69q-19 -18 -76 -18q-56 0 -77 18zM175 621q36 0 49.5 11.5t13.5 41.5t-13.5 41.5t-49.5 11.5q-35 0 -48.5 -11t-13.5 -42t13.5 -42t48.5 -11z" />
    <glyph glyph-name="ogonek" unicode="&#x2db;" horiz-adv-x="444" 
d="M140 -40l12 40h32l-2 -4l-2.5 -10t-3.5 -13t-3.5 -15t-1.5 -14q1 -40 43 -40q31 0 61 11v-40q-31 -12 -72 -12q-65 0 -69 55q-2 18 6 42z" />
    <glyph glyph-name="tilde" unicode="&#x2dc;" horiz-adv-x="508" 
d="M82 633v48q56 52 103 52q27 0 71 -29q43 -28 71 -28q44 0 99 52v-48q-58 -52 -101 -52q-29 0 -72 28t-71 28q-46 0 -100 -51z" />
    <glyph glyph-name="hungarumlaut" unicode="&#x2dd;" horiz-adv-x="397" 
d="M46 593l-25 30l146 141l25 -29zM230 593l-25 30l146 141l24 -29z" />
    <glyph glyph-name="uni0400" unicode="&#x400;" horiz-adv-x="642" 
d="M557 42v-42h-465v700h465v-42h-409v-276h384v-41h-384v-299h409zM410 823l-25 -30l-152 142l25 29z" />
    <glyph glyph-name="afii10023" unicode="&#x401;" horiz-adv-x="642" 
d="M160 900h54v-89h-54v89zM430 900h54v-89h-54v89zM557 42v-42h-465v700h465v-42h-409v-276h384v-41h-384v-299h409z" />
    <glyph glyph-name="afii10051" unicode="&#x402;" horiz-adv-x="828" 
d="M681 0v222q0 86 -27 117t-102 31q-88 0 -173 -44v-326h-56v658h-258v42h572v-42h-258v-294q83 48 190 48q97 0 133 -40t36 -150v-222q0 -130 -51 -180q-52 -50 -188 -50q-78 0 -132 18v36q41 -12 113 -12q115 0 158 40t43 148z" />
    <glyph glyph-name="afii10052" unicode="&#x403;" horiz-adv-x="571" 
d="M221 793l-25 30l152 141l25 -29zM148 658v-658h-56v700h413v-42h-357z" />
    <glyph glyph-name="afii10053" unicode="&#x404;" horiz-adv-x="667" 
d="M89 350q2 109 13.5 173.5t42 106.5t78.5 57.5t128 17.5q136 0 234 -58v-39q-100 55 -213 55q-127 0 -175 -60q-47 -58 -52 -222h374v-42h-374q2 -174 49 -238q49 -64 178 -64q111 0 214 56v-38q-98 -60 -234 -60q-152 0 -207 76q-56 77 -56 279z" />
    <glyph glyph-name="afii10054" unicode="&#x405;" horiz-adv-x="638" 
d="M141 525q0 -105 145 -139q41 -9 121 -31q66 -17 106 -61t40 -114q0 -104 -52 -144q-52 -41 -185 -41q-139 0 -230 49v39q98 -46 211 -46q115 0 156 31q43 31 43 112q0 44 -22.5 73.5t-59 44.5t-80 26t-87.5 23.5t-80.5 31.5t-59 55.5t-22.5 90.5q0 101 48 140
q49 40 175 40q133 0 221 -46v-42q-93 46 -201 46q-106 0 -147 -30q-40 -28 -40 -108z" />
    <glyph glyph-name="afii10055" unicode="&#x406;" horiz-adv-x="241" 
d="M92 700h56v-700h-56v700z" />
    <glyph glyph-name="afii10056" unicode="&#x407;" horiz-adv-x="241" 
d="M-22 900h50v-87h-50v87zM213 900h49v-87h-49v87zM92 700h56v-700h-56v700z" />
    <glyph glyph-name="afii10057" unicode="&#x408;" horiz-adv-x="545" 
d="M381 250v450h56v-450q0 -146 -51 -201q-51 -54 -188 -54q-78 0 -132 18v36q41 -12 113 -12q115 0 159 45q43 46 43 168z" />
    <glyph glyph-name="afii10058" unicode="&#x409;" horiz-adv-x="1141" 
d="M744 0h-171v658h-327q0 -218 -12 -333q-10 -113 -41 -188q-29 -74 -92 -145l-46 17q27 33 44 58q46 66 61 139q36 173 32 494h437v-286h115q173 0 238 -45q65 -44 65 -162q0 -121 -64 -164t-239 -43zM991 207q0 94 -53 129q-52 36 -194 36h-115v-330h115q143 0 195 34
t52 131z" />
    <glyph glyph-name="afii10059" unicode="&#x40a;" horiz-adv-x="1127" 
d="M730 0h-171v339h-412v-339h-57v700h57v-319h412v319h56v-286h115q174 0 238 -45q65 -44 65 -162q0 -121 -64 -164t-239 -43zM977 207q0 94 -53 129q-52 36 -194 36h-115v-330h115q143 0 195 34t52 131z" />
    <glyph glyph-name="afii10060" unicode="&#x40b;" horiz-adv-x="828" 
d="M738 0h-57v222q0 86 -27 117t-102 31q-88 0 -173 -44v-326h-56v658h-258v42h572v-42h-258v-294q83 48 190 48q97 0 133 -40t36 -150v-222z" />
    <glyph glyph-name="afii10061" unicode="&#x40c;" horiz-adv-x="641" 
d="M92 700h56v-316h120l243 316h66l-263 -340l282 -360h-65l-264 336h-119v-336h-56v700zM256 793l-25 30l152 141l25 -29z" />
    <glyph glyph-name="uni040D" unicode="&#x40d;" horiz-adv-x="723" 
d="M574 611l-426 -611h-56v700h56v-611l426 611h56v-700h-56v611zM449 823l-25 -30l-152 142l25 29z" />
    <glyph glyph-name="afii10062" unicode="&#x40e;" horiz-adv-x="741" 
d="M356 200h-23l-266 500h58l241 -450h8l242 450h58l-342 -641q-30 -64 -128 -64q-80 0 -133 34v37q56 -29 115 -29q81 0 108 55zM486 917h48q-14 -50 -51.5 -70.5t-112.5 -20.5q-76 0 -113.5 20.5t-51.5 70.5h49q23 -53 116 -53q92 0 116 53z" />
    <glyph glyph-name="afii10145" unicode="&#x40f;" horiz-adv-x="692" 
d="M319 0h-229v700h57v-658h398v658h56v-700h-229l-8 -168h-45v168z" />
    <glyph glyph-name="afii10017" unicode="&#x410;" horiz-adv-x="784" 
d="M122 0h-60l292 700h76l291 -700h-59l-86 207h-367zM396 646h-8l-167 -397h342z" />
    <glyph glyph-name="afii10018" unicode="&#x411;" horiz-adv-x="660" 
d="M263 0h-171v700h431v-42h-375v-247h115q174 0 239 -44t65 -161q0 -119 -65 -163q-64 -43 -239 -43zM510 206q0 93 -53 128t-194 35h-115v-327h115q143 0 195 34t52 130z" />
    <glyph glyph-name="afii10019" unicode="&#x412;" horiz-adv-x="675" 
d="M277 0h-185v700h160q175 0 239 -37q65 -38 65 -141q0 -70 -31 -108t-103 -53v-3q84 -13 121.5 -53.5t37.5 -118.5q0 -109 -65 -148q-65 -38 -239 -38zM525 190q0 83 -53 115t-195 32h-129v-295h129q143 0 195 31q53 32 53 117zM500 518q0 81 -53 110q-53 30 -195 30h-104
v-279h116q134 0 185 30q51 31 51 109z" />
    <glyph glyph-name="afii10020" unicode="&#x413;" horiz-adv-x="571" 
d="M148 658v-658h-56v700h413v-42h-357z" />
    <glyph glyph-name="afii10021" unicode="&#x414;" horiz-adv-x="853" 
d="M90 -168h-45v210h86q45 52 68 108q23 54 36 184q14 135 14 366h433v-658h126l-8 -210h-44l-4 168h-654zM626 658h-323q0 -295 -22 -412q-21 -119 -91 -204h436v616z" />
    <glyph glyph-name="afii10022" unicode="&#x415;" horiz-adv-x="642" 
d="M557 42v-42h-465v700h465v-42h-409v-276h384v-41h-384v-299h409z" />
    <glyph glyph-name="afii10024" unicode="&#x416;" horiz-adv-x="945" 
d="M347 384h98v316h56v-316h97l218 316h63l-234 -340l254 -360h-64l-238 336h-96v-336h-56v336h-97l-237 -336h-64l254 360l-234 340h63z" />
    <glyph glyph-name="afii10025" unicode="&#x417;" horiz-adv-x="658" 
d="M260 341l-68 2v37l55 2q135 1 185 32q51 30 51 108q0 82 -41 111q-40 30 -150 30q-108 0 -210 -46v38q94 50 222 50q136 0 185 -37q50 -38 50 -142q0 -71 -31 -109t-103 -53v-3q84 -13 121.5 -54.5t37.5 -122.5q0 -111 -52 -150t-194 -39q-139 0 -236 52v38
q104 -48 220 -48q119 0 162 31q44 32 44 120q0 87 -53 119q-54 33 -195 34z" />
    <glyph glyph-name="afii10026" unicode="&#x418;" horiz-adv-x="723" 
d="M574 611l-426 -611h-56v700h56v-611l426 611h56v-700h-56v611z" />
    <glyph glyph-name="afii10027" unicode="&#x419;" horiz-adv-x="723" 
d="M493 897h49q-16 -56 -57 -79t-123 -23t-123.5 23t-56.5 79h49q14 -34 45 -48.5t86 -14.5t86 14.5t45 48.5zM574 611l-426 -611h-56v700h56v-611l426 611h56v-700h-56v611z" />
    <glyph glyph-name="afii10028" unicode="&#x41a;" horiz-adv-x="641" 
d="M92 700h56v-316h120l243 316h66l-263 -340l282 -360h-65l-264 336h-119v-336h-56v700z" />
    <glyph glyph-name="afii10029" unicode="&#x41b;" horiz-adv-x="720" 
d="M629 700v-700h-56v658h-327q0 -218 -12 -333q-10 -113 -41 -188q-29 -74 -92 -145l-46 17q39 49 44 56q17 22 35 60.5t26 76.5q36 177 32 498h437z" />
    <glyph glyph-name="afii10030" unicode="&#x41c;" horiz-adv-x="846" 
d="M148 594v-594h-56v700h56l273 -492h5l272 492h56v-700h-56v594l-261 -469h-28z" />
    <glyph glyph-name="afii10031" unicode="&#x41d;" horiz-adv-x="709" 
d="M148 339v-339h-56v700h56v-319h413v319h56v-700h-56v339h-413z" />
    <glyph glyph-name="afii10032" unicode="&#x41e;" horiz-adv-x="766" 
d="M89 350q2 108 15 173t47 107t87 57.5t141 17.5q167 0 229 -75q62 -74 62 -280q0 -202 -62 -279q-61 -76 -229 -76q-167 0 -228 76q-62 77 -62 279zM145 350q0 -178 50 -246q49 -67 184 -67q136 0 185 67q50 68 50 246q0 182 -50 247q-50 66 -185 66q-136 0 -185 -66
q-49 -64 -49 -247z" />
    <glyph glyph-name="afii10033" unicode="&#x41f;" horiz-adv-x="722" 
d="M148 658v-658h-56v700h537v-700h-56v658h-425z" />
    <glyph glyph-name="afii10034" unicode="&#x420;" horiz-adv-x="652" 
d="M148 0h-56v700h163q175 0 239 -43t64 -163q0 -117 -65 -161t-238 -44h-107v-289zM502 494q0 96 -52 130t-195 34h-107v-327h107q141 0 194 35t53 128z" />
    <glyph glyph-name="afii10035" unicode="&#x421;" horiz-adv-x="667" 
d="M89 350q2 108 13.5 173.5t43 107t79 57t127.5 17.5q135 0 233 -58v-39q-101 55 -213 55q-131 0 -179 -66q-48 -65 -48 -247q0 -178 48 -246q49 -67 179 -67q109 0 213 56v-38q-97 -60 -233 -60q-152 0 -207 76q-56 77 -56 279z" />
    <glyph glyph-name="afii10036" unicode="&#x422;" horiz-adv-x="702" 
d="M323 658h-258v42h572v-42h-258v-658h-56v658z" />
    <glyph glyph-name="afii10037" unicode="&#x423;" horiz-adv-x="741" 
d="M356 200h-23l-266 500h58l241 -450h8l242 450h58l-342 -641q-30 -64 -128 -64q-80 0 -133 34v37q56 -29 115 -29q81 0 108 55z" />
    <glyph glyph-name="afii10038" unicode="&#x424;" horiz-adv-x="840" 
d="M448 67v-67h-56v67q-174 0 -238 61q-65 62 -65 222q0 165 64 223q65 60 239 60v67h56v-67q174 0 239 -60q64 -58 64 -223q0 -161 -65 -223q-64 -60 -238 -60zM695 350q0 141 -52 190q-53 51 -195 51v-482q142 0 194 51q53 53 53 190zM392 109v482q-142 0 -195 -51
q-52 -49 -52 -190q0 -137 53 -190q53 -51 194 -51z" />
    <glyph glyph-name="afii10039" unicode="&#x425;" horiz-adv-x="697" 
d="M574 700h65l-255 -347l255 -353h-63l-226 315h-4l-226 -315h-63l255 353l-253 347h64l223 -311h4z" />
    <glyph glyph-name="afii10040" unicode="&#x426;" horiz-adv-x="770" 
d="M673 0h-581v700h56v-658h399v658h56v-658h126l-12 -210h-44v168z" />
    <glyph glyph-name="afii10041" unicode="&#x427;" horiz-adv-x="686" 
d="M538 700h56v-700h-56v330q-88 -59 -211 -59q-136 0 -188 50q-50 52 -50 186v195h56v-195q0 -113 42 -153q44 -41 159 -41q98 0 192 56v331z" />
    <glyph glyph-name="afii10042" unicode="&#x428;" horiz-adv-x="968" 
d="M876 0h-784v700h56v-658h308v658h57v-658h307v658h56v-700z" />
    <glyph glyph-name="afii10043" unicode="&#x429;" horiz-adv-x="1043" 
d="M945 0h-853v700h56v-658h308v658h57v-658h307v658h56v-658h126l-12 -210h-45v168z" />
    <glyph glyph-name="afii10044" unicode="&#x42a;" horiz-adv-x="825" 
d="M257 658h-192v42h248v-286h115q174 0 238 -45q66 -45 66 -162q0 -120 -65 -164q-64 -43 -239 -43h-171v658zM675 207q0 94 -53 129q-52 36 -194 36h-115v-330h115q143 0 195 34t52 131z" />
    <glyph glyph-name="afii10045" unicode="&#x42b;" horiz-adv-x="832" 
d="M263 0h-171v700h56v-286h115q173 0 238 -45q66 -45 66 -162q0 -120 -65 -164q-64 -43 -239 -43zM510 207q0 94 -53 129q-52 36 -194 36h-115v-330h115q143 0 195 34t52 131zM683 700h56v-700h-56v700z" />
    <glyph glyph-name="afii10046" unicode="&#x42c;" horiz-adv-x="660" 
d="M263 0h-171v700h56v-286h115q173 0 238 -45q66 -45 66 -162q0 -120 -65 -164q-64 -43 -239 -43zM510 207q0 94 -53 129q-52 36 -194 36h-115v-330h115q143 0 195 34t52 131z" />
    <glyph glyph-name="afii10047" unicode="&#x42d;" horiz-adv-x="670" 
d="M581 350q0 -202 -57 -279q-55 -76 -207 -76q-137 0 -235 60v38q104 -56 214 -56q130 0 178 64q49 64 51 238h-332v42h331q-3 164 -52 222q-50 60 -176 60q-113 0 -214 -55v39q98 58 235 58q153 0 208 -75q56 -74 56 -280z" />
    <glyph glyph-name="afii10048" unicode="&#x42e;" horiz-adv-x="918" 
d="M148 339v-339h-56v700h56v-319h180q3 187 56 255q52 69 191 69q75 -2 120 -17.5t74 -57t40 -107t13 -173.5q0 -202 -53 -279q-52 -76 -194 -76q-140 0 -193 74q-52 73 -54 270h-180zM384 350q0 -178 41 -246q40 -67 150 -67t150 67q41 68 41 246q0 180 -41 247
q-41 66 -150 66q-111 0 -151 -66q-40 -65 -40 -247z" />
    <glyph glyph-name="afii10049" unicode="&#x42f;" horiz-adv-x="648" 
d="M390 700h166v-700h-56v297h-110q-47 0 -59 1l-208 -298h-64l216 303q-104 12 -147 56q-42 45 -42 139q0 118 64 160t240 42zM142 498q0 -90 53 -125q52 -34 195 -34h110v319h-110q-144 0 -196 -34q-52 -33 -52 -126z" />
    <glyph glyph-name="afii10065" unicode="&#x430;" horiz-adv-x="547" 
d="M410 293v37q0 77 -28 105t-106 28q-89 0 -173 -42v41q79 43 191 43q98 0 134 -38t36 -137v-330h-46l-8 49q-68 -54 -167 -54q-93 0 -128.5 28t-35.5 100q0 83 44 115q46 32 171 44zM410 81v170l-116 -11q-97 -9 -131 -33q-35 -24 -35 -82q0 -49 28 -68.5t102 -19.5
q81 0 152 44z" />
    <glyph glyph-name="afii10066" unicode="&#x431;" horiz-adv-x="602" 
d="M313 679q-90 0 -130 -49q-39 -47 -47 -175q68 50 178 50q118 0 162 -54q43 -52 43 -201q0 -145 -47 -201q-47 -54 -173 -54q-127 0 -174 75q-46 76 -46 279q2 151 23 227.5t69.5 109t144.5 35.5q88 0 171 42v-41q-71 -43 -174 -43zM298 463q-95 0 -163 -49q-2 -26 -2 -65
q0 -178 35 -246q36 -66 131 -66q97 0 131 45q35 46 35 168q0 124 -35 168q-34 45 -132 45z" />
    <glyph glyph-name="afii10067" unicode="&#x432;" horiz-adv-x="556" 
d="M256 0h-174v500h151q129 0 175 -27q47 -27 47 -99q0 -46 -20 -72.5t-64 -38.5v-4q56 -11 81 -40.5t25 -83.5q0 -77 -47 -106t-174 -29zM256 238h-119v-196h119q96 0 131 21q36 21 36 77q0 58 -36 77q-35 21 -131 21zM234 458h-97v-179h114q86 0 119 20t33 70q0 51 -36 70
q-35 19 -133 19z" />
    <glyph glyph-name="afii10068" unicode="&#x433;" horiz-adv-x="468" 
d="M137 458v-458h-55v500h331v-42h-276z" />
    <glyph glyph-name="afii10069" unicode="&#x434;" horiz-adv-x="661" 
d="M83 -156h-42v198h65q32 36 49 77q38 86 38 381h342v-458h93l-9 -198h-42l-3 156h-482zM481 458h-237q0 -184 -17 -274q-17 -86 -65 -142h319v416z" />
    <glyph glyph-name="afii10070" unicode="&#x435;" horiz-adv-x="580" 
d="M503 257v-29h-370q2 -109 40 -150q39 -41 139 -41q94 0 177 40v-40q-79 -42 -193 -42q-124 0 -171 54q-46 55 -46 201q0 148 47 201q46 54 174 54q117 0 160 -52t43 -196zM133 269h320q0 113 -33 153q-32 41 -120 41q-94 0 -130 -41q-35 -40 -37 -153z" />
    <glyph glyph-name="afii10072" unicode="&#x436;" horiz-adv-x="821" 
d="M298 284h86v216h54v-216h85l156 216h62l-174 -240l193 -260h-63l-175 236h-84v-236h-54v236h-85l-174 -236h-63l192 260l-174 240h63z" />
    <glyph glyph-name="afii10073" unicode="&#x437;" horiz-adv-x="529" 
d="M229 239h-67v39h61q87 0 121 20.5t34 72.5t-29 72t-106 20q-85 0 -163 -37v41q78 38 180 38q98 0 133 -28q37 -27 37 -101q0 -47 -18.5 -73.5t-60.5 -39.5v-4q51 -11 75 -41.5t24 -84.5q0 -79 -42 -109q-41 -29 -151 -29q-103 0 -177 39v40q77 -37 161 -37q89 0 122 21
t33 79q0 59 -36 80q-34 22 -131 22z" />
    <glyph glyph-name="afii10074" unicode="&#x438;" horiz-adv-x="589" 
d="M453 419l-316 -419h-55v500h55v-420l316 420h54v-500h-54v419z" />
    <glyph glyph-name="afii10075" unicode="&#x439;" horiz-adv-x="589" 
d="M411 686h48q-14 -50 -51.5 -70.5t-112.5 -20.5t-113 20.5t-52 70.5h49q22 -52 116 -52q91 0 116 52zM453 419l-316 -419h-55v500h55v-420l316 420h54v-500h-54v419z" />
    <glyph glyph-name="afii10076" unicode="&#x43a;" horiz-adv-x="523" 
d="M82 500h55v-216h86l170 216h63l-189 -240l207 -260h-62l-190 236h-85v-236h-55v500z" />
    <glyph glyph-name="afii10077" unicode="&#x43b;" horiz-adv-x="567" 
d="M485 500v-500h-54v458h-233q0 -214 -23 -308q-23 -91 -94 -158l-42 17q22 25 40 49q11 13 29 53q17 38 23 82q16 108 16 307h338z" />
    <glyph glyph-name="afii10078" unicode="&#x43c;" horiz-adv-x="700" 
d="M137 405v-405h-55v500h55l210 -367h6l210 367h54v-500h-54v405l-199 -346h-29z" />
    <glyph glyph-name="afii10079" unicode="&#x43d;" horiz-adv-x="569" 
d="M137 239v-239h-55v500h55v-219h296v219h54v-500h-54v239h-296z" />
    <glyph glyph-name="afii10080" unicode="&#x43e;" horiz-adv-x="600" 
d="M79 250q0 148 47 201q46 54 174 54t174 -54q47 -53 47 -201q0 -145 -47 -201q-46 -54 -174 -54t-174 54q-47 56 -47 201zM133 250q0 -121 35 -168q36 -45 132 -45t131 45q36 46 36 168q0 124 -36 168q-35 45 -131 45t-132 -45q-35 -44 -35 -168z" />
    <glyph glyph-name="afii10081" unicode="&#x43f;" horiz-adv-x="576" 
d="M137 458v-458h-55v500h411v-500h-54v458h-302z" />
    <glyph glyph-name="afii10082" unicode="&#x440;" horiz-adv-x="583" 
d="M82 500h47q5 -32 8 -49q68 49 162 52q46 2 75 -4q73 -12 102 -68t29 -181q0 -127 -29 -183q-28 -55 -102 -67q-42 -5 -80 -2q-87 3 -157 44v-267h-55v725zM137 420v-340q73 -43 155 -43q92 0 125 44q34 44 34 169q0 123 -34 167q-34 46 -125 46q-82 0 -155 -43z" />
    <glyph glyph-name="afii10083" unicode="&#x441;" horiz-adv-x="539" 
d="M79 250q0 149 43 201q44 54 162 54q106 0 183 -42v-40q-83 40 -166 40q-97 0 -133 -45q-35 -44 -35 -168q0 -121 35 -168q36 -45 133 -45q87 0 166 40v-39q-76 -43 -183 -43q-118 0 -162 54q-43 55 -43 201z" />
    <glyph glyph-name="afii10084" unicode="&#x442;" horiz-adv-x="546" 
d="M246 458h-191v42h435v-42h-190v-458h-54v458z" />
    <glyph glyph-name="afii10085" unicode="&#x443;" horiz-adv-x="611" 
d="M75 -218v43q30 -10 68 -10q36 0 55.5 11.5t31.5 39.5l61 134h-22l-217 500h58l191 -452h8l191 452h58l-288 -661q-15 -37 -40.5 -52.5t-72.5 -15.5t-82 11z" />
    <glyph glyph-name="afii10086" unicode="&#x444;" horiz-adv-x="815" 
d="M380 750h55v-299q59 54 140 54q93 0 127 -55q34 -53 34 -200q0 -149 -34 -202q-35 -53 -127 -53q-79 0 -140 47v-267h-55v274q-58 -54 -140 -54q-92 0 -127 54q-34 55 -34 201q0 149 34 201q35 54 127 54q79 0 140 -47v292zM435 420v-340q58 -43 121 -43q74 0 100 44
q26 46 26 169t-27 168q-25 45 -99 45q-63 0 -121 -43zM380 80v340q-58 43 -121 43q-73 0 -100 -45q-26 -44 -26 -168q0 -121 26 -168q27 -45 100 -45q63 0 121 43z" />
    <glyph glyph-name="afii10087" unicode="&#x445;" horiz-adv-x="558" 
d="M440 500h62l-189 -247l190 -253h-60l-163 218h-4l-163 -218h-60l189 253l-188 247h62l160 -213h4z" />
    <glyph glyph-name="afii10088" unicode="&#x446;" horiz-adv-x="633" 
d="M547 0h-465v500h55v-458h302v458h54v-458h107l-6 -99l-5 -99h-42v156z" />
    <glyph glyph-name="afii10089" unicode="&#x447;" horiz-adv-x="569" 
d="M82 500h55v-119q0 -89 26 -123q26 -32 101 -32q86 0 168 44v230h54v-500h-54v238q-80 -54 -185 -54q-94 0 -130 39q-35 41 -35 146v131z" />
    <glyph glyph-name="afii10090" unicode="&#x448;" horiz-adv-x="829" 
d="M746 0h-664v500h55v-458h251v458h54v-458h250v458h54v-500z" />
    <glyph glyph-name="afii10091" unicode="&#x449;" horiz-adv-x="886" 
d="M800 0h-718v500h55v-458h251v458h54v-458h250v458h54v-458h107l-6 -99l-5 -99h-42v156z" />
    <glyph glyph-name="afii10092" unicode="&#x44a;" horiz-adv-x="663" 
d="M210 458h-155v42h209v-203h99q128 0 174 -31q47 -32 47 -118q0 -84 -48 -116q-47 -32 -173 -32h-153v458zM363 256h-99v-214h99q97 0 131 22q36 22 36 84t-36 85q-35 23 -131 23z" />
    <glyph glyph-name="afii10093" unicode="&#x44b;" horiz-adv-x="699" 
d="M236 0h-154v500h55v-203h99q128 0 174 -31q47 -32 47 -118q0 -84 -48 -116q-47 -32 -173 -32zM236 256h-99v-214h99q97 0 131 22q36 22 36 84t-36 85q-35 23 -131 23zM563 500h54v-500h-54v500z" />
    <glyph glyph-name="afii10094" unicode="&#x44c;" horiz-adv-x="536" 
d="M236 0h-154v500h55v-203h99q128 0 174 -31q47 -32 47 -118q0 -84 -48 -116q-47 -32 -173 -32zM236 256h-99v-214h99q97 0 131 22q36 22 36 84t-36 85q-35 23 -131 23z" />
    <glyph glyph-name="afii10095" unicode="&#x44d;" horiz-adv-x="545" 
d="M466 250q0 -145 -44 -201q-44 -54 -162 -54q-106 0 -182 43v39q79 -40 165 -40q95 0 131 43t37 158h-250v41h250q-3 106 -39 145t-128 39q-83 0 -166 -40v40q76 42 182 42q118 0 162 -54q44 -53 44 -201z" />
    <glyph glyph-name="afii10096" unicode="&#x44e;" horiz-adv-x="773" 
d="M137 239v-239h-55v500h55v-219h153q5 131 47 176q43 48 155 48q117 0 159 -54q43 -52 43 -201q0 -146 -43 -201q-43 -54 -159 -54q-114 0 -157 52q-43 53 -45 192h-153zM345 250q0 -122 31 -168q31 -45 116 -45q84 0 116 45q32 47 32 168q0 125 -31 168q-31 45 -117 45
q-85 0 -116 -45q-31 -43 -31 -168z" />
    <glyph glyph-name="afii10097" unicode="&#x44f;" horiz-adv-x="528" 
d="M268 207l-151 -207h-58l156 211q-75 8 -105.5 40.5t-30.5 102.5q0 82 47 114t174 32h155v-500h-54v207h-101h-32zM300 247h101v211h-101q-95 0 -132 -23q-35 -23 -35 -82q0 -61 35 -84q35 -22 132 -22z" />
    <glyph glyph-name="uni0450" unicode="&#x450;" horiz-adv-x="580" 
d="M503 257v-29h-370q2 -109 40 -150q39 -41 139 -41q94 0 177 40v-40q-79 -42 -193 -42q-124 0 -171 54q-46 55 -46 201q0 148 47 201q46 54 174 54q117 0 160 -52t43 -196zM133 269h320q0 113 -33 153q-32 41 -120 41q-94 0 -130 -41q-35 -40 -37 -153zM381 623l-25 -30
l-152 142l25 29z" />
    <glyph glyph-name="afii10071" unicode="&#x451;" horiz-adv-x="580" 
d="M152 682h51v-89h-51v89zM382 682h51v-89h-51v89zM503 257v-29h-370q2 -109 40 -150q39 -41 139 -41q94 0 177 40v-40q-79 -42 -193 -42q-124 0 -171 54q-46 55 -46 201q0 148 47 201q46 54 174 54q117 0 160 -52t43 -196zM133 269h320q0 113 -33 153q-32 41 -120 41
q-94 0 -130 -41q-35 -40 -37 -153z" />
    <glyph glyph-name="afii10099" unicode="&#x452;" horiz-adv-x="578" 
d="M84 614h-72v32l72 9l12 95h42v-95h257v-41h-257v-157q82 48 189 48q97 0 132 -41q36 -41 36 -149v-381q0 -94 -32 -129t-117 -35q-59 0 -101 11v42q35 -9 82 -9q66 0 90 26q24 25 24 95v380q0 85 -27 117q-27 31 -103 31q-90 0 -173 -43v-420h-54v614z" />
    <glyph glyph-name="afii10100" unicode="&#x453;" horiz-adv-x="468" 
d="M171 593l-25 30l152 141l25 -29zM137 458v-458h-55v500h331v-42h-276z" />
    <glyph glyph-name="afii10101" unicode="&#x454;" horiz-adv-x="529" 
d="M79 250q0 148 41 201q42 54 155 54q103 0 176 -42v-40q-79 40 -158 40q-87 0 -122 -39q-34 -38 -37 -145h279v-41h-280q2 -116 35 -158q34 -43 126 -43q81 0 157 40v-39q-73 -43 -176 -43q-112 0 -154 54q-42 55 -42 201z" />
    <glyph glyph-name="afii10102" unicode="&#x455;" horiz-adv-x="511" 
d="M129 374q0 -71 107 -94q28 -6 39 -8.5t37 -9.5t38.5 -13.5t31 -18t27.5 -24.5t16 -32t7 -42q0 -77 -39 -107t-143 -30q-102 0 -174 35v41q71 -34 157 -34q83 0 114 20t31 73q0 74 -107 97q-4 1 -13 3q-34 8 -52 13t-47.5 16.5t-44.5 25t-27 36t-12 51.5q0 75 36 104
q38 29 133 29q100 0 166 -33v-40q-66 31 -148 31q-76 0 -104.5 -19.5t-28.5 -69.5z" />
    <glyph glyph-name="afii10103" unicode="&#x456;" horiz-adv-x="229" 
d="M82 500h55v-395q0 -32 6 -50q8 -18 28 -46l-45 -17q-29 34 -37 66q-7 29 -7 107v335zM82 700h55v-89h-55v89z" />
    <glyph glyph-name="afii10104" unicode="&#x457;" horiz-adv-x="229" 
d="M82 500h55v-395q0 -32 6 -50q8 -18 28 -46l-45 -17q-29 34 -37 66q-7 29 -7 107v335zM1 700h46v-89h-46v89zM172 700h46v-89h-46v89z" />
    <glyph glyph-name="afii10105" unicode="&#x458;" horiz-adv-x="269" 
d="M132 500h55v-566q0 -94 -32 -129t-118 -35q-59 0 -101 11v42q36 -9 83 -9q66 0 89.5 26t23.5 95v565zM132 700h55v-89h-55v89z" />
    <glyph glyph-name="afii10106" unicode="&#x459;" horiz-adv-x="892" 
d="M592 0h-153v458h-241q0 -214 -23 -308q-23 -91 -94 -158l-42 17q22 25 40 49q11 13 29 53q17 38 23 82q16 108 16 307h346v-203h99q128 0 174 -31q47 -32 47 -118q0 -84 -47 -116t-174 -32zM592 256h-99v-214h99q97 0 131 22q36 22 36 84t-36 85q-35 23 -131 23z" />
    <glyph glyph-name="afii10107" unicode="&#x45a;" horiz-adv-x="886" 
d="M586 0h-153v239h-296v-239h-55v500h55v-219h296v219h54v-203h99q128 0 174 -31q47 -32 47 -118q0 -84 -47 -116t-174 -32zM586 256h-99v-214h99q97 0 131 22q36 22 36 84t-36 85q-35 23 -131 23z" />
    <glyph glyph-name="afii10108" unicode="&#x45b;" horiz-adv-x="578" 
d="M84 614h-72v32l72 9l12 95h42v-95h257v-41h-257v-157q82 48 189 48q97 0 132 -41q36 -41 36 -149v-315h-54v315q0 85 -27 117q-27 31 -103 31q-90 0 -173 -43v-420h-54v614z" />
    <glyph glyph-name="afii10109" unicode="&#x45c;" horiz-adv-x="523" 
d="M82 500h55v-216h86l170 216h63l-189 -240l207 -260h-62l-190 236h-85v-236h-55v500zM198 593l-25 30l152 141l25 -29z" />
    <glyph glyph-name="uni045D" unicode="&#x45d;" horiz-adv-x="589" 
d="M453 419l-316 -419h-55v500h55v-420l316 420h54v-500h-54v419zM383 623l-25 -30l-152 142l25 29z" />
    <glyph glyph-name="afii10110" unicode="&#x45e;" horiz-adv-x="611" 
d="M75 -218v43q30 -10 68 -10q36 0 55.5 11.5t31.5 39.5l61 134h-22l-217 500h58l191 -452h8l191 452h58l-288 -661q-15 -37 -40.5 -52.5t-72.5 -15.5t-82 11zM422 717h48q-14 -50 -51.5 -70.5t-112.5 -20.5q-76 0 -113.5 20.5t-51.5 70.5h49q23 -53 116 -53q92 0 116 53z
" />
    <glyph glyph-name="afii10193" unicode="&#x45f;" horiz-adv-x="576" 
d="M263 0h-181v500h55v-458h302v458h54v-500h-180l-4 -78l-3 -78h-43v156z" />
    <glyph glyph-name="afii10050" unicode="&#x490;" horiz-adv-x="554" 
d="M487 658h-339v-658h-56v700h341v100h54v-142z" />
    <glyph glyph-name="afii10098" unicode="&#x491;" horiz-adv-x="468" 
d="M405 458h-268v-458h-55v500h273v125h50v-167z" />
    <glyph glyph-name="uni04D8" unicode="&#x4d8;" horiz-adv-x="740" 
d="M89 350v31h499q-5 161 -56 221q-51 61 -184 61q-116 0 -224 -57v38q103 61 244 61q159 0 217 -76q59 -77 59 -279t-60 -279q-58 -76 -218 -76q-158 0 -218 76q-59 77 -59 279zM588 339h-445q2 -174 48 -238q48 -64 174 -64q128 0 174 64q47 64 49 238z" />
    <glyph glyph-name="afii10846" unicode="&#x4d9;" horiz-adv-x="585" 
d="M82 242v29h371q-1 109 -42 150q-41 42 -142 42q-95 0 -183 -42v40q82 44 198 44q128 0 174 -55q48 -54 48 -200q0 -147 -47 -202q-47 -53 -174 -53q-117 0 -160 52t-43 195zM453 229h-320q0 -111 32 -152q33 -40 122 -40q95 0 129 40q35 40 37 152z" />
    <glyph glyph-name="Wgrave" unicode="&#x1e80;" horiz-adv-x="1141" 
d="M848 0h-80l-194 631h-7l-193 -631h-80l-231 700h59l207 -638h7l196 638h77l196 -638h7l207 638h59zM659 775l-25 -30l-152 142l25 29z" />
    <glyph glyph-name="wgrave" unicode="&#x1e81;" horiz-adv-x="888" 
d="M663 0h-74l-142 438h-6l-142 -438h-74l-173 500h58l148 -445h7l143 445h71l144 -445h7l148 445h58zM532 623l-25 -30l-152 142l25 29z" />
    <glyph glyph-name="Wacute" unicode="&#x1e82;" horiz-adv-x="1141" 
d="M848 0h-80l-194 631h-7l-193 -631h-80l-231 700h59l207 -638h7l196 638h77l196 -638h7l207 638h59zM507 745l-25 30l152 141l25 -29z" />
    <glyph glyph-name="wacute" unicode="&#x1e83;" horiz-adv-x="888" 
d="M663 0h-74l-142 438h-6l-142 -438h-74l-173 500h58l148 -445h7l143 445h71l144 -445h7l148 445h58zM380 593l-25 30l152 141l25 -29z" />
    <glyph glyph-name="Wdieresis" unicode="&#x1e84;" horiz-adv-x="1141" 
d="M848 0h-80l-194 631h-7l-193 -631h-80l-231 700h59l207 -638h7l196 638h77l196 -638h7l207 638h59zM428 839h50v-87h-50v87zM663 839h49v-87h-49v87z" />
    <glyph glyph-name="wdieresis" unicode="&#x1e85;" horiz-adv-x="888" 
d="M663 0h-74l-142 438h-6l-142 -438h-74l-173 500h58l148 -445h7l143 445h71l144 -445h7l148 445h58zM302 700h50v-87h-50v87zM537 700h49v-87h-49v87z" />
    <glyph glyph-name="Ygrave" unicode="&#x1ef2;" horiz-adv-x="698" 
d="M377 0h-56v281l-261 419h57l230 -367h4l231 367h58l-263 -419v-281zM437 775l-25 -30l-152 142l25 29z" />
    <glyph glyph-name="ygrave" unicode="&#x1ef3;" horiz-adv-x="611" 
d="M75 -218v43q30 -10 68 -10q36 0 55.5 11.5t31.5 39.5l61 134h-22l-217 500h58l191 -452h8l191 452h58l-288 -661q-15 -37 -40.5 -52.5t-72.5 -15.5t-82 11zM393 623l-25 -30l-152 142l25 29z" />
    <glyph glyph-name="endash" unicode="&#x2013;" 
d="M485 289h-403v42h403v-42z" />
    <glyph glyph-name="emdash" unicode="&#x2014;" horiz-adv-x="835" 
d="M753 289h-671v42h671v-42z" />
    <glyph glyph-name="quoteleft" unicode="&#x2018;" horiz-adv-x="225" 
d="M133 598v-119h-51v108q0 42 9.5 68t34.5 56q4 -1 20.5 -8t21.5 -9q-21 -26 -29 -46q-6 -18 -6 -50z" />
    <glyph glyph-name="quoteright" unicode="&#x2019;" horiz-adv-x="225" 
d="M92 581v119h51v-108q0 -42 -9.5 -68t-34.5 -56q-9 3 -41 17q21 29 27 46q7 17 7 50z" />
    <glyph glyph-name="quotesinglbase" unicode="&#x201a;" horiz-adv-x="225" 
d="M92 -22v118h51v-107q0 -42 -9.5 -68.5t-34.5 -56.5q-38 16 -41 17q22 28 28 46t6 51z" />
    <glyph glyph-name="quotedblleft" unicode="&#x201c;" horiz-adv-x="361" 
d="M129 598v-119h-50v108q0 41 9.5 67.5t33.5 56.5q5 -1 21.5 -8t20.5 -9q-21 -26 -29 -46q-6 -18 -6 -50zM269 598v-119h-50v108q0 41 9.5 67.5t33.5 56.5q4 -1 20.5 -8t21.5 -9q-21 -26 -29 -46q-6 -18 -6 -50z" />
    <glyph glyph-name="quotedblright" unicode="&#x201d;" horiz-adv-x="361" 
d="M92 581v119h51v-108q0 -42 -9.5 -68t-34.5 -56q-9 3 -41 17q21 29 27 46q7 17 7 50zM229 581v119h50v-108q0 -42 -9.5 -68t-34.5 -56q-28 11 -41 17q21 27 28 47q7 17 7 49z" />
    <glyph glyph-name="quotedblbase" unicode="&#x201e;" horiz-adv-x="361" 
d="M92 -22v118h51v-107q0 -42 -9.5 -68.5t-34.5 -56.5q-38 16 -41 17q22 28 28 46t6 51zM229 -22v118h50v-107q0 -42 -9.5 -68.5t-34.5 -56.5l-41 17q22 30 28.5 47.5t6.5 49.5z" />
    <glyph glyph-name="dagger" unicode="&#x2020;" horiz-adv-x="486" 
d="M216 472h-174v42h174v236h54v-236h175v-42h-175v-572h-54v572z" />
    <glyph glyph-name="daggerdbl" unicode="&#x2021;" horiz-adv-x="486" 
d="M270 178h175v-42h-175v-236h-54v236h-174v42h174v294h-174v42h174v236h54v-236h175v-42h-175v-294z" />
    <glyph glyph-name="bullet" unicode="&#x2022;" horiz-adv-x="400" 
d="M104 202q-25 25 -25 98t25 98q26 26 96 26q69 0 95 -26t26 -98t-26 -98t-95 -26q-70 0 -96 26z" />
    <glyph glyph-name="ellipsis" unicode="&#x2026;" horiz-adv-x="638" 
d="M82 96h51v-96h-51v96zM294 96h50v-96h-50v96zM505 96h51v-96h-51v96z" />
    <glyph glyph-name="perthousand" unicode="&#x2030;" horiz-adv-x="1272" 
d="M602 700h50l-372 -700h-50zM528 26q-33 32 -33 117t33 116q32 31 121 31t121 -31q33 -31 33 -116t-33 -117q-32 -31 -121 -31t-121 31zM563 226q-23 -23 -23 -83q0 -61 23 -84q23 -22 86 -22t85 22q24 23 24 84q0 60 -23 83t-86 23t-86 -23zM79 557q0 85 32 117
q32 31 122 31q89 0 121 -31q33 -32 33 -117t-33 -116q-32 -31 -121 -31t-121 31q-33 31 -33 116zM233 451q62 0 85.5 22.5t23.5 83.5t-23 83.5t-86 22.5t-86 -22.5t-23 -83.5t23 -83.5t86 -22.5zM918 26q-33 32 -33 117t33 116q32 31 121 31t121 -31q33 -31 33 -116
t-33 -117q-32 -31 -121 -31t-121 31zM953 226q-23 -23 -23 -83q0 -61 23 -84q23 -22 86 -22t85 22q24 23 24 84q0 60 -23 83t-86 23t-86 -23z" />
    <glyph glyph-name="guilsinglleft" unicode="&#x2039;" horiz-adv-x="329" 
d="M211 425h61l-147 -175l147 -175h-59l-145 175z" />
    <glyph glyph-name="guilsinglright" unicode="&#x203a;" horiz-adv-x="329" 
d="M128 75h-61l147 175l-147 175h59l145 -175z" />
    <glyph glyph-name="fraction" unicode="&#x2044;" horiz-adv-x="669" 
d="M568 800h38l-505 -950h-39z" />
    <glyph glyph-name="zerosuperior" unicode="&#x2070;" horiz-adv-x="300" 
d="M36 550q0 89 23 121q24 32 89 32t89 -32q24 -31 24 -121q0 -88 -24 -121q-24 -32 -89 -32q-64 0 -88 32q-24 33 -24 121zM72 550q0 -72 16 -98t60 -26t60.5 26.5t16.5 97.5t-16.5 97.5t-60.5 26.5t-60 -26t-16 -98z" />
    <glyph glyph-name="foursuperior" unicode="&#x2074;" horiz-adv-x="286" 
d="M226 400h-36v47h-163v29l138 224h61v-224h31v-29h-31v-47zM188 671l-127 -195h129v195h-2z" />
    <glyph glyph-name="fivesuperior" unicode="&#x2075;" horiz-adv-x="255" 
d="M73 552h-33l5 74l6 75h158v-29h-125q-4 -35 -4 -45t-4 -45h41q61 0 83.5 -20.5t22.5 -73.5q0 -52 -22 -71.5t-82 -19.5q-54 0 -90 18v25q39 -14 74 -14q48 0 66 13.5t18 50.5q0 40 -23 51q-24 11 -91 11z" />
    <glyph glyph-name="sixsuperior" unicode="&#x2076;" horiz-adv-x="286" 
d="M36 520q0 106 22 144q22 39 83 39q54 0 93 -17v-25q-25 8 -45 11q-14 2 -35 2q-57 -3 -71 -42q-9 -19 -10 -59q16 13 71 13q62 0 84.5 -20t22.5 -75q0 -54 -23 -74t-85 -20q-61 0 -84 26t-23 97zM72 520q0 -54 15 -74t56 -20t56.5 14t15.5 51q0 39 -15 52.5t-57 13.5
q-41 0 -56 -7.5t-15 -29.5z" />
    <glyph glyph-name="sevensuperior" unicode="&#x2077;" horiz-adv-x="260" 
d="M194 672h-169v28h209v-28l-124 -272h-38z" />
    <glyph glyph-name="eightsuperior" unicode="&#x2078;" horiz-adv-x="292" 
d="M45 627q0 44 21 60t78 16q58 0 79.5 -16t21.5 -60q0 -57 -42 -69v-1q27 -7 38.5 -25t11.5 -51q0 -48 -23 -66t-86 -18q-62 0 -85 18t-23 66q0 34 11.5 51.5t38.5 24.5v1q-23 7 -32 22.5t-9 46.5zM72 484q0 -33 15.5 -45.5t56.5 -12.5q42 0 57.5 12.5t15.5 45.5
q0 34 -15.5 46t-57.5 12t-57 -12t-15 -46zM80 622q0 -29 14 -40t50 -11q37 0 51 11t14 40q0 30 -14 41t-51 11t-50.5 -11t-13.5 -41z" />
    <glyph glyph-name="ninesuperior" unicode="&#x2079;" horiz-adv-x="282" 
d="M247 582q0 -106 -23 -146q-23 -39 -85 -39q-59 0 -95 17v25q21 -8 45 -11q12 -3 32 -1q48 2 67.5 24t21.5 78q-16 -13 -70 -13q-60 0 -82 19.5t-22 73.5t22.5 74t82.5 20q61 0 83.5 -26t22.5 -95zM210 582q0 52 -15 72q-14 20 -54 20q-39 0 -55 -14q-14 -14 -14 -51
t14.5 -50.5t53.5 -13.5q43 0 56.5 6.5t13.5 30.5z" />
    <glyph glyph-name="parenleftsuperior" unicode="&#x207d;" horiz-adv-x="146" 
d="M116 383v-29q-49 0 -67 39q-18 41 -18 147q0 107 18 146t67 39v-30q-29 0 -40 -32q-10 -30 -10 -123t10 -124q11 -33 40 -33z" />
    <glyph glyph-name="parenrightsuperior" unicode="&#x207e;" horiz-adv-x="173" 
d="M30 354v29q28 0 38 33q11 35 11 124q0 93 -10 123q-11 32 -39 32v30q49 0 67 -39t18 -146q0 -106 -18 -147q-18 -39 -67 -39z" />
    <glyph glyph-name="zeroinferior" unicode="&#x2080;" horiz-adv-x="300" 
d="M36 50q0 89 23 121q24 32 89 32t89 -32q24 -31 24 -121q0 -88 -24 -120q-24 -33 -89 -33q-64 0 -88 33q-24 32 -24 120zM72 50q0 -72 16 -98t60 -26t60.5 26.5t16.5 97.5t-16.5 97.5t-60.5 26.5t-60 -26t-16 -98z" />
    <glyph glyph-name="oneinferior" unicode="&#x2081;" horiz-adv-x="195" 
d="M18 142v33l65 25h36v-271h50v-29h-137v29h51v235q-7 -2 -32.5 -11t-32.5 -11z" />
    <glyph glyph-name="twoinferior" unicode="&#x2082;" horiz-adv-x="252" 
d="M222 -100h-189v30q0 34 15.5 56.5t37.5 34.5t44 23t37.5 30t15.5 48q0 31 -16 41q-16 11 -56 11q-41 0 -78 -15v28q33 16 92 16q54 0 74.5 -17.5t20.5 -63.5q0 -36 -15.5 -59t-37.5 -34t-44.5 -21.5t-38 -29t-15.5 -48.5h153v-30z" />
    <glyph glyph-name="threeinferior" unicode="&#x2083;" horiz-adv-x="255" 
d="M87 41l-25 3v25l19 2q54 2 72.5 12t18.5 39q0 30 -14 41t-51 11q-38 0 -74 -11v25q31 15 84 15t72 -16t19 -61q0 -57 -55 -69v-1q35 -7 49.5 -24.5t14.5 -51.5q0 -49 -19.5 -66t-74.5 -17q-58 0 -90 16v25q33 -12 76 -12q42 0 57.5 12t15.5 45t-19.5 44.5t-75.5 13.5z
" />
    <glyph glyph-name="fourinferior" unicode="&#x2084;" horiz-adv-x="286" 
d="M226 -100h-36v47h-163v29l138 224h61v-224h31v-29h-31v-47zM188 171l-127 -195h129v195h-2z" />
    <glyph glyph-name="fiveinferior" unicode="&#x2085;" horiz-adv-x="255" 
d="M99 52h-59l5 74l6 75h158v-29h-125q-4 -35 -4 -45t-4 -45h41q61 0 83.5 -20.5t22.5 -73.5q0 -52 -22 -71.5t-82 -19.5q-54 0 -90 18v25q43 -14 81 -13q44 1 60.5 14.5t16.5 48.5q0 36 -19 49t-69 13z" />
    <glyph glyph-name="sixinferior" unicode="&#x2086;" horiz-adv-x="286" 
d="M36 20q0 106 22 144q22 39 83 39q54 0 93 -17v-25q-25 8 -45 11q-14 2 -35 2q-57 -3 -71 -42q-9 -19 -10 -59q16 13 71 13q62 0 84.5 -20t22.5 -75q0 -54 -23 -74t-85 -20q-61 0 -84 26t-23 97zM72 20q0 -54 15 -74t56 -20t56.5 14t15.5 51q0 39 -15 52.5t-57 13.5
q-41 0 -56 -7.5t-15 -29.5z" />
    <glyph glyph-name="seveninferior" unicode="&#x2087;" horiz-adv-x="260" 
d="M194 172h-169v28h209v-28l-124 -272h-38z" />
    <glyph glyph-name="eightinferior" unicode="&#x2088;" horiz-adv-x="292" 
d="M45 127q0 44 21 60t78 16q58 0 79.5 -16t21.5 -60q0 -57 -42 -69v-1q27 -7 38.5 -25t11.5 -51q0 -48 -23 -66t-86 -18q-62 0 -85 18t-23 66q0 34 11.5 51.5t38.5 24.5v1q-23 7 -32 22.5t-9 46.5zM72 -16q0 -33 15.5 -45.5t56.5 -12.5q42 0 57.5 12.5t15.5 45.5
q0 34 -15.5 46t-57.5 12t-57 -12t-15 -46zM80 122q0 -29 14 -40t50 -11q37 0 51 11t14 40q0 30 -14 41t-51 11t-50.5 -11t-13.5 -41z" />
    <glyph glyph-name="nineinferior" unicode="&#x2089;" horiz-adv-x="282" 
d="M247 82q0 -106 -23 -146q-23 -39 -85 -39q-59 0 -95 17v25q21 -8 45 -11q12 -3 32 -1q48 2 67.5 24t21.5 78q-16 -13 -70 -13q-60 0 -82 19.5t-22 73.5t22.5 74t82.5 20q61 0 83.5 -26t22.5 -95zM210 82q0 52 -15 72q-14 20 -54 20q-39 0 -55 -14q-14 -14 -14 -51
t14.5 -50.5t53.5 -13.5q43 0 56.5 6.5t13.5 30.5z" />
    <glyph glyph-name="parenleftinferior" unicode="&#x208d;" horiz-adv-x="146" 
d="M116 -117v-29q-49 0 -67 40q-18 39 -18 146t18 146t67 39v-30q-29 0 -40 -32q-10 -30 -10 -123t10 -124q11 -33 40 -33z" />
    <glyph glyph-name="parenrightinferior" unicode="&#x208e;" horiz-adv-x="173" 
d="M30 -146v29q28 0 38 33q11 35 11 124q0 93 -10 123q-11 32 -39 32v30q49 0 67 -39t18 -146t-18 -146q-18 -40 -67 -40z" />
    <glyph glyph-name="Euro" unicode="&#x20ac;" horiz-adv-x="721" 
d="M145 261h-78v42h76q-1 10 -1 47t1 47h-76v42h78q11 151 67 208q58 58 193 58q136 0 233 -58v-39q-100 55 -213 55q-116 0 -165 -49q-49 -48 -58 -175h317v-42h-319q-2 -20 -2 -47t2 -47h319v-42h-317q9 -126 58 -175t165 -49q110 0 213 56v-38q-96 -60 -233 -60
q-134 0 -192 58q-57 57 -68 208z" />
    <glyph glyph-name="uni20B4" unicode="&#x20b4;" horiz-adv-x="634" 
d="M375 402h-296v35h349q67 46 67 103q0 71 -40 96q-39 27 -142 27t-194 -46v42q85 46 214 46q125 0 171 -37q47 -36 47 -129q0 -57 -52 -102h72v-35h-102q-32 -22 -108 -61l-84 -42h294v-34h-347q-69 -47 -69 -100q0 -72 41 -101q42 -27 151 -27t202 46v-39
q-88 -49 -222 -49q-130 0 -179 37t-49 134q0 52 53 99h-73v34h103q35 22 99 53q80 41 94 50z" />
    <glyph glyph-name="afii61352" unicode="&#x2116;" horiz-adv-x="1099" 
d="M638 700v-700h-55l-435 611v-611h-56v700h56l434 -611v611h56zM754 550q0 90 28 121q29 32 106 32q76 0 105 -32q28 -31 28 -121q0 -86 -29 -120q-28 -33 -104 -33q-78 0 -106 33q-28 32 -28 120zM793 550q0 -71 20 -97t75 -26t75 25.5t20 97.5q0 71 -20 97t-75 26
q-57 0 -76 -25t-19 -98z" />
    <glyph glyph-name="trademark" unicode="&#x2122;" horiz-adv-x="663" 
d="M133 671h-107v29h252v-29h-107v-271h-38v271zM361 622v-222h-38v300h38l109 -182h2l109 182h37v-300h-37v222l-103 -169h-14z" />
    <glyph glyph-name="minus" unicode="&#x2212;" 
d="M485 339h-403v42h403v-42z" />
    <glyph glyph-name="NULL" horiz-adv-x="0" 
 />
    <glyph glyph-name="CR" horiz-adv-x="333" 
 />
    <glyph glyph-name="AEacute.small" horiz-adv-x="739" 
d="M673 40v-40h-343v158h-153l-69 -158h-58l238 553h385v-40h-290v-207h270v-40h-270v-226h290zM330 498h-8l-134 -300h142v300zM338 593l-25 30l152 141l25 -29z" />
    <glyph glyph-name="AEsmall" horiz-adv-x="739" 
d="M673 40v-40h-343v158h-153l-69 -158h-58l238 553h385v-40h-290v-207h270v-40h-270v-226h290zM330 498h-8l-134 -300h142v300z" />
    <glyph glyph-name="Aacutesmall" horiz-adv-x="651" 
d="M108 0h-58l238 553h73l239 -553h-58l-69 158h-296zM328 498h-6l-134 -300h274zM261 593l-25 30l152 141l25 -29z" />
    <glyph glyph-name="Abreve.small" horiz-adv-x="651" 
d="M108 0h-58l238 553h73l239 -553h-58l-69 158h-296zM328 498h-6l-134 -300h274zM442 717h48q-14 -50 -51.5 -70.5t-112.5 -20.5q-76 0 -113.5 20.5t-51.5 70.5h49q23 -53 116 -53q92 0 116 53z" />
    <glyph glyph-name="Acircumflexsmall" horiz-adv-x="651" 
d="M108 0h-58l238 553h73l239 -553h-58l-69 158h-296zM328 498h-6l-134 -300h274zM472 623l-25 -30l-122 117l-122 -117l-25 30l147 141z" />
    <glyph glyph-name="Adieresissmall" horiz-adv-x="651" 
d="M108 0h-58l238 553h73l239 -553h-58l-69 158h-296zM328 498h-6l-134 -300h274zM183 700h50v-87h-50v87zM418 700h49v-87h-49v87z" />
    <glyph glyph-name="Agravesmall" horiz-adv-x="651" 
d="M108 0h-58l238 553h73l239 -553h-58l-69 158h-296zM328 498h-6l-134 -300h274zM413 623l-25 -30l-152 142l25 29z" />
    <glyph glyph-name="Amacron.small" horiz-adv-x="651" 
d="M108 0h-58l238 553h73l239 -553h-58l-69 158h-296zM328 498h-6l-134 -300h274zM497 662h-344v38h344v-38z" />
    <glyph glyph-name="Aogonek.small" horiz-adv-x="651" 
d="M530 -40l12 40l-69 158h-296l-69 -158h-58l238 553h73l239 -553h-26l-2 -4l-2.5 -10t-3.5 -13t-3.5 -15t-1.5 -14q1 -40 43 -40q31 0 61 11v-40q-31 -12 -72 -12q-65 0 -69 55q-2 18 6 42zM328 498h-6l-134 -300h274z" />
    <glyph glyph-name="Aringsmall" horiz-adv-x="651" 
d="M108 0h-58l238 553h73l239 -553h-58l-69 158h-296zM328 498h-6l-134 -300h274zM248 605q-20 20 -20 69q0 50 20 68q21 18 77 18q57 0 76 -18q21 -18 21 -68t-21 -69q-19 -18 -76 -18q-56 0 -77 18zM325 621q36 0 49.5 11.5t13.5 41.5t-13.5 41.5t-49.5 11.5
q-35 0 -48.5 -11t-13.5 -42t13.5 -42t48.5 -11z" />
    <glyph glyph-name="Asmall" horiz-adv-x="651" 
d="M108 0h-58l238 553h73l239 -553h-58l-69 158h-296zM328 498h-6l-134 -300h274z" />
    <glyph glyph-name="Atildesmall" horiz-adv-x="651" 
d="M108 0h-58l238 553h73l239 -553h-58l-69 158h-296zM328 498h-6l-134 -300h274zM153 633v48q56 52 103 52q27 0 71 -29q43 -28 71 -28q44 0 99 52v-48q-58 -52 -101 -52q-29 0 -72 28t-71 28q-46 0 -100 -51z" />
    <glyph glyph-name="Bsmall" horiz-adv-x="561" 
d="M231 0h-156v553h136q147 0 199 -30q54 -29 54 -111q0 -55 -25 -84.5t-84 -41.5v-3q69 -10 99.5 -42t30.5 -93q0 -87 -54 -118q-53 -30 -200 -30zM430 152q0 64 -42 87q-42 24 -157 24h-102v-223h102q114 0 157 23q42 24 42 89zM409 408q0 66 -48 85q-49 20 -191 20h-41
v-209h46q142 0 187 19q47 20 47 85z" />
    <glyph glyph-name="Cacute.small" horiz-adv-x="550" 
d="M72 276q0 164 46 222q47 59 173 59q111 0 194 -42v-36q-85 38 -172 38q-108 0 -147 -51q-39 -50 -39 -190q0 -138 39 -189q40 -51 147 -51q89 0 172 39v-36q-82 -43 -194 -43q-126 0 -173 59q-46 59 -46 221zM228 593l-25 30l152 141l25 -29z" />
    <glyph glyph-name="Ccaron.small" horiz-adv-x="550" 
d="M147 735l25 29l122 -116l122 116l25 -29l-147 -142zM72 276q0 164 46 222q47 59 173 59q111 0 194 -42v-36q-85 38 -172 38q-108 0 -147 -51q-39 -50 -39 -190q0 -138 39 -189q40 -51 147 -51q89 0 172 39v-36q-82 -43 -194 -43q-126 0 -173 59q-46 59 -46 221z" />
    <glyph glyph-name="Ccedillasmall" horiz-adv-x="550" 
d="M279 -33v29q-119 2 -163 62q-44 62 -44 218q0 164 46 222q47 59 173 59q111 0 194 -42v-36q-85 38 -172 38q-108 0 -147 -51q-39 -50 -39 -190q0 -138 39 -189q40 -51 147 -51q89 0 172 39v-36q-70 -37 -161 -42v-19q0 -42 -9.5 -68t-34.5 -57q-4 3 -18 9.5t-18 8.5
q22 27 28.5 45t6.5 51z" />
    <glyph glyph-name="Ccircumflex.small" horiz-adv-x="550" 
d="M441 623l-25 -30l-122 117l-122 -117l-25 30l147 141zM72 276q0 164 46 222q47 59 173 59q111 0 194 -42v-36q-85 38 -172 38q-108 0 -147 -51q-39 -50 -39 -190q0 -138 39 -189q40 -51 147 -51q89 0 172 39v-36q-82 -43 -194 -43q-126 0 -173 59q-46 59 -46 221z" />
    <glyph glyph-name="Cdotaccent.small" horiz-adv-x="550" 
d="M72 276q0 164 46 222q47 59 173 59q111 0 194 -42v-36q-85 38 -172 38q-108 0 -147 -51q-39 -50 -39 -190q0 -138 39 -189q40 -51 147 -51q89 0 172 39v-36q-82 -43 -194 -43q-126 0 -173 59q-46 59 -46 221zM267 700h55v-89h-55v89z" />
    <glyph glyph-name="Csmall" horiz-adv-x="550" 
d="M72 276q0 164 46 222q47 59 173 59q111 0 194 -42v-36q-85 38 -172 38q-108 0 -147 -51q-39 -50 -39 -190q0 -138 39 -189q40 -51 147 -51q89 0 172 39v-36q-82 -43 -194 -43q-126 0 -173 59q-46 59 -46 221z" />
    <glyph glyph-name="Dcaron.small" horiz-adv-x="592" 
d="M140 735l25 29l122 -116l122 116l25 -29l-147 -142zM265 0h-190v553h190q147 0 199 -58q54 -59 54 -219q0 -158 -54 -217t-199 -59zM464 276q0 138 -42 187q-42 50 -157 50h-136v-473h136q114 0 156 50q43 50 43 186z" />
    <glyph glyph-name="Dcroat.small" horiz-adv-x="631" 
d="M114 261h-60v32l60 8v252h188q148 0 200 -58q54 -59 54 -219q0 -158 -54 -217t-200 -59h-188v261zM502 276q0 138 -42 187q-42 50 -158 50h-134v-212h149v-40h-149v-221h134q115 0 157 50q43 50 43 186z" />
    <glyph glyph-name="Dsmall" horiz-adv-x="592" 
d="M265 0h-190v553h190q147 0 199 -58q54 -59 54 -219q0 -158 -54 -217t-199 -59zM464 276q0 138 -42 187q-42 50 -157 50h-136v-473h136q114 0 156 50q43 50 43 186z" />
    <glyph glyph-name="Eacutesmall" horiz-adv-x="530" 
d="M462 40v-40h-387v553h387v-40h-333v-207h312v-40h-312v-226h333zM205 593l-25 30l152 141l25 -29z" />
    <glyph glyph-name="Ebreve.small" horiz-adv-x="530" 
d="M462 40v-40h-387v553h387v-40h-333v-207h312v-40h-312v-226h333zM384 717h48q-14 -50 -51.5 -70.5t-112.5 -20.5q-76 0 -113.5 20.5t-51.5 70.5h49q23 -53 116 -53q92 0 116 53z" />
    <glyph glyph-name="Ecaron.small" horiz-adv-x="530" 
d="M121 735l25 29l122 -116l122 116l25 -29l-147 -142zM462 40v-40h-387v553h387v-40h-333v-207h312v-40h-312v-226h333z" />
    <glyph glyph-name="Ecircumflexsmall" horiz-adv-x="530" 
d="M415 623l-25 -30l-122 117l-122 -117l-25 30l147 141zM462 40v-40h-387v553h387v-40h-333v-207h312v-40h-312v-226h333z" />
    <glyph glyph-name="Edieresissmall" horiz-adv-x="530" 
d="M462 40v-40h-387v553h387v-40h-333v-207h312v-40h-312v-226h333zM125 700h50v-87h-50v87zM360 700h49v-87h-49v87z" />
    <glyph glyph-name="Edotaccent.small" horiz-adv-x="530" 
d="M462 40v-40h-387v553h387v-40h-333v-207h312v-40h-312v-226h333zM241 700h55v-89h-55v89z" />
    <glyph glyph-name="Egravesmall" horiz-adv-x="530" 
d="M462 40v-40h-387v553h387v-40h-333v-207h312v-40h-312v-226h333zM357 623l-25 -30l-152 142l25 29z" />
    <glyph glyph-name="Emacron.small" horiz-adv-x="530" 
d="M462 40v-40h-387v553h387v-40h-333v-207h312v-40h-312v-226h333zM440 662h-344v38h344v-38z" />
    <glyph glyph-name="Eng.small" horiz-adv-x="607" 
d="M477 0l-348 464v-464h-54v553h54l348 -465v465h55v-553q0 -104 -43 -143q-44 -39 -158 -39q-67 0 -112 15v34q34 -8 93 -8q96 0 130 30q35 30 35 111z" />
    <glyph glyph-name="Eogonek.small" horiz-adv-x="530" 
d="M327 -40l12 40h-264v553h387v-40h-333v-207h312v-40h-312v-226h333v-40h-91l-1 -4q-2 -4 -4 -10t-3.5 -13t-3 -15t-1.5 -14q1 -40 43 -40q31 0 61 11v-40q-32 -12 -72 -12q-65 0 -69 55q-1 18 6 42z" />
    <glyph glyph-name="Esmall" horiz-adv-x="530" 
d="M462 40v-40h-387v553h387v-40h-333v-207h312v-40h-312v-226h333z" />
    <glyph glyph-name="Ethsmall" horiz-adv-x="631" 
d="M114 261h-60v32l60 8v252h188q148 0 200 -58q54 -59 54 -219q0 -158 -54 -217t-200 -59h-188v261zM502 276q0 138 -42 187q-42 50 -158 50h-134v-212h149v-40h-149v-221h134q115 0 157 50q43 50 43 186z" />
    <glyph glyph-name="Fsmall" horiz-adv-x="512" 
d="M129 248v-248h-54v553h385v-40h-331v-224h294v-41h-294z" />
    <glyph glyph-name="Gbreve.small" horiz-adv-x="569" 
d="M443 251h-148v41h199v-256q-79 -40 -198 -40q-129 0 -177 59q-47 61 -47 221q0 164 46 222q47 59 173 59q117 0 196 -42v-36q-84 38 -172 38q-107 0 -148 -51q-40 -49 -40 -190q0 -137 35 -189q36 -51 132 -51q83 0 149 31v184zM412 716h48q-14 -50 -51.5 -70.5
t-112.5 -20.5q-76 0 -113.5 20.5t-51.5 70.5h49q23 -53 116 -53q92 0 116 53z" />
    <glyph glyph-name="Gcircumflex.small" horiz-adv-x="569" 
d="M443 251h-148v41h199v-256q-79 -40 -198 -40q-129 0 -177 59q-47 61 -47 221q0 164 46 222q47 59 173 59q117 0 196 -42v-36q-84 38 -172 38q-107 0 -148 -51q-40 -49 -40 -190q0 -137 35 -189q36 -51 132 -51q83 0 149 31v184zM442 623l-25 -30l-122 117l-122 -117
l-25 30l147 141z" />
    <glyph glyph-name="Gcommaaccent.small" horiz-adv-x="569" 
d="M274 -137v87h41v-61q0 -53 -9 -80q-7 -26 -35 -59q-1 0 -32 17q22 28 28 46q7 17 7 50zM443 251h-148v41h199v-256q-79 -40 -198 -40q-129 0 -177 59q-47 61 -47 221q0 164 46 222q47 59 173 59q117 0 196 -42v-36q-84 38 -172 38q-107 0 -148 -51q-40 -49 -40 -190
q0 -137 35 -189q36 -51 132 -51q83 0 149 31v184z" />
    <glyph glyph-name="Gdotaccent.small" horiz-adv-x="569" 
d="M443 251h-148v41h199v-256q-79 -40 -198 -40q-129 0 -177 59q-47 61 -47 221q0 164 46 222q47 59 173 59q117 0 196 -42v-36q-84 38 -172 38q-107 0 -148 -51q-40 -49 -40 -190q0 -137 35 -189q36 -51 132 -51q83 0 149 31v184zM267 700h55v-89h-55v89z" />
    <glyph glyph-name="Gsmall" horiz-adv-x="569" 
d="M443 251h-148v41h199v-256q-79 -40 -198 -40q-129 0 -177 59q-47 61 -47 221q0 164 46 222q47 59 173 59q117 0 196 -42v-36q-84 38 -172 38q-107 0 -148 -51q-40 -49 -40 -190q0 -137 35 -189q36 -51 132 -51q83 0 149 31v184z" />
    <glyph glyph-name="Hbar.small" horiz-adv-x="673" 
d="M116 407h-62v36h62v110h54v-110h331v110h55v-110h62v-36h-62v-407h-55v264h-331v-264h-54v407zM170 407v-102h331v102h-331z" />
    <glyph glyph-name="Hcircumflex.small" horiz-adv-x="590" 
d="M440 623l-25 -30l-122 117l-122 -117l-25 30l147 141zM129 264v-264h-54v553h54v-248h331v248h55v-553h-55v264h-331z" />
    <glyph glyph-name="Hsmall" horiz-adv-x="590" 
d="M129 264v-264h-54v553h54v-248h331v248h55v-553h-55v264h-331z" />
    <glyph glyph-name="IJ.small" horiz-adv-x="474" 
d="M345 20v533h55v-533q0 -116 -43 -159q-42 -43 -157 -43q-68 0 -113 15v34q34 -8 93 -8q96 0 130 34q35 35 35 127zM75 553h54v-553h-54v553z" />
    <glyph glyph-name="Iacutesmall" horiz-adv-x="204" 
d="M39 593l-25 30l152 141l25 -29zM75 553h54v-553h-54v553z" />
    <glyph glyph-name="Ibreve.small" horiz-adv-x="204" 
d="M219 717h48q-14 -50 -51.5 -70.5t-112.5 -20.5q-76 0 -113.5 20.5t-51.5 70.5h49q23 -53 116 -53q92 0 116 53zM75 553h54v-553h-54v553z" />
    <glyph glyph-name="Icircumflexsmall" horiz-adv-x="204" 
d="M249 623l-25 -30l-122 117l-122 -117l-25 30l147 141zM75 553h54v-553h-54v553z" />
    <glyph glyph-name="Idieresissmall" horiz-adv-x="204" 
d="M75 553h54v-553h-54v553zM-40 700h50v-87h-50v87zM195 700h49v-87h-49v87z" />
    <glyph glyph-name="Idotaccent.small" horiz-adv-x="204" 
d="M74 700h55v-89h-55v89zM75 553h54v-553h-54v553z" />
    <glyph glyph-name="Igravesmall" horiz-adv-x="204" 
d="M191 623l-25 -30l-152 142l25 29zM75 553h54v-553h-54v553z" />
    <glyph glyph-name="Imacron.small" horiz-adv-x="204" 
d="M274 662h-344v38h344v-38zM75 553h54v-553h-54v553z" />
    <glyph glyph-name="Iogonek.small" horiz-adv-x="204" 
d="M63 -40l12 40h1v553h54v-553h-23l-1 -4q-2 -4 -4 -10t-3.5 -13t-3 -15t-1.5 -14q1 -40 43 -40q31 0 61 11v-40q-32 -12 -72 -12q-65 0 -69 55q-1 18 6 42z" />
    <glyph glyph-name="Ismall" horiz-adv-x="204" 
d="M75 553h54v-553h-54v553z" />
    <glyph glyph-name="Itilde.small" horiz-adv-x="204" 
d="M75 553h54v-553h-54v553zM-70 633v48q56 52 103 52q27 0 71 -29q43 -28 71 -28q44 0 99 52v-48q-58 -52 -101 -52q-29 0 -72 28t-71 28q-46 0 -100 -51z" />
    <glyph glyph-name="Jcircumflex.small" horiz-adv-x="454" 
d="M486 623l-25 -30l-122 117l-122 -117l-25 30l147 141zM312 197v356h54v-356q0 -115 -43 -158q-42 -43 -157 -43q-64 0 -112 14v35q35 -9 92 -9q97 0 131 34q35 35 35 127z" />
    <glyph glyph-name="Jsmall" horiz-adv-x="454" 
d="M312 197v356h54v-356q0 -115 -43 -158q-42 -43 -157 -43q-64 0 -112 14v35q35 -9 92 -9q97 0 131 34q35 35 35 127z" />
    <glyph glyph-name="Kcommaaccent.small" horiz-adv-x="534" 
d="M264 -137v87h41v-61q0 -51 -9 -80q-7 -26 -35 -59q-1 0 -32 17q22 28 28 46q7 17 7 50zM75 553h54v-245h95l198 245h62l-215 -269l231 -284h-62l-214 261h-95v-261h-54v553z" />
    <glyph glyph-name="Ksmall" horiz-adv-x="537" 
d="M75 553h54v-245h95l198 245h62l-215 -269l231 -284h-62l-214 261h-95v-261h-54v553z" />
    <glyph glyph-name="Lacute.small" horiz-adv-x="526" 
d="M186 593l-25 30l152 141l25 -29zM456 40v-40h-381v553h54v-513h327z" />
    <glyph glyph-name="Lcaron.small" horiz-adv-x="526" 
d="M102 735l25 29l122 -116l122 116l25 -29l-147 -142zM456 40v-40h-381v553h54v-513h327z" />
    <glyph glyph-name="Lcommaaccent.small" horiz-adv-x="526" 
d="M253 -137v87h41v-61q0 -51 -9 -80q-7 -26 -35 -59q-12 6 -32 17q22 28 28 46q7 17 7 50zM456 40v-40h-381v553h54v-513h327z" />
    <glyph glyph-name="Ldot.small" horiz-adv-x="526" 
d="M395 371h45v-88h-45v88zM456 40v-40h-381v553h54v-513h327z" />
    <glyph glyph-name="Lslashsmall" horiz-adv-x="606" 
d="M153 208l-100 -57l-16 35l116 66v301h55v-269l123 70l15 -35l-138 -79v-200h326v-40h-381v208z" />
    <glyph glyph-name="Lsmall" horiz-adv-x="526" 
d="M456 40v-40h-381v553h54v-513h327z" />
    <glyph glyph-name="Msmall" horiz-adv-x="703" 
d="M129 448v-448h-54v553h54l220 -369h5l220 369h55v-553h-55v448l-210 -349h-25z" />
    <glyph glyph-name="Nacute.small" horiz-adv-x="607" 
d="M532 553v-553h-54l-349 464v-464h-54v553h54l348 -465v465h55zM240 593l-25 30l152 141l25 -29z" />
    <glyph glyph-name="Ncaron.small" horiz-adv-x="607" 
d="M157 735l25 29l122 -116l122 116l25 -29l-147 -142zM532 553v-553h-54l-349 464v-464h-54v553h54l348 -465v465h55z" />
    <glyph glyph-name="Ncommaaccent.small" horiz-adv-x="607" 
d="M532 553v-553h-54l-349 464v-464h-54v553h54l348 -465v465h55zM287 -137v87h41v-61q0 -53 -9 -80q-7 -26 -35 -59q-11 5 -31 17q21 29 27 46q7 17 7 50z" />
    <glyph glyph-name="Nsmall" horiz-adv-x="607" 
d="M532 553v-553h-54l-349 464v-464h-54v553h54l348 -465v465h55z" />
    <glyph glyph-name="Ntildesmall" horiz-adv-x="607" 
d="M532 553v-553h-54l-349 464v-464h-54v553h54l348 -465v465h55zM132 633v48q56 52 103 52q27 0 71 -29q43 -28 71 -28q44 0 99 52v-48q-58 -52 -101 -52q-29 0 -72 28t-71 28q-46 0 -100 -51z" />
    <glyph glyph-name="OEsmall" horiz-adv-x="873" 
d="M801 40v-40h-346v30q-46 -34 -156 -34q-129 0 -179 59q-48 60 -48 221q0 164 48 222q48 59 179 59q110 0 156 -34v30h346v-40h-291v-207h270v-40h-270v-226h291zM311 36q103 0 144 44v393q-41 44 -144 44q-105 0 -146 -51q-39 -50 -39 -190q0 -138 39 -189
q41 -51 146 -51z" />
    <glyph glyph-name="Oacutesmall" horiz-adv-x="636" 
d="M72 276q0 164 51 222q51 59 192 59q140 0 191 -59q51 -58 51 -222q0 -162 -52 -221q-51 -59 -190 -59t-192 59q-51 60 -51 221zM127 276q0 -138 39 -189q41 -51 149 -51q107 0 147 51q41 52 41 189q0 141 -40 190q-41 51 -148 51q-108 0 -149 -51q-39 -50 -39 -190z
M253 593l-25 30l152 141l25 -29z" />
    <glyph glyph-name="Obreve.small" horiz-adv-x="636" 
d="M72 276q0 164 51 222q51 59 192 59q140 0 191 -59q51 -58 51 -222q0 -162 -52 -221q-51 -59 -190 -59t-192 59q-51 60 -51 221zM127 276q0 -138 39 -189q41 -51 149 -51q107 0 147 51q41 52 41 189q0 141 -40 190q-41 51 -148 51q-108 0 -149 -51q-39 -50 -39 -190z
M431 717h48q-14 -50 -51.5 -70.5t-112.5 -20.5q-76 0 -113.5 20.5t-51.5 70.5h49q23 -53 116 -53q92 0 116 53z" />
    <glyph glyph-name="Ocircumflexsmall" horiz-adv-x="636" 
d="M462 623l-25 -30l-122 117l-122 -117l-25 30l147 141zM72 276q0 164 51 222q51 59 192 59q140 0 191 -59q51 -58 51 -222q0 -162 -52 -221q-51 -59 -190 -59t-192 59q-51 60 -51 221zM127 276q0 -138 39 -189q41 -51 149 -51q107 0 147 51q41 52 41 189q0 141 -40 190
q-41 51 -148 51q-108 0 -149 -51q-39 -50 -39 -190z" />
    <glyph glyph-name="Odieresissmall" horiz-adv-x="636" 
d="M72 276q0 164 51 222q51 59 192 59q140 0 191 -59q51 -58 51 -222q0 -162 -52 -221q-51 -59 -190 -59t-192 59q-51 60 -51 221zM127 276q0 -138 39 -189q41 -51 149 -51q107 0 147 51q41 52 41 189q0 141 -40 190q-41 51 -148 51q-108 0 -149 -51q-39 -50 -39 -190z
M171 700h50v-87h-50v87zM406 700h49v-87h-49v87z" />
    <glyph glyph-name="Ogravesmall" horiz-adv-x="636" 
d="M72 276q0 164 51 222q51 59 192 59q140 0 191 -59q51 -58 51 -222q0 -162 -52 -221q-51 -59 -190 -59t-192 59q-51 60 -51 221zM127 276q0 -138 39 -189q41 -51 149 -51q107 0 147 51q41 52 41 189q0 141 -40 190q-41 51 -148 51q-108 0 -149 -51q-39 -50 -39 -190z
M403 623l-25 -30l-152 142l25 29z" />
    <glyph glyph-name="Ohungarumlaut.small" horiz-adv-x="636" 
d="M162 593l-25 30l146 141l25 -29zM346 593l-25 30l146 141l24 -29zM72 276q0 164 51 222q51 59 192 59q140 0 191 -59q51 -58 51 -222q0 -162 -52 -221q-51 -59 -190 -59t-192 59q-51 60 -51 221zM127 276q0 -138 39 -189q41 -51 149 -51q107 0 147 51q41 52 41 189
q0 141 -40 190q-41 51 -148 51q-108 0 -149 -51q-39 -50 -39 -190z" />
    <glyph glyph-name="Omacron.small" horiz-adv-x="636" 
d="M72 276q0 164 51 222q51 59 192 59q140 0 191 -59q51 -58 51 -222q0 -162 -52 -221q-51 -59 -190 -59t-192 59q-51 60 -51 221zM127 276q0 -138 39 -189q41 -51 149 -51q107 0 147 51q41 52 41 189q0 141 -40 190q-41 51 -148 51q-108 0 -149 -51q-39 -50 -39 -190z
M487 662h-344v38h344v-38z" />
    <glyph glyph-name="Oslashacute.small" horiz-adv-x="636" 
d="M473 600h33l-38 -72q48 -27 68.5 -85.5t20.5 -166.5q0 -162 -52 -221q-51 -59 -190 -59q-78 0 -123 15l-32 -61h-33l38 72q-50 26 -71.5 85.5t-21.5 168.5q0 164 51 222q51 59 192 59q78 0 126 -17zM125 276q0 -88 14.5 -137.5t48.5 -73.5l232 435q-39 17 -105 17
q-109 0 -150 -51q-40 -49 -40 -190zM505 276q0 164 -60 209l-232 -434q37 -15 102 -15q109 0 149 51q41 52 41 189zM249 593l-25 30l152 141l25 -29z" />
    <glyph glyph-name="Oslashsmall" horiz-adv-x="636" 
d="M473 600h33l-38 -72q48 -27 68.5 -85.5t20.5 -166.5q0 -162 -52 -221q-51 -59 -190 -59q-78 0 -123 15l-32 -61h-33l38 72q-50 26 -71.5 85.5t-21.5 168.5q0 164 51 222q51 59 192 59q78 0 126 -17zM125 276q0 -88 14.5 -137.5t48.5 -73.5l232 435q-39 17 -105 17
q-109 0 -150 -51q-40 -49 -40 -190zM505 276q0 164 -60 209l-232 -434q37 -15 102 -15q109 0 149 51q41 52 41 189z" />
    <glyph glyph-name="Osmall" horiz-adv-x="636" 
d="M72 276q0 164 51 222q51 59 192 59q140 0 191 -59q51 -58 51 -222q0 -162 -52 -221q-51 -59 -190 -59t-192 59q-51 60 -51 221zM127 276q0 -138 39 -189q41 -51 149 -51q107 0 147 51q41 52 41 189q0 141 -40 190q-41 51 -148 51q-108 0 -149 -51q-39 -50 -39 -190z" />
    <glyph glyph-name="Otildesmall" horiz-adv-x="636" 
d="M72 276q0 164 51 222q51 59 192 59q140 0 191 -59q51 -58 51 -222q0 -162 -52 -221q-51 -59 -190 -59t-192 59q-51 60 -51 221zM127 276q0 -138 39 -189q41 -51 149 -51q107 0 147 51q41 52 41 189q0 141 -40 190q-41 51 -148 51q-108 0 -149 -51q-39 -50 -39 -190z
M141 633v48q56 52 103 52q27 0 71 -29q43 -28 71 -28q44 0 99 52v-48q-58 -52 -101 -52q-29 0 -72 28t-71 28q-46 0 -100 -51z" />
    <glyph glyph-name="Psmall" horiz-adv-x="543" 
d="M129 0h-54v553h139q145 0 200 -35q54 -34 54 -129q0 -93 -55 -129q-54 -36 -199 -36h-85v-224zM413 389q0 73 -43 98q-43 26 -156 26h-85v-248h85q113 0 156 26q43 27 43 98z" />
    <glyph glyph-name="Qsmall" horiz-adv-x="633" 
d="M72 276q0 164 51 222q51 59 192 59q140 0 191 -59q51 -58 51 -222q0 -153 -47 -215q-46 -60 -169 -64q1 -54 24 -74.5t86 -20.5q39 0 80 9v-38q-42 -11 -98 -11q-81 0 -113 30q-30 28 -32 105q-124 4 -170 64q-46 61 -46 215zM127 276q0 -138 39 -189q41 -51 149 -51
q107 0 147 51q41 52 41 189q0 141 -40 190q-41 51 -148 51q-108 0 -149 -51q-39 -50 -39 -190z" />
    <glyph glyph-name="Racute.small" horiz-adv-x="546" 
d="M494 0h-62l-169 231h-46h-88v-231h-54v553h142q147 0 200 -34q54 -33 54 -127q0 -75 -35.5 -110.5t-119.5 -45.5zM416 392q0 70 -43 95q-43 26 -156 26h-88v-241h88q113 0 156 26q43 25 43 94zM210 593l-25 30l152 141l25 -29z" />
    <glyph glyph-name="Rcaron.small" horiz-adv-x="546" 
d="M494 0h-62l-169 231h-46h-88v-231h-54v553h142q147 0 200 -34q54 -33 54 -127q0 -75 -35.5 -110.5t-119.5 -45.5zM416 392q0 70 -43 95q-43 26 -156 26h-88v-241h88q113 0 156 26q43 25 43 94zM127 735l25 29l122 -116l122 116l25 -29l-147 -142z" />
    <glyph glyph-name="Rcommaaccent.small" horiz-adv-x="546" 
d="M494 0h-62l-169 231h-46h-88v-231h-54v553h142q147 0 200 -34q54 -33 54 -127q0 -75 -35.5 -110.5t-119.5 -45.5zM416 392q0 70 -43 95q-43 26 -156 26h-88v-241h88q113 0 156 26q43 25 43 94zM266 -137v87h41v-61q0 -53 -9 -80q-7 -26 -35 -59q-1 0 -32 17q22 28 28 46
q7 17 7 50z" />
    <glyph glyph-name="Rsmall" horiz-adv-x="546" 
d="M494 0h-62l-169 231h-46h-88v-231h-54v553h142q147 0 200 -34q54 -33 54 -127q0 -75 -35.5 -110.5t-119.5 -45.5zM416 392q0 70 -43 95q-43 26 -156 26h-88v-241h88q113 0 156 26q43 25 43 94z" />
    <glyph glyph-name="Sacute.small" horiz-adv-x="528" 
d="M123 413q0 -37 25 -61q12 -11 29.5 -20t31 -13t41.5 -11t41 -11q30 -7 50 -13.5t44.5 -18.5t39 -27t24.5 -39t10 -55q0 -85 -43 -116q-44 -32 -156 -32q-115 0 -190 35v38q76 -33 170 -33t129 23t35 85q0 79 -118 106q-66 16 -99 25q-52 14 -85 49t-33 89q0 81 40 112
q41 32 147 32q110 0 183 -33v-40q-74 33 -163 33q-86 0 -119.5 -22.5t-33.5 -81.5zM198 593l-25 30l152 141l25 -29z" />
    <glyph glyph-name="Scaronsmall" horiz-adv-x="528" 
d="M123 413q0 -37 25 -61q12 -11 29.5 -20t31 -13t41.5 -11t41 -11q30 -7 50 -13.5t44.5 -18.5t39 -27t24.5 -39t10 -55q0 -85 -43 -116q-44 -32 -156 -32q-115 0 -190 35v38q76 -33 170 -33t129 23t35 85q0 79 -118 106q-66 16 -99 25q-52 14 -85 49t-33 89q0 81 40 112
q41 32 147 32q110 0 183 -33v-40q-74 33 -163 33q-86 0 -119.5 -22.5t-33.5 -81.5zM115 735l25 29l122 -116l122 116l25 -29l-147 -142z" />
    <glyph glyph-name="Scedilla.small" horiz-adv-x="528" 
d="M249 -33v29q-110 1 -179 35v38q76 -33 170 -33t129 23t35 85q0 79 -118 106q-66 16 -99 25q-52 14 -85 49t-33 89q0 81 40 112q41 32 147 32q110 0 183 -33v-40q-74 33 -163 33q-86 0 -119.5 -22.5t-33.5 -81.5q0 -37 25 -61q12 -11 29.5 -20t31 -13t41.5 -11t41 -11
q30 -7 50 -13.5t44.5 -18.5t39 -27t24.5 -39t10 -55q0 -78 -36 -111q-36 -31 -129 -36v-19q0 -42 -9.5 -68t-34.5 -57l-36 18q22 27 28.5 45t6.5 51z" />
    <glyph glyph-name="Scircumflex.small" horiz-adv-x="528" 
d="M123 413q0 -37 25 -61q12 -11 29.5 -20t31 -13t41.5 -11t41 -11q30 -7 50 -13.5t44.5 -18.5t39 -27t24.5 -39t10 -55q0 -85 -43 -116q-44 -32 -156 -32q-115 0 -190 35v38q76 -33 170 -33t129 23t35 85q0 79 -118 106q-66 16 -99 25q-52 14 -85 49t-33 89q0 81 40 112
q41 32 147 32q110 0 183 -33v-40q-74 33 -163 33q-86 0 -119.5 -22.5t-33.5 -81.5zM409 623l-25 -30l-122 117l-122 -117l-25 30l147 141z" />
    <glyph glyph-name="Scommaaccent.small" horiz-adv-x="528" 
d="M245 -137v87h41v-61q0 -53 -9 -80q-7 -25 -34 -59q-25 12 -32 17q21 29 27 46q7 17 7 50zM123 413q0 -37 25 -61q12 -11 29.5 -20t31 -13t41.5 -11t41 -11q30 -7 50 -13.5t44.5 -18.5t39 -27t24.5 -39t10 -55q0 -85 -43 -116q-44 -32 -156 -32q-115 0 -190 35v38
q76 -33 170 -33t129 23t35 85q0 79 -118 106q-66 16 -99 25q-52 14 -85 49t-33 89q0 81 40 112q41 32 147 32q110 0 183 -33v-40q-74 33 -163 33q-86 0 -119.5 -22.5t-33.5 -81.5z" />
    <glyph glyph-name="Ssmall" horiz-adv-x="528" 
d="M123 413q0 -37 25 -61q12 -11 29.5 -20t31 -13t41.5 -11t41 -11q30 -7 50 -13.5t44.5 -18.5t39 -27t24.5 -39t10 -55q0 -85 -43 -116q-44 -32 -156 -32q-115 0 -190 35v38q76 -33 170 -33t129 23t35 85q0 79 -118 106q-66 16 -99 25q-52 14 -85 49t-33 89q0 81 40 112
q41 32 147 32q110 0 183 -33v-40q-74 33 -163 33q-86 0 -119.5 -22.5t-33.5 -81.5z" />
    <glyph glyph-name="Tbar.small" horiz-adv-x="582" 
d="M264 513h-212v40h477v-40h-211v-181h153v-36h-153v-296h-54v296h-153v36h153v181z" />
    <glyph glyph-name="Tcaron.small" horiz-adv-x="582" 
d="M144 735l25 29l122 -116l122 116l25 -29l-147 -142zM264 513h-212v40h477v-40h-211v-513h-54v513z" />
    <glyph glyph-name="Tcommaaccent.small" horiz-adv-x="582" 
d="M270 -137v87h41v-61q0 -51 -9 -80q-7 -26 -35 -59q-12 6 -32 17q22 28 28 46q7 17 7 50zM264 513h-212v40h477v-40h-211v-513h-54v513z" />
    <glyph glyph-name="Thornsmall" horiz-adv-x="549" 
d="M129 0h-54v553h54v-113h91q148 0 200 -34q54 -34 54 -130q0 -94 -55 -128q-55 -35 -199 -35h-91v-113zM419 276q0 72 -42 98q-43 26 -157 26h-91v-247h91q113 0 156 26q43 27 43 97z" />
    <glyph glyph-name="Tsmall" horiz-adv-x="582" 
d="M264 513h-212v40h477v-40h-211v-513h-54v513z" />
    <glyph glyph-name="Uacutesmall" horiz-adv-x="609" 
d="M480 217v336h54v-336q0 -127 -48 -174q-49 -47 -179 -47q-129 0 -178 47q-48 47 -48 174v336h54v-336q0 -104 36 -143q38 -38 136 -38q100 0 136 38q37 38 37 143zM247 593l-25 30l152 141l25 -29z" />
    <glyph glyph-name="Ubreve.small" horiz-adv-x="609" 
d="M480 217v336h54v-336q0 -127 -48 -174q-49 -47 -179 -47q-129 0 -178 47q-48 47 -48 174v336h54v-336q0 -104 36 -143q38 -38 136 -38q100 0 136 38q37 38 37 143zM425 717h48q-14 -50 -51.5 -70.5t-112.5 -20.5q-76 0 -113.5 20.5t-51.5 70.5h49q23 -53 116 -53
q92 0 116 53z" />
    <glyph glyph-name="Ucircumflexsmall" horiz-adv-x="609" 
d="M454 623l-25 -30l-122 117l-122 -117l-25 30l147 141zM480 217v336h54v-336q0 -127 -48 -174q-49 -47 -179 -47q-129 0 -178 47q-48 47 -48 174v336h54v-336q0 -104 36 -143q38 -38 136 -38q100 0 136 38q37 38 37 143z" />
    <glyph glyph-name="Udieresissmall" horiz-adv-x="609" 
d="M480 217v336h54v-336q0 -127 -48 -174q-49 -47 -179 -47q-129 0 -178 47q-48 47 -48 174v336h54v-336q0 -104 36 -143q38 -38 136 -38q100 0 136 38q37 38 37 143zM165 700h50v-87h-50v87zM400 700h49v-87h-49v87z" />
    <glyph glyph-name="Ugravesmall" horiz-adv-x="609" 
d="M480 217v336h54v-336q0 -127 -48 -174q-49 -47 -179 -47q-129 0 -178 47q-48 47 -48 174v336h54v-336q0 -104 36 -143q38 -38 136 -38q100 0 136 38q37 38 37 143zM397 623l-25 -30l-152 142l25 29z" />
    <glyph glyph-name="Uhungarumlaut.small" horiz-adv-x="609" 
d="M156 593l-25 30l146 141l25 -29zM340 593l-25 30l146 141l24 -29zM480 217v336h54v-336q0 -127 -48 -174q-49 -47 -179 -47q-129 0 -178 47q-48 47 -48 174v336h54v-336q0 -104 36 -143q38 -38 136 -38q100 0 136 38q37 38 37 143z" />
    <glyph glyph-name="Umacron.small" horiz-adv-x="609" 
d="M480 217v336h54v-336q0 -127 -48 -174q-49 -47 -179 -47q-129 0 -178 47q-48 47 -48 174v336h54v-336q0 -104 36 -143q38 -38 136 -38q100 0 136 38q37 38 37 143zM480 662h-344v38h344v-38z" />
    <glyph glyph-name="Uogonek.small" horiz-adv-x="609" 
d="M480 217v336h54v-336q0 -111 -36 -160q-36 -47 -128 -58q-13 -38 -13 -55q1 -40 43 -40q31 0 61 11v-40q-31 -12 -72 -12q-65 0 -69 55q-2 18 6 42q4 17 10 37q-6 -1 -29 -1q-129 0 -178 47q-48 47 -48 174v336h54v-336q0 -104 36 -143q38 -38 136 -38q100 0 136 38
q37 38 37 143z" />
    <glyph glyph-name="Uring.small" horiz-adv-x="609" 
d="M231 605q-20 20 -20 69q0 50 20 68q21 18 77 18t76 -18q21 -18 21 -68t-21 -69q-20 -18 -76 -18t-77 18zM308 621q36 0 49.5 11.5t13.5 41.5t-13.5 41.5t-49.5 11.5q-35 0 -48.5 -11t-13.5 -42t13.5 -42t48.5 -11zM480 217v336h54v-336q0 -127 -48 -174q-49 -47 -179 -47
q-129 0 -178 47q-48 47 -48 174v336h54v-336q0 -104 36 -143q38 -38 136 -38q100 0 136 38q37 38 37 143z" />
    <glyph glyph-name="Usmall" horiz-adv-x="609" 
d="M480 217v336h54v-336q0 -127 -48 -174q-49 -47 -179 -47q-129 0 -178 47q-48 47 -48 174v336h54v-336q0 -104 36 -143q38 -38 136 -38q100 0 136 38q37 38 37 143z" />
    <glyph glyph-name="Utilde.small" horiz-adv-x="609" 
d="M480 217v336h54v-336q0 -127 -48 -174q-49 -47 -179 -47q-129 0 -178 47q-48 47 -48 174v336h54v-336q0 -104 36 -143q38 -38 136 -38q100 0 136 38q37 38 37 143zM135 633v48q56 52 103 52q27 0 71 -29q43 -28 71 -28q44 0 99 52v-48q-58 -52 -101 -52q-29 0 -72 28
t-71 28q-46 0 -100 -51z" />
    <glyph glyph-name="Vsmall" horiz-adv-x="651" 
d="M361 0h-73l-238 553h58l214 -499h6l214 499h58z" />
    <glyph glyph-name="Wacute.small" horiz-adv-x="945" 
d="M705 0h-76l-155 482h-5l-155 -482h-76l-188 553h57l166 -490h5l158 490h71l158 -490h5l166 490h57zM407 593l-25 30l152 141l25 -29z" />
    <glyph glyph-name="Wcircumflex.small" horiz-adv-x="945" 
d="M705 0h-76l-155 482h-5l-155 -482h-76l-188 553h57l166 -490h5l158 490h71l158 -490h5l166 490h57zM619 623l-25 -30l-122 117l-122 -117l-25 30l147 141z" />
    <glyph glyph-name="Wdieresis.small" horiz-adv-x="945" 
d="M705 0h-76l-155 482h-5l-155 -482h-76l-188 553h57l166 -490h5l158 490h71l158 -490h5l166 490h57zM328 700h50v-87h-50v87zM563 700h49v-87h-49v87z" />
    <glyph glyph-name="Wgrave.small" horiz-adv-x="945" 
d="M705 0h-76l-155 482h-5l-155 -482h-76l-188 553h57l166 -490h5l158 490h71l158 -490h5l166 490h57zM559 623l-25 -30l-152 142l25 29z" />
    <glyph glyph-name="Wsmall" horiz-adv-x="945" 
d="M705 0h-76l-155 482h-5l-155 -482h-76l-188 553h57l166 -490h5l158 490h71l158 -490h5l166 490h57z" />
    <glyph glyph-name="Xsmall" horiz-adv-x="579" 
d="M472 553h60l-208 -274l209 -279h-60l-182 242h-4l-181 -242h-60l208 279l-207 274h62l178 -239h4z" />
    <glyph glyph-name="Yacutesmall" horiz-adv-x="581" 
d="M318 0h-55v218l-215 335h54l186 -285h4l187 285h55l-216 -335v-218zM226 593l-25 30l152 141l25 -29z" />
    <glyph glyph-name="Ycircumflex.small" horiz-adv-x="581" 
d="M318 0h-55v218l-215 335h54l186 -285h4l187 285h55l-216 -335v-218zM437 623l-25 -30l-122 117l-122 -117l-25 30l147 141z" />
    <glyph glyph-name="Ydieresissmall" horiz-adv-x="581" 
d="M318 0h-55v218l-215 335h54l186 -285h4l187 285h55l-216 -335v-218zM148 700h50v-87h-50v87zM383 700h49v-87h-49v87z" />
    <glyph glyph-name="Ygrave.small" horiz-adv-x="581" 
d="M318 0h-55v218l-215 335h54l186 -285h4l187 285h55l-216 -335v-218zM378 623l-25 -30l-152 142l25 29z" />
    <glyph glyph-name="Ysmall" horiz-adv-x="581" 
d="M318 0h-55v218l-215 335h54l186 -285h4l187 285h55l-216 -335v-218z" />
    <glyph glyph-name="Zacute.small" horiz-adv-x="596" 
d="M452 513h-379v40h448v-38l-379 -475h379v-40h-448v38zM232 593l-25 30l152 141l25 -29z" />
    <glyph glyph-name="Zcaronsmall" horiz-adv-x="596" 
d="M148 735l25 29l122 -116l122 116l25 -29l-147 -142zM452 513h-379v40h448v-38l-379 -475h379v-40h-448v38z" />
    <glyph glyph-name="Zdotaccent.small" horiz-adv-x="596" 
d="M452 513h-379v40h448v-38l-379 -475h379v-40h-448v38zM267 700h55v-89h-55v89z" />
    <glyph glyph-name="Zsmall" horiz-adv-x="596" 
d="M452 513h-379v40h448v-38l-379 -475h379v-40h-448v38z" />
    <glyph glyph-name="afii10017.small" horiz-adv-x="651" 
d="M108 0h-58l238 553h73l239 -553h-58l-69 158h-296zM328 498h-6l-134 -300h274z" />
    <glyph glyph-name="afii10018.small" horiz-adv-x="549" 
d="M220 0h-145v553h361v-40h-307v-184h91q145 0 199 -36q55 -36 55 -129q0 -96 -54 -130q-53 -34 -200 -34zM419 164q0 72 -43 97q-42 27 -156 27h-91v-248h91q113 0 156 26q43 25 43 98z" />
    <glyph glyph-name="afii10019.small" horiz-adv-x="561" 
d="M231 0h-156v553h136q147 0 199 -30q54 -29 54 -111q0 -55 -25 -84.5t-84 -41.5v-3q69 -10 99.5 -42t30.5 -93q0 -87 -54 -118q-53 -30 -200 -30zM430 152q0 64 -42 87q-42 24 -157 24h-102v-223h102q114 0 157 23q42 24 42 89zM409 408q0 66 -48 85q-49 20 -191 20h-41
v-209h46q142 0 187 19q47 20 47 85z" />
    <glyph glyph-name="afii10020.small" horiz-adv-x="474" 
d="M129 513v-513h-54v553h346v-40h-292z" />
    <glyph glyph-name="afii10021.small" horiz-adv-x="709" 
d="M81 -134h-44v174h72q38 44 54 86q40 98 40 427h366v-513h104l-7 -174h-44l-4 134h-530zM514 513h-258q0 -219 -17 -313q-16 -90 -74 -160h349v473z" />
    <glyph glyph-name="afii10022.small" horiz-adv-x="530" 
d="M462 40v-40h-387v553h387v-40h-333v-207h312v-40h-312v-226h333z" />
    <glyph glyph-name="afii10023.small" horiz-adv-x="530" 
d="M130 708h47v-76h-47v76zM356 708h47v-76h-47v76zM462 40v-40h-387v553h387v-40h-333v-207h312v-40h-312v-226h333z" />
    <glyph glyph-name="afii10024.small" horiz-adv-x="790" 
d="M290 308h77v245h55v-245h79l175 245h61l-192 -269l208 -284h-62l-191 261h-78v-261h-55v261h-76l-192 -261h-62l208 284l-191 269h61z" />
    <glyph glyph-name="afii10025.small" horiz-adv-x="543" 
d="M213 266l-58 3v35l47 2q110 3 149 24q40 22 40 81q0 61 -32 84q-31 22 -122 22q-85 0 -171 -33v35q78 38 183 38q114 0 155 -29q42 -29 42 -112q0 -55 -25 -85t-84 -43v-3q69 -10 99.5 -43t30.5 -96q0 -88 -43 -119t-162 -31q-120 0 -196 39v36q81 -35 179 -35
q96 0 131 24q36 24 36 90t-42 90q-43 25 -157 26z" />
    <glyph glyph-name="afii10026.small" horiz-adv-x="600" 
d="M471 464l-342 -464h-54v553h54v-465l342 465h54v-553h-54v464z" />
    <glyph glyph-name="afii10027.small" horiz-adv-x="600" 
d="M471 464l-342 -464h-54v553h54v-465l342 465h54v-553h-54v464zM302 628q-70 0 -105 19t-48 65h47q20 -47 106 -47q84 0 105 47h45q-13 -46 -47.5 -65t-102.5 -19z" />
    <glyph glyph-name="afii10028.small" horiz-adv-x="537" 
d="M75 553h54v-245h95l198 245h62l-215 -269l231 -284h-62l-214 261h-95v-261h-54v553z" />
    <glyph glyph-name="afii10029.small" horiz-adv-x="596" 
d="M524 553v-553h-55v513h-261q0 -243 -22 -338q-23 -98 -98 -182l-45 15q37 44 52 70q17 26 33 84q18 63 22 148q5 102 5 243h369z" />
    <glyph glyph-name="afii10030.small" horiz-adv-x="703" 
d="M129 448v-448h-54v553h54l220 -369h5l220 369h55v-553h-55v448l-210 -349h-25z" />
    <glyph glyph-name="afii10031.small" horiz-adv-x="590" 
d="M129 264v-264h-54v553h54v-248h331v248h55v-553h-55v264h-331z" />
    <glyph glyph-name="afii10032.small" horiz-adv-x="636" 
d="M72 276q0 164 51 222q51 59 192 59q140 0 191 -59q51 -58 51 -222q0 -162 -52 -221q-51 -59 -190 -59t-192 59q-51 60 -51 221zM127 276q0 -138 39 -189q41 -51 149 -51q107 0 147 51q41 52 41 189q0 141 -40 190q-41 51 -148 51q-108 0 -149 -51q-39 -50 -39 -190z" />
    <glyph glyph-name="afii10033.small" horiz-adv-x="599" 
d="M129 513v-513h-54v553h449v-553h-54v513h-341z" />
    <glyph glyph-name="afii10034.small" horiz-adv-x="543" 
d="M129 0h-54v553h139q145 0 200 -35q54 -34 54 -129q0 -93 -55 -129q-54 -36 -199 -36h-85v-224zM413 389q0 73 -43 98q-43 26 -156 26h-85v-248h85q113 0 156 26q43 27 43 98z" />
    <glyph glyph-name="afii10035.small" horiz-adv-x="550" 
d="M72 276q0 164 46 222q47 59 173 59q111 0 194 -42v-36q-85 38 -172 38q-108 0 -147 -51q-39 -50 -39 -190q0 -138 39 -189q40 -51 147 -51q89 0 172 39v-36q-82 -43 -194 -43q-126 0 -173 59q-46 59 -46 221z" />
    <glyph glyph-name="afii10036.small" horiz-adv-x="582" 
d="M264 513h-212v40h477v-40h-211v-513h-54v513z" />
    <glyph glyph-name="afii10037.small" horiz-adv-x="614" 
d="M293 158h-22l-218 395h56l195 -345h6l194 345h56l-255 -469q-23 -48 -51.5 -68t-82.5 -20q-69 0 -112 25v35q42 -20 89 -20q62 0 85 29q35 45 60 93z" />
    <glyph glyph-name="afii10038.small" horiz-adv-x="701" 
d="M378 52v-52h-55v52q-143 0 -197 48t-54 176q0 130 53 177q54 48 198 48v52h55v-52q145 0 198 -47t53 -178q0 -128 -54 -176q-53 -48 -197 -48zM574 276q0 108 -42 145q-40 39 -154 39v-368q112 0 154 39q42 41 42 145zM323 92v368q-113 0 -155 -39q-42 -37 -42 -145
q0 -104 42 -145q44 -39 155 -39z" />
    <glyph glyph-name="afii10039.small" horiz-adv-x="579" 
d="M472 553h60l-208 -274l209 -279h-60l-182 242h-4l-181 -242h-60l208 279l-207 274h62l178 -239h4z" />
    <glyph glyph-name="afii10040.small" horiz-adv-x="639" 
d="M551 0h-478v553h54v-513h319v513h55v-513h104l-5 -86l-5 -87h-44v133z" />
    <glyph glyph-name="afii10041.small" horiz-adv-x="571" 
d="M442 553h54v-553h-54v256q-73 -43 -174 -43q-112 0 -155 41q-41 41 -41 149v151h54v-151q0 -87 35 -119q35 -31 134 -31q71 0 147 40v260z" />
    <glyph glyph-name="afii10042.small" horiz-adv-x="806" 
d="M731 0h-656v553h54v-513h247v513h55v-513h245v513h55v-553z" />
    <glyph glyph-name="afii10043.small" horiz-adv-x="868" 
d="M781 0h-706v553h54v-513h247v513h55v-513h245v513h55v-513h105l-4 -54q-6 -98 -8 -120h-43v134z" />
    <glyph glyph-name="afii10044.small" horiz-adv-x="686" 
d="M211 513h-159v40h214v-222h91q145 0 199 -36q55 -34 55 -129q0 -98 -54 -132q-52 -34 -200 -34h-146v513zM556 166q0 71 -43 98q-42 27 -156 27h-91v-251h91q114 0 157 26q42 27 42 100z" />
    <glyph glyph-name="afii10045.small" horiz-adv-x="698" 
d="M220 0h-145v553h54v-222h91q145 0 199 -36q55 -34 55 -129q0 -98 -54 -132q-52 -34 -200 -34zM419 166q0 71 -43 98q-42 27 -156 27h-91v-251h91q114 0 157 26q42 27 42 100zM568 553h54v-553h-54v553z" />
    <glyph glyph-name="afii10046.small" horiz-adv-x="549" 
d="M220 0h-145v553h54v-222h91q145 0 199 -36q55 -34 55 -129q0 -98 -54 -132q-52 -34 -200 -34zM419 166q0 71 -43 98q-42 27 -156 27h-91v-251h91q114 0 157 26q42 27 42 100z" />
    <glyph glyph-name="afii10047.small" horiz-adv-x="553" 
d="M481 276q0 -159 -47 -220q-46 -60 -173 -60q-116 0 -195 43v36q82 -39 172 -39q106 0 147 48q39 48 41 180h-270v41h270q-3 121 -44 167q-40 45 -144 45q-87 0 -172 -38v36q81 42 195 42q126 0 173 -59t47 -222z" />
    <glyph glyph-name="afii10048.small" horiz-adv-x="766" 
d="M129 264v-264h-54v553h54v-248h145q3 145 47 198q45 54 160 54q119 0 163 -59t44 -222q0 -159 -44 -220q-44 -60 -163 -60q-117 0 -162 57q-44 59 -45 211h-145zM328 276q0 -137 32 -189q33 -51 121 -51q87 0 119 51q33 51 33 189q0 140 -33 190q-31 51 -119 51t-121 -51
q-32 -50 -32 -190z" />
    <glyph glyph-name="afii10049.small" horiz-adv-x="546" 
d="M329 553h142v-553h-54v231h-88h-48l-167 -231h-62l176 236q-84 10 -118 45t-34 111q0 94 53 127q53 34 200 34zM130 392q0 -68 42 -94q44 -26 157 -26h88v241h-88q-113 0 -157 -26q-42 -25 -42 -95z" />
    <glyph glyph-name="afii10050.small" horiz-adv-x="461" 
d="M406 513h-277v-513h-54v553h278v90h53v-130z" />
    <glyph glyph-name="afii10051.small" horiz-adv-x="686" 
d="M558 0v172q0 67 -22 91.5t-81 24.5q-75 0 -137 -32v-256h-54v513h-212v40h477v-40h-211v-222q68 38 154 38q81 0 111 -34q30 -33 30 -123v-172q0 -104 -43 -143q-44 -39 -158 -39q-67 0 -112 15v34q34 -8 93 -8q95 0 130 30t35 111z" />
    <glyph glyph-name="afii10052.small" horiz-adv-x="474" 
d="M191 593l-25 30l152 141l25 -29zM129 513v-513h-54v553h346v-40h-292z" />
    <glyph glyph-name="afii10053.small" horiz-adv-x="550" 
d="M72 276q0 164 46 222q47 59 173 59q111 0 194 -42v-36q-84 38 -172 38q-103 0 -144 -45q-40 -45 -42 -167h303v-41h-303q2 -131 40 -180q41 -48 146 -48q93 0 172 39v-36q-79 -43 -194 -43q-126 0 -173 59q-46 59 -46 221z" />
    <glyph glyph-name="afii10054.small" horiz-adv-x="528" 
d="M123 413q0 -37 25 -61q12 -11 29.5 -20t31 -13t41.5 -11t41 -11q30 -7 50 -13.5t44.5 -18.5t39 -27t24.5 -39t10 -55q0 -85 -43 -116q-44 -32 -156 -32q-115 0 -190 35v38q76 -33 170 -33t129 23t35 85q0 79 -118 106q-66 16 -99 25q-52 14 -85 49t-33 89q0 81 40 112
q41 32 147 32q110 0 183 -33v-40q-74 33 -163 33q-86 0 -119.5 -22.5t-33.5 -81.5z" />
    <glyph glyph-name="afii10055.small" horiz-adv-x="204" 
d="M75 553h54v-553h-54v553z" />
    <glyph glyph-name="afii10056.small" horiz-adv-x="204" 
d="M75 553h54v-553h-54v553zM-40 700h50v-87h-50v87zM195 700h49v-87h-49v87z" />
    <glyph glyph-name="afii10057.small" horiz-adv-x="454" 
d="M312 197v356h54v-356q0 -115 -43 -158q-42 -43 -157 -43q-64 0 -112 14v35q35 -9 92 -9q97 0 131 34q35 35 35 127z" />
    <glyph glyph-name="afii10058.small" horiz-adv-x="944" 
d="M615 0h-145v513h-262q0 -243 -22 -338q-23 -99 -98 -183l-45 17q31 38 43 58q14 19 30 60q18 40 24 91q16 134 16 335h368v-222h91q145 0 199 -36q55 -34 55 -129q0 -98 -54 -132q-52 -34 -200 -34zM814 166q0 71 -43 98q-42 27 -156 27h-91v-251h91q114 0 157 26
q42 27 42 100z" />
    <glyph glyph-name="afii10059.small" horiz-adv-x="933" 
d="M604 0h-145v264h-332v-264h-54v553h54v-248h332v248h54v-222h91q144 0 198 -36q55 -34 55 -129q0 -98 -54 -132q-52 -34 -199 -34zM802 166q0 71 -42 98t-156 27h-91v-251h91q113 0 156 26q42 27 42 100z" />
    <glyph glyph-name="afii10060.small" horiz-adv-x="686" 
d="M612 0h-54v172q0 50 -10 74.5t-35 32.5q-23 9 -61 6q-62 -5 -134 -42v-243h-54v513h-212v40h476v-40h-210v-223q68 38 154 38q82 -2 110 -34q30 -32 30 -122v-172z" />
    <glyph glyph-name="afii10061.small" horiz-adv-x="537" 
d="M75 553h54v-245h95l198 245h62l-215 -269l231 -284h-62l-214 261h-95v-261h-54v553zM202 593l-25 30l152 141l25 -29z" />
    <glyph glyph-name="afii10062.small" horiz-adv-x="614" 
d="M293 158h-22l-218 395h56l195 -345h6l194 345h56l-255 -469q-23 -48 -51.5 -68t-82.5 -20q-69 0 -112 25v35q42 -20 89 -20q62 0 85 29q35 45 60 93zM424 717h48q-14 -50 -51.5 -70.5t-112.5 -20.5q-76 0 -113.5 20.5t-51.5 70.5h49q23 -53 116 -53q92 0 116 53z" />
    <glyph glyph-name="afii10145.small" horiz-adv-x="574" 
d="M262 0h-189v553h54v-513h320v513h54v-553h-189q-1 -26 -8 -134h-42v134z" />
    <glyph glyph-name="ampersandsmall" horiz-adv-x="651" 
d="M276 -4q-117 0 -161 32q-43 31 -43 119q0 63 22 95t76 45v3q-45 12 -63.5 41t-18.5 86q0 83 40 111q41 29 149 29q93 0 154 -34v-36q-65 30 -142 30q-87 0 -118 -22t-31 -83q0 -60 29 -82t107 -22h107l13 79h40v-79h160v-41h-160v-134q0 -56 19.5 -76.5t73.5 -20.5
q30 0 67 5v-36q-33 -9 -87 -9q-75 0 -100 27q-51 -27 -133 -27zM125 151q0 -65 32 -91q31 -24 119 -24q59 0 116 21q-9 24 -9 75v135h-107q-88 0 -119 -25q-32 -24 -32 -91z" />
    <glyph glyph-name="centinferior" horiz-adv-x="230" 
d="M109 162h36v-48q30 -1 54 -11v-26q-37 12 -67 11q-38 -1 -51.5 -18t-13.5 -63t14 -63t52 -18q22 0 47 5q6 1 19 6v-26q-21 -9 -54 -11v-47h-36v46q-44 3 -61 27t-17 81t17 81.5t61 27.5v46z" />
    <glyph glyph-name="centsuperior" horiz-adv-x="230" 
d="M109 662h36v-48q29 -2 54 -11v-26q-37 12 -67 11q-38 -1 -51.5 -18t-13.5 -63t14.5 -63.5t52.5 -17.5q21 0 46 5q6 1 19 6v-26q-21 -9 -54 -11v-47h-36v46q-44 3 -61 27t-17 81t17 81.5t61 27.5v46z" />
    <glyph glyph-name="commainferior" horiz-adv-x="103" 
d="M37 -108v58h33v-48q0 -37 -20 -63q-2 2 -14 5.5t-14 5.5q15 21 15 42z" />
    <glyph glyph-name="commasuperior" horiz-adv-x="103" 
d="M37 392v58h33v-48q0 -37 -20 -63q-2 1 -14 5t-14 6q15 21 15 42z" />
    <glyph glyph-name="dollarinferior" horiz-adv-x="273" 
d="M117 247h36v-44q48 -3 76 -15v-29q-24 10 -53 13q-14 2 -34 2q-40 -1 -56 -12.5t-16 -39.5q0 -21 17.5 -33t42.5 -17.5t50 -13t42.5 -27t17.5 -51.5q0 -41 -19 -59t-68 -22v-46h-36v44q-50 3 -83 17v27q28 -13 50 -14q8 -1 35 -1q47 1 65 12.5t18 40.5q0 46 -85 60
q-36 6 -60.5 27.5t-24.5 55.5q0 40 19 58t66 21v46z" />
    <glyph glyph-name="dollaroldstyle" horiz-adv-x="511" 
d="M271 -118h-46v114q-86 3 -149 34v41q75 -37 173 -31q72 1 100.5 21t28.5 69q0 74 -107 97q-4 1 -13 3q-34 8 -52 13t-47.5 16.5t-44.5 25t-27 36t-12 51.5q0 70 33 99t117 32v115h46v-114q81 -3 139 -32v-40q-66 31 -148 31q-76 0 -104.5 -19.5t-28.5 -69.5
q0 -71 107 -94q28 -6 39 -8.5t37 -9.5t38.5 -13.5t31 -18t27.5 -24.5t16 -32t7 -42q0 -72 -35 -102t-126 -33v-115z" />
    <glyph glyph-name="dollarsuperior" horiz-adv-x="273" 
d="M117 747h36v-44q48 -3 76 -15v-29q-24 10 -53 13q-14 2 -34 2q-41 -1 -56.5 -12.5t-15.5 -39.5q0 -21 17.5 -33t42.5 -17.5t50 -13t42.5 -27t17.5 -51.5q0 -41 -19 -59t-68 -22v-46h-36v44q-50 3 -83 17v27q28 -13 50 -14q8 -1 35 -1q47 1 65 12.5t18 40.5q0 46 -85 60
q-36 6 -60.5 27.5t-24.5 55.5q0 40 19 58t66 21v46z" />
    <glyph glyph-name="eight.fitted" horiz-adv-x="650" 
d="M109 527q0 103 45 140q47 38 168 38q123 0 167 -37q45 -38 45 -141q0 -73 -22 -109.5t-78 -51.5v-3q66 -16 93 -56.5t27 -121.5q0 -109 -50 -150q-49 -40 -182 -40q-134 0 -183 40q-50 41 -50 150q0 81 27 121.5t92 56.5v3q-55 15 -77 51.5t-22 109.5zM143 189
q0 -87 38 -120q40 -32 141 -32t139 32q39 33 39 120q0 88 -38 120q-38 33 -140 33t-141 -33q-38 -32 -38 -120zM161 523q0 -80 34 -110q35 -29 127 -29q91 0 125 30q35 32 35 109q0 81 -35 110q-35 30 -125 30q-92 0 -127 -30q-34 -28 -34 -110z" />
    <glyph glyph-name="eight.taboldstyle" horiz-adv-x="650" 
d="M109 527q0 103 45 140q47 38 168 38q123 0 167 -37q45 -38 45 -141q0 -73 -22 -109.5t-78 -51.5v-3q66 -16 93 -56.5t27 -121.5q0 -109 -50 -150q-49 -40 -182 -40q-134 0 -183 40q-50 41 -50 150q0 81 27 121.5t92 56.5v3q-55 15 -77 51.5t-22 109.5zM143 189
q0 -87 38 -120q40 -32 141 -32t139 32q39 33 39 120q0 88 -38 120q-38 33 -140 33t-141 -33q-38 -32 -38 -120zM161 523q0 -80 34 -110q35 -29 127 -29q91 0 125 30q35 32 35 109q0 81 -35 110q-35 30 -125 30q-92 0 -127 -30q-34 -28 -34 -110z" />
    <glyph glyph-name="eightoldstyle" horiz-adv-x="640" 
d="M109 527q0 102 44 140q46 38 164 38q121 0 164 -37q44 -38 44 -141q0 -73 -22 -109.5t-78 -51.5v-3q66 -16 93 -56.5t27 -121.5q0 -110 -49 -150q-47 -40 -179 -40q-130 0 -179 40t-49 150q0 81 27 121.5t92 56.5v3q-55 15 -77 51.5t-22 109.5zM143 189q0 -87 37 -120
q38 -32 137 -32q98 0 136 32q37 33 37 120q0 89 -37 120q-37 33 -136 33t-137 -33q-37 -31 -37 -120zM162 523q0 -80 33 -110q34 -29 122 -29t121 30t33 109q0 81 -33 110q-33 30 -121 30q-89 0 -122 -30q-33 -29 -33 -110z" />
    <glyph glyph-name="exclamdownsmall" horiz-adv-x="184" 
d="M116 418h-49v82h49v-82zM119 -53h-53l3 387h45z" />
    <glyph glyph-name="exclamsmall" horiz-adv-x="184" 
d="M67 82h49v-82h-49v82zM66 553h53l-5 -387h-45z" />
    <glyph glyph-name="five.fitted" horiz-adv-x="650" 
d="M250 369h-145l26 333h400v-41h-350l-21 -250h111q170 0 234 -46q65 -47 65 -165t-56 -162q-55 -43 -205 -43q-134 0 -232 53v38q105 -49 212 -49q130 0 179 35q48 34 48 131t-57 131q-56 35 -209 35z" />
    <glyph glyph-name="five.taboldstyle" horiz-adv-x="650" 
d="M250 179h-145l26 321h400v-42h-350l-21 -237h111q169 0 234 -50t65 -179q0 -127 -56 -174q-55 -48 -205 -48q-135 0 -232 49v38q107 -45 212 -45q130 0 178 39q49 39 49 144q0 106 -57 145q-55 39 -209 39z" />
    <glyph glyph-name="fiveoldstyle" horiz-adv-x="594" 
d="M246 179h-136l26 321h347v-42h-297l-21 -237h102q141 0 194 -50t53 -180q0 -128 -50 -175q-49 -48 -184 -48q-119 0 -207 52v39q94 -49 187 -49q115 0 157 39q43 39 43 145q0 107 -46 146q-45 39 -168 39z" />
    <glyph glyph-name="four.fitted" horiz-adv-x="650" 
d="M500 0h-54v115h-378v41l340 544h92v-544h78v-41h-78v-115zM441 658l-319 -502h324v502h-5z" />
    <glyph glyph-name="four.taboldstyle" horiz-adv-x="650" 
d="M500 -225h-54v225h-378v42l340 458h92v-458h78v-42h-78v-225zM441 458l-318 -416h323v416h-5z" />
    <glyph glyph-name="fouroldstyle" horiz-adv-x="630" 
d="M480 -225h-54v225h-358v42l320 458h92v-458h77v-42h-77v-225zM421 458l-299 -416h304v416h-5z" />
    <glyph glyph-name="hypheninferior" horiz-adv-x="161" 
d="M129 18h-96v30h96v-30z" />
    <glyph glyph-name="hyphensuperior" horiz-adv-x="161" 
d="M129 518h-96v30h96v-30z" />
    <glyph glyph-name="nine.fitted" horiz-adv-x="650" 
d="M556 427q0 -132 -11.5 -212t-40.5 -130q-27 -49 -71.5 -69.5t-117.5 -20.5q-124 0 -216 47v39q96 -44 194 -44q111 0 158 63q46 63 51 230q-21 -25 -62 -34.5t-123 -9.5q-136 0 -186 44t-50 166q0 119 51 164t187 45q135 0 186 -60q51 -58 51 -218zM502 427
q0 135 -39 185q-39 51 -144 51t-145 -36q-39 -35 -39 -131q0 -97 39 -133q41 -35 145 -35q105 0 144 21t39 78z" />
    <glyph glyph-name="nine.taboldstyle" horiz-adv-x="650" 
d="M556 227q0 -178 -23 -278q-22 -97 -72.5 -138t-145.5 -41q-124 0 -216 47v39q96 -44 194 -44q111 0 158 69q47 67 51 249q-21 -25 -62 -34.5t-123 -9.5q-136 0 -186 44t-50 166q0 119 51 164t187 45q135 0 186 -60q51 -58 51 -218zM502 227q0 135 -39 185q-39 51 -144 51
t-145 -36q-39 -35 -39 -131q0 -97 39 -133q41 -35 145 -35q105 0 144 21t39 78z" />
    <glyph glyph-name="nineoldstyle" horiz-adv-x="626" 
d="M540 227q-2 -185 -22.5 -279.5t-68.5 -134.5t-142 -43q-124 0 -208 40v38q89 -36 186 -36q107 0 152 69q44 67 49 249q-20 -25 -59 -34.5t-118 -9.5q-130 0 -180 44q-48 44 -48 166q0 119 49 164q50 45 180 45t180 -60q50 -59 50 -218zM486 227q0 135 -38 185
q-37 51 -137 51q-101 0 -139 -36q-37 -34 -37 -131t37 -133q38 -35 139 -35q99 0 137 21t38 78z" />
    <glyph glyph-name="one.fitted" horiz-adv-x="650" 
d="M299 647l-213 -87v49l213 91h54v-658h211v-42h-478v42h213v605z" />
    <glyph glyph-name="one.taboldstyle" horiz-adv-x="650" 
d="M299 447l-213 -87v49l213 91h54v-458h211v-42h-478v42h213v405z" />
    <glyph glyph-name="oneoldstyle" horiz-adv-x="470" 
d="M210 448l-160 -59v50l160 61h55v-458h135v-42h-326v42h136v406z" />
    <glyph glyph-name="periodinferior" horiz-adv-x="99" 
d="M33 -50h33v-50h-33v50z" />
    <glyph glyph-name="periodsuperior" horiz-adv-x="99" 
d="M33 450h33v-50h-33v50z" />
    <glyph glyph-name="questiondownsmall" horiz-adv-x="482" 
d="M231 334h49q0 -97 -55 -134q-8 -5 -27 -16t-28.5 -17.5t-22 -18.5t-18 -27t-5.5 -34q0 -59 31 -81.5t113 -22.5q85 0 154 34v-40q-67 -34 -173 -34q-100 0 -140 32q-38 32 -38 112q0 33 12 56.5t29.5 35t38.5 24.5t38.5 26t29.5 40t12 65zM280 418h-49v82h49v-82z" />
    <glyph glyph-name="questionsmall" horiz-adv-x="482" 
d="M255 166h-49q0 43 11.5 74t29 46t38 28.5t38 23t29 29t11.5 46.5q0 59 -31.5 81.5t-112.5 22.5q-84 0 -155 -34v40q67 34 174 34q101 0 139 -32t38 -112q0 -33 -12 -56.5t-29.5 -35t-38.5 -24.5t-38.5 -26t-29.5 -40t-12 -65zM206 82h49v-82h-49v82z" />
    <glyph glyph-name="rsuperior" horiz-adv-x="359" 
d="M117 414h-35v286h76q74 0 101.5 -18t27.5 -67q0 -38 -16.5 -56.5t-56.5 -24.5l86 -120h-39l-81 117h-22h-41v-117zM117 673v-115h41q54 0 74.5 12.5t20.5 44.5q0 34 -20 46t-75 12h-41z" />
    <glyph glyph-name="seven.fitted" horiz-adv-x="650" 
d="M523 658h-460v42h521v-38l-346 -662h-57z" />
    <glyph glyph-name="seven.taboldstyle" horiz-adv-x="650" 
d="M523 458h-460v42h521v-38l-346 -687h-57z" />
    <glyph glyph-name="sevenoldstyle" horiz-adv-x="605" 
d="M479 458h-416v42h476v-38l-301 -687h-56z" />
    <glyph glyph-name="six.fitted" horiz-adv-x="650" 
d="M89 280q0 168 21 258q22 90 71 128.5t140 38.5q116 0 205 -47v-39q-91 44 -185 44q-105 0 -150 -62q-44 -62 -48 -223q21 24 61.5 33.5t121.5 9.5q135 0 185 -45t50 -168q0 -122 -51 -168q-50 -45 -185 -45t-186 61q-50 62 -50 224zM143 280q0 -138 39 -191
q39 -52 143 -52t143 36q39 37 39 135q0 99 -39 135q-38 36 -143 36t-144 -21q-38 -20 -38 -78z" />
    <glyph glyph-name="six.taboldstyle" horiz-adv-x="650" 
d="M89 280q0 168 21 258q22 90 71 128.5t140 38.5q116 0 205 -47v-39q-91 44 -185 44q-105 0 -150 -62q-44 -62 -48 -223q21 24 61.5 33.5t121.5 9.5q135 0 185 -45t50 -168q0 -122 -51 -168q-50 -45 -185 -45t-186 61q-50 62 -50 224zM143 280q0 -138 39 -191
q39 -52 143 -52t143 36q39 37 39 135q0 99 -39 135q-38 36 -143 36t-144 -21q-38 -20 -38 -78z" />
    <glyph glyph-name="sixoldstyle" horiz-adv-x="643" 
d="M89 280q2 130 12 208.5t37.5 127.5t68.5 68t110 21q114 0 202 -47v-39q-90 44 -182 44q-103 0 -147 -62q-42 -60 -47 -223q20 24 60 33.5t119 9.5q132 0 182 -45t50 -168q0 -121 -50 -168q-50 -45 -183 -45q-134 0 -183 61t-49 224zM143 280q0 -138 38 -191
q37 -52 140 -52t140 36q39 37 39 135q0 99 -38 135t-141 36t-140 -21q-38 -20 -38 -78z" />
    <glyph glyph-name="three.fitted" horiz-adv-x="650" 
d="M217 341l-63 2v37l48 2q161 2 220 32q60 30 60 108q0 82 -41 111q-41 30 -149 30t-210 -36v38q90 40 220 40q135 0 184 -37q50 -38 50 -142q0 -71 -31 -109t-102 -53v-3q82 -13 118 -55t36 -122q0 -111 -51 -150t-191 -39q-139 0 -233 42v38q99 -38 217 -38t161 31
t43 120q0 88 -61 119q-62 33 -225 34z" />
    <glyph glyph-name="three.taboldstyle" horiz-adv-x="650" 
d="M219 179l-62 3v37l47 2q158 1 219 28q59 26 59 93q0 69 -41 95t-149 26t-210 -36v38q90 40 220 40q134 0 184 -33t50 -126q0 -63 -31 -96.5t-102 -46.5v-3q81 -16 117.5 -65t36.5 -142q0 -130 -52 -176q-52 -47 -190 -47q-139 0 -233 42v38q99 -38 217 -38q117 0 160 39
q44 39 44 145q0 104 -61 143q-59 38 -223 40z" />
    <glyph glyph-name="threeoldstyle" horiz-adv-x="586" 
d="M206 179l-49 3v37l37 2q127 1 175 28q47 26 47 93q0 70 -34 95q-34 26 -125 26q-88 0 -175 -33v39q79 36 188 36q116 0 158 -33t42 -126q0 -64 -31 -97.5t-102 -46.5v-4q82 -16 118 -65t36 -143q0 -129 -46 -174q-45 -46 -170 -46q-112 0 -193 38v38q81 -34 175 -34
q104 0 142 38t38 141q0 107 -49 146q-50 41 -182 42z" />
    <glyph glyph-name="two.fitted" horiz-adv-x="650" 
d="M569 0h-484v42q0 65 25 113.5t58.5 74t83.5 47.5q19 9 57 25.5t66 29.5t50 27q85 53 85 166q0 78 -45 108q-43 30 -160 30q-118 0 -220 -50v42q97 50 238 50q137 0 189 -40q52 -39 52 -140q0 -94 -44 -145.5t-123 -86.5q-14 -6 -44.5 -18t-46.5 -18.5t-42 -20t-41 -24.5
t-33 -29t-27.5 -37.5t-16.5 -46t-7 -57.5h430v-42z" />
    <glyph glyph-name="two.taboldstyle" horiz-adv-x="650" 
d="M569 0h-484v42q0 49 23.5 84t61 54t82.5 32.5t90.5 25t83 26t61 41t23.5 64.5q0 53 -45 73q-43 21 -160 21q-118 0 -220 -50v42q97 50 238 50q137 0 189 -28t52 -98q0 -57 -31.5 -95.5t-78.5 -55.5t-102.5 -33t-102.5 -29.5t-78.5 -45t-31.5 -78.5h430v-42z" />
    <glyph glyph-name="twooldstyle" horiz-adv-x="527" 
d="M449 0h-364v42q0 56 22.5 94t56.5 55.5t73.5 33.5t73.5 29t56.5 42.5t22.5 72.5q0 53 -32 73q-32 21 -116 21t-157 -42v41q74 43 178 43t142 -28q39 -29 39 -98q0 -66 -31.5 -106.5t-76 -58.5t-89.5 -34t-76.5 -49.5t-31.5 -88.5h310v-42z" />
    <glyph glyph-name="uni018F.small" horiz-adv-x="618" 
d="M306 -4q-133 0 -183 59q-49 59 -49 221v30h410q-3 120 -46 164q-42 46 -149 46q-95 0 -180 -39v36q85 43 202 43q132 0 180 -60q49 -58 49 -220q0 -160 -50 -221q-50 -59 -184 -59zM305 36q104 0 141 49q38 49 39 180h-358q2 -133 38 -181q38 -48 140 -48z" />
    <glyph glyph-name="uni021A.small" horiz-adv-x="582" 
d="M270 -137v87h41v-61q0 -51 -9 -80q-7 -26 -35 -59q-12 6 -32 17q22 28 28 46q7 17 7 50zM264 513h-212v40h477v-40h-211v-513h-54v513z" />
    <glyph glyph-name="uni0400.small" horiz-adv-x="530" 
d="M462 40v-40h-387v553h387v-40h-333v-207h312v-40h-312v-226h333zM361 623l-25 -30l-152 142l25 29z" />
    <glyph glyph-name="uni040D.small" horiz-adv-x="600" 
d="M471 464l-342 -464h-54v553h54v-465l342 465h54v-553h-54v464zM388 623l-25 -30l-152 142l25 29z" />
    <glyph glyph-name="uni04D8.small" horiz-adv-x="618" 
d="M306 -4q-133 0 -183 59q-49 59 -49 221v30h410q-3 120 -46 164q-42 46 -149 46q-95 0 -180 -39v36q85 43 202 43q132 0 180 -60q49 -58 49 -220q0 -160 -50 -221q-50 -59 -184 -59zM305 36q104 0 141 49q38 49 39 180h-358q2 -133 38 -181q38 -48 140 -48z" />
    <glyph glyph-name="zero.fitted" horiz-adv-x="650" 
d="M89 350q0 207 49 280q50 75 184 75t183 -75q49 -73 49 -280q0 -202 -50 -279q-49 -76 -182 -76q-134 0 -183 76q-50 77 -50 279zM142 350q0 -178 38 -246q37 -67 141 -67t141 67q39 68 39 246q0 182 -38 247q-37 66 -142 66q-103 0 -141 -66q-38 -65 -38 -247z" />
    <glyph glyph-name="zero.slash" horiz-adv-x="692" 
d="M533 750h44l-53 -99q39 -36 55.5 -107.5t16.5 -193.5q0 -202 -54 -279q-54 -76 -199 -76q-98 0 -151 31l-40 -76h-44l53 100q-38 38 -55 109.5t-17 190.5q0 206 54 280q54 75 200 75q96 0 150 -30zM543 350q0 186 -45 251l-283 -531q43 -33 127 -33q115 0 158 67t43 246z
M142 350q0 -186 45 -250l282 531q-43 32 -127 32q-114 0 -158 -66q-42 -66 -42 -247z" />
    <glyph glyph-name="zero.slashfitted" horiz-adv-x="650" 
d="M512 750h44l-58 -110q56 -73 56 -290q0 -202 -50 -279q-49 -76 -182 -76q-98 0 -147 37l-44 -82h-44l59 111q-57 73 -57 289q0 207 49 280q50 75 184 75q99 0 147 -36zM140 350q0 -170 33 -237l271 510q-39 40 -123 40q-104 0 -143 -66q-38 -67 -38 -247zM503 350
q0 169 -34 237l-270 -510q39 -40 122 -40q104 0 143 67q39 68 39 246z" />
    <glyph glyph-name="zero.slashtaboldstyle" horiz-adv-x="650" 
d="M460 550h43l-37 -70q48 -24 68 -77t20 -153q0 -145 -50 -201q-50 -54 -182 -54q-59 0 -108 11l-30 -56h-43l37 70q-48 24 -68.5 78t-20.5 152q0 149 49 201q49 54 184 54q66 0 108 -11zM140 250q0 -78 14 -122t47 -66l207 391q-31 10 -87 10q-104 0 -143 -45
q-38 -44 -38 -168zM503 250q0 148 -60 187l-208 -390q31 -10 86 -10q104 0 143 45q39 46 39 168z" />
    <glyph glyph-name="zero.taboldstyle" horiz-adv-x="650" 
d="M89 250q0 149 49 201q49 54 184 54q134 0 183 -54q49 -52 49 -201q0 -145 -50 -201q-50 -54 -182 -54q-134 0 -183 54q-50 56 -50 201zM143 250q0 -121 38 -168q37 -45 140 -45t141 45q38 47 38 168q0 124 -38 168q-38 45 -141 45t-141 -45q-37 -43 -37 -168z" />
    <glyph glyph-name="zeroinferior.slash" horiz-adv-x="300" 
d="M227 225h29l-25 -47q30 -32 30 -128q0 -88 -24 -120q-24 -33 -89 -33q-37 0 -61 11l-17 -33h-29l25 48q-30 30 -30 127q0 89 23 121q24 32 89 32q41 0 62 -10zM227 50q0 68 -15 93l-110 -206q20 -11 46 -11q45 0 62 26.5t17 97.5zM70 50q0 -65 14 -93l110 207
q-16 10 -46 10q-45 0 -61.5 -26t-16.5 -98z" />
    <glyph glyph-name="zerooldstyle" horiz-adv-x="682" 
d="M89 250q0 148 53 201q52 54 196 54q143 0 196 -54q53 -53 53 -201q0 -146 -54 -201q-53 -54 -195 -54t-196 54q-53 56 -53 201zM143 250q0 -121 41 -168q42 -45 154 -45t152 45q42 46 42 168q0 124 -41 168q-41 45 -153 45t-154 -45q-41 -44 -41 -168z" />
    <glyph glyph-name="zerooldstyle.slash" horiz-adv-x="682" 
d="M476 550h43l-35 -66q56 -23 79.5 -77.5t23.5 -156.5q0 -146 -54 -201q-53 -54 -195 -54q-68 0 -109 10l-29 -55h-43l35 67q-56 24 -79.5 78t-23.5 155q0 148 53 201q52 54 196 54q68 0 109 -10zM140 250q0 -81 17 -126t57 -66l211 397q-40 8 -87 8q-114 0 -156 -45
q-42 -44 -42 -168zM535 250q0 83 -16.5 127t-57.5 65l-211 -397q34 -8 88 -8q113 0 155 45q42 46 42 168z" />
    <glyph glyph-name="zerosuperior.slash" horiz-adv-x="300" 
d="M227 725h29l-25 -47q30 -32 30 -128q0 -88 -24 -121q-24 -32 -89 -32q-40 0 -61 10l-17 -32h-29l25 47q-30 32 -30 128q0 89 23 121q24 32 89 32q41 0 62 -10zM227 550q0 68 -15 93l-110 -207q16 -10 46 -10q45 0 62 26.5t17 97.5zM70 550q0 -64 14 -94l110 208
q-16 10 -46 10q-45 0 -61.5 -26t-16.5 -98z" />
    </font>
</defs>
</svg>
